<svg id="visual" viewBox="0 0 960 540" xmlns="http://www.w3.org/2000/svg"><path d="M0 131L26.7 117.5C53.3 104 106.7 77 160 64.3C213.3 51.7 266.7 53.3 320 58.7C373.3 64 426.7 73 480 79.3C533.3 85.7 586.7 89.3 640 93C693.3 96.7 746.7 100.3 800 92.2C853.3 84 906.7 64 933.3 54L960 44L960 0L933.3 0C906.7 0 853.3 0 800 0C746.7 0 693.3 0 640 0C586.7 0 533.3 0 480 0C426.7 0 373.3 0 320 0C266.7 0 213.3 0 160 0C106.7 0 53.3 0 26.7 0L0 0Z" fill="#a3a3a3"/><path d="M0 190L26.7 175.7C53.3 161.3 106.7 132.7 160 115.5C213.3 98.3 266.7 92.7 320 106.2C373.3 119.7 426.7 152.3 480 166.8C533.3 181.3 586.7 177.7 640 178.5C693.3 179.3 746.7 184.7 800 173C853.3 161.3 906.7 132.7 933.3 118.3L960 104L960 42L933.3 52C906.7 62 853.3 82 800 90.2C746.7 98.3 693.3 94.7 640 91C586.7 87.3 533.3 83.7 480 77.3C426.7 71 373.3 62 320 56.7C266.7 51.3 213.3 49.7 160 62.3C106.7 75 53.3 102 26.7 115.5L0 129Z" fill="#b5b5b5"/><path d="M0 255L26.7 245C53.3 235 106.7 215 160 193.3C213.3 171.7 266.7 148.3 320 153.8C373.3 159.3 426.7 193.7 480 215.3C533.3 237 586.7 246 640 244.2C693.3 242.3 746.7 229.7 800 210.7C853.3 191.7 906.7 166.3 933.3 153.7L960 141L960 102L933.3 116.3C906.7 130.7 853.3 159.3 800 171C746.7 182.7 693.3 177.3 640 176.5C586.7 175.7 533.3 179.3 480 164.8C426.7 150.3 373.3 117.7 320 104.2C266.7 90.7 213.3 96.3 160 113.5C106.7 130.7 53.3 159.3 26.7 173.7L0 188Z" fill="#c1c1c1"/><path d="M0 379L26.7 359.2C53.3 339.3 106.7 299.7 160 297C213.3 294.3 266.7 328.7 320 345.8C373.3 363 426.7 363 480 365.7C533.3 368.3 586.7 373.7 640 382.7C693.3 391.7 746.7 404.3 800 398C853.3 391.7 906.7 366.3 933.3 353.7L960 341L960 139L933.3 151.7C906.7 164.3 853.3 189.7 800 208.7C746.7 227.7 693.3 240.3 640 242.2C586.7 244 533.3 235 480 213.3C426.7 191.7 373.3 157.3 320 151.8C266.7 146.3 213.3 169.7 160 191.3C106.7 213 53.3 233 26.7 243L0 253Z" fill="#cccccc"/><path d="M0 401L26.7 380.2C53.3 359.3 106.7 317.7 160 322.2C213.3 326.7 266.7 377.3 320 395.3C373.3 413.3 426.7 398.7 480 398.7C533.3 398.7 586.7 413.3 640 422.3C693.3 431.3 746.7 434.7 800 426.5C853.3 418.3 906.7 398.7 933.3 388.8L960 379L960 339L933.3 351.7C906.7 364.3 853.3 389.7 800 396C746.7 402.3 693.3 389.7 640 380.7C586.7 371.7 533.3 366.3 480 363.7C426.7 361 373.3 361 320 343.8C266.7 326.7 213.3 292.3 160 295C106.7 297.7 53.3 337.3 26.7 357.2L0 377Z" fill="#c1c1c1"/><path d="M0 487L26.7 489.7C53.3 492.3 106.7 497.7 160 503C213.3 508.3 266.7 513.7 320 512.8C373.3 512 426.7 505 480 499.7C533.3 494.3 586.7 490.7 640 494.2C693.3 497.7 746.7 508.3 800 511C853.3 513.7 906.7 508.3 933.3 505.7L960 503L960 377L933.3 386.8C906.7 396.7 853.3 416.3 800 424.5C746.7 432.7 693.3 429.3 640 420.3C586.7 411.3 533.3 396.7 480 396.7C426.7 396.7 373.3 411.3 320 393.3C266.7 375.3 213.3 324.7 160 320.2C106.7 315.7 53.3 357.3 26.7 378.2L0 399Z" fill="#b5b5b5"/><path d="M0 541L26.7 541C53.3 541 106.7 541 160 541C213.3 541 266.7 541 320 541C373.3 541 426.7 541 480 541C533.3 541 586.7 541 640 541C693.3 541 746.7 541 800 541C853.3 541 906.7 541 933.3 541L960 541L960 501L933.3 503.7C906.7 506.3 853.3 511.7 800 509C746.7 506.3 693.3 495.7 640 492.2C586.7 488.7 533.3 492.3 480 497.7C426.7 503 373.3 510 320 510.8C266.7 511.7 213.3 506.3 160 501C106.7 495.7 53.3 490.3 26.7 487.7L0 485Z" fill="#a3a3a3"/></svg>
