<?xml version="1.0" encoding="UTF-8"?>
<!DOCTYPE svg PUBLIC "-//W3C//DTD SVG 1.1//EN" "http://www.w3.org/Graphics/SVG/1.1/DTD/svg11.dtd">
<svg xmlns="http://www.w3.org/2000/svg" version="1.1" width="512px" height="512px" style="shape-rendering:geometricPrecision; text-rendering:geometricPrecision; image-rendering:optimizeQuality; fill-rule:evenodd; clip-rule:evenodd" xmlns:xlink="http://www.w3.org/1999/xlink">
<g><path style="opacity:0.997" fill="#1d1d1d" d="M 150.5,49.5 C 145.94,63.565 139.773,76.8983 132,89.5C 119.331,106.002 104.831,120.669 88.5,133.5C 88.44,132.957 88.1067,132.624 87.5,132.5C 85.8513,133.648 84.3513,134.981 83,136.5C 86.7701,128.631 90.7701,120.631 95,112.5C 96.1471,109.245 96.9804,105.912 97.5,102.5C 95.9841,91.7717 94.1507,81.1051 92,70.5C 91.7866,66.4138 89.9533,65.0805 86.5,66.5C 99.2933,57.5095 113.627,52.3428 129.5,51C 136.476,50.1082 143.476,49.6082 150.5,49.5 Z"/></g>
<g><path style="opacity:1" fill="#2d2d2d" d="M 158.5,49.5 C 205.167,49.5 251.833,49.5 298.5,49.5C 300.237,51.5497 302.237,53.383 304.5,55C 302.292,55.1909 300.292,55.6909 298.5,56.5C 284.917,58.3024 272.584,63.1357 261.5,71C 252.807,78.8851 247.807,88.7184 246.5,100.5C 245.71,99.3915 245.21,98.0581 245,96.5C 241.922,102.991 238.588,109.325 235,115.5C 229.18,122.287 223.013,128.787 216.5,135C 208.787,141.44 199.954,145.274 190,146.5C 167.14,142.864 144.306,143.697 121.5,149C 112.719,151.689 104.052,154.356 95.5,157C 105.89,151.806 115.223,145.139 123.5,137C 130.992,131.42 138.659,126.087 146.5,121C 157.165,116.45 167.832,112.117 178.5,108C 188.556,97.6168 187.723,88.4502 176,80.5C 167.578,71.6581 161.744,61.3248 158.5,49.5 Z"/></g>
<g><path style="opacity:1" fill="#1b1b1b" d="M 298.5,49.5 C 318.5,49.5 338.5,49.5 358.5,49.5C 378.627,63.1369 394.46,80.8036 406,102.5C 409.033,111.562 412.866,120.228 417.5,128.5C 416.017,126.906 414.517,125.24 413,123.5C 412.667,124.5 412.333,125.5 412,126.5C 404.324,117.327 396.491,108.327 388.5,99.5C 389.025,98.8076 389.692,98.3076 390.5,98C 387.275,94.8071 383.775,91.9737 380,89.5C 379.577,90.9561 378.744,91.4561 377.5,91C 376.5,90 375.5,89 374.5,88C 375.738,88.0773 376.738,87.9106 377.5,87.5C 372.395,82.4495 366.395,79.2828 359.5,78C 363.828,79.8287 367.828,82.162 371.5,85C 366.279,82.9754 361.113,80.4754 356,77.5C 355.667,77.8333 355.333,78.1667 355,78.5C 354.544,77.2559 355.044,76.4226 356.5,76C 353.443,73.8064 351.443,73.973 350.5,76.5C 335.232,71.4619 320.565,64.9619 306.5,57C 303.854,56.5026 301.187,56.3359 298.5,56.5C 300.292,55.6909 302.292,55.1909 304.5,55C 302.237,53.383 300.237,51.5497 298.5,49.5 Z"/></g>
<g><path style="opacity:0.994" fill="#111111" d="M 358.5,49.5 C 374.476,49.4553 390.143,51.622 405.5,56C 410.173,57.6699 414.507,59.8366 418.5,62.5C 418.973,63.9063 419.973,64.573 421.5,64.5C 421.833,65.1667 422.167,65.8333 422.5,66.5C 427.73,74.3529 430.897,83.0196 432,92.5C 431.616,104.487 431.116,116.487 430.5,128.5C 430.666,136.174 430.5,143.841 430,151.5C 427.241,142.949 423.074,135.282 417.5,128.5C 412.866,120.228 409.033,111.562 406,102.5C 394.46,80.8036 378.627,63.1369 358.5,49.5 Z"/></g>
<g><path style="opacity:1" fill="#151515" d="M 298.5,56.5 C 301.187,56.3359 303.854,56.5026 306.5,57C 320.565,64.9619 335.232,71.4619 350.5,76.5C 351.443,73.973 353.443,73.8064 356.5,76C 355.044,76.4226 354.544,77.2559 355,78.5C 355.333,78.1667 355.667,77.8333 356,77.5C 361.113,80.4754 366.279,82.9754 371.5,85C 367.828,82.162 363.828,79.8287 359.5,78C 366.395,79.2828 372.395,82.4495 377.5,87.5C 376.738,87.9106 375.738,88.0773 374.5,88C 375.5,89 376.5,90 377.5,91C 378.744,91.4561 379.577,90.9561 380,89.5C 383.775,91.9737 387.275,94.8071 390.5,98C 389.692,98.3076 389.025,98.8076 388.5,99.5C 396.491,108.327 404.324,117.327 412,126.5C 412.333,125.5 412.667,124.5 413,123.5C 414.517,125.24 416.017,126.906 417.5,128.5C 423.074,135.282 427.241,142.949 430,151.5C 430.5,143.841 430.666,136.174 430.5,128.5C 431.011,144.388 432.011,160.388 433.5,176.5C 434.31,192.128 438.143,207.128 445,221.5C 450.527,231.229 456.027,240.896 461.5,250.5C 461.5,269.167 461.5,287.833 461.5,306.5C 455.752,319.319 448.919,331.653 441,343.5C 422.625,363.273 404.959,383.606 388,404.5C 380.143,416.232 372.31,427.899 364.5,439.5C 364.67,438.178 364.337,437.011 363.5,436C 378.944,414.948 391.11,392.115 400,367.5C 404.578,359.966 408.745,352.632 412.5,345.5C 412.069,344.707 411.735,343.873 411.5,343C 416.237,332.962 419.903,322.962 422.5,313C 421.28,311.475 420.613,309.641 420.5,307.5C 420.67,305.285 421.337,303.285 422.5,301.5C 420.568,297.739 419.902,293.906 420.5,290C 418.606,288.921 418.273,287.587 419.5,286C 415.875,275.239 412.375,264.406 409,253.5C 407.12,242.069 403.786,231.069 399,220.5C 397.233,219.183 395.899,217.516 395,215.5C 385.72,194.331 376.054,173.331 366,152.5C 361,148.267 356.166,143.933 351.5,139.5C 342.873,129.704 334.04,120.037 325,110.5C 319.821,97.1407 313.821,84.1407 307,71.5C 305.786,69.9512 304.286,68.7845 302.5,68C 298.779,67.3562 295.113,66.5228 291.5,65.5C 283.707,65.8079 278.207,69.4746 275,76.5C 274.333,83.1667 274.333,89.8333 275,96.5C 276.56,101.24 277.727,106.073 278.5,111C 276.86,116.086 275.527,121.253 274.5,126.5C 271.482,126.335 268.482,126.502 265.5,127C 252.947,133.886 243.447,143.72 237,156.5C 232.719,165.588 229.219,174.921 226.5,184.5C 225.876,184.083 225.543,183.416 225.5,182.5C 226.21,178.196 226.71,173.863 227,169.5C 232.474,152.078 238.141,134.744 244,117.5C 244.619,111.789 245.452,106.122 246.5,100.5C 247.807,88.7184 252.807,78.8851 261.5,71C 272.584,63.1357 284.917,58.3024 298.5,56.5 Z"/></g>
<g><path style="opacity:0.008" fill="#909090" d="M 418.5,62.5 C 420.027,62.427 421.027,63.0937 421.5,64.5C 419.973,64.573 418.973,63.9063 418.5,62.5 Z"/></g>
<g><path style="opacity:0.999" fill="#141414" d="M 88.5,133.5 C 81.7452,138.754 76.2452,145.087 72,152.5C 65.2235,160.117 57.7235,166.784 49.5,172.5C 49.5,166.833 49.5,161.167 49.5,155.5C 60.9689,142.18 71.1356,127.847 80,112.5C 80.7554,109.312 81.5887,106.145 82.5,103C 81.1446,93.6437 79.4779,84.477 77.5,75.5C 80.3063,72.2721 83.3063,69.2721 86.5,66.5C 89.9533,65.0805 91.7866,66.4138 92,70.5C 94.1507,81.1051 95.9841,91.7717 97.5,102.5C 96.9804,105.912 96.1471,109.245 95,112.5C 90.7701,120.631 86.7701,128.631 83,136.5C 84.3513,134.981 85.8513,133.648 87.5,132.5C 88.1067,132.624 88.44,132.957 88.5,133.5 Z"/></g>
<g><path style="opacity:1" fill="#282828" d="M 351.5,139.5 C 344.39,134.771 337.056,130.271 329.5,126C 322.918,123.228 316.251,122.895 309.5,125C 305.306,128.598 301.972,132.765 299.5,137.5C 293.669,128.374 285.336,124.707 274.5,126.5C 275.527,121.253 276.86,116.086 278.5,111C 277.727,106.073 276.56,101.24 275,96.5C 274.333,89.8333 274.333,83.1667 275,76.5C 278.207,69.4746 283.707,65.8079 291.5,65.5C 295.113,66.5228 298.779,67.3562 302.5,68C 304.286,68.7845 305.786,69.9512 307,71.5C 313.821,84.1407 319.821,97.1407 325,110.5C 334.04,120.037 342.873,129.704 351.5,139.5 Z"/></g>
<g><path style="opacity:1" fill="#292929" d="M 422.5,66.5 C 434.29,73.9581 443.29,83.9581 449.5,96.5C 436.814,111.528 432.314,128.861 436,148.5C 442.253,163.356 450.753,176.69 461.5,188.5C 461.5,209.167 461.5,229.833 461.5,250.5C 456.027,240.896 450.527,231.229 445,221.5C 438.143,207.128 434.31,192.128 433.5,176.5C 432.011,160.388 431.011,144.388 430.5,128.5C 431.116,116.487 431.616,104.487 432,92.5C 430.897,83.0196 427.73,74.3529 422.5,66.5 Z"/></g>
<g><path style="opacity:0.046" fill="#565656" d="M 86.5,66.5 C 83.3063,69.2721 80.3063,72.2721 77.5,75.5C 63.5353,88.421 55.0353,104.421 52,123.5C 50.3064,134.102 49.4731,144.768 49.5,155.5C 49.5,161.167 49.5,166.833 49.5,172.5C 49.5,172.833 49.5,173.167 49.5,173.5C 49.5,175.167 49.5,176.833 49.5,178.5C 49.5,179.167 49.5,179.833 49.5,180.5C 47.8333,180.5 46.1667,180.5 44.5,180.5C 44.2165,165.471 44.7165,150.471 46,135.5C 47.9443,111.114 57.7777,90.6144 75.5,74C 78.7916,70.8623 82.4582,68.3623 86.5,66.5 Z"/></g>
<g><path style="opacity:0.993" fill="#1c1c1c" d="M 77.5,75.5 C 79.4779,84.477 81.1446,93.6437 82.5,103C 81.5887,106.145 80.7554,109.312 80,112.5C 71.1356,127.847 60.9689,142.18 49.5,155.5C 49.4731,144.768 50.3064,134.102 52,123.5C 55.0353,104.421 63.5353,88.421 77.5,75.5 Z"/></g>
<g><path style="opacity:1" fill="#282828" d="M 150.5,49.5 C 153.167,49.5 155.833,49.5 158.5,49.5C 161.744,61.3248 167.578,71.6581 176,80.5C 187.723,88.4502 188.556,97.6168 178.5,108C 167.832,112.117 157.165,116.45 146.5,121C 138.659,126.087 130.992,131.42 123.5,137C 115.223,145.139 105.89,151.806 95.5,157C 104.052,154.356 112.719,151.689 121.5,149C 144.306,143.697 167.14,142.864 190,146.5C 199.954,145.274 208.787,141.44 216.5,135C 223.013,128.787 229.18,122.287 235,115.5C 238.588,109.325 241.922,102.991 245,96.5C 245.21,98.0581 245.71,99.3915 246.5,100.5C 245.452,106.122 244.619,111.789 244,117.5C 238.141,134.744 232.474,152.078 227,169.5C 226.71,173.863 226.21,178.196 225.5,182.5C 225.543,183.416 225.876,184.083 226.5,184.5C 223.136,194.923 219.803,205.256 216.5,215.5C 206.938,222.922 197.605,222.089 188.5,213C 181.905,209.032 174.905,206.198 167.5,204.5C 168.349,200.449 169.515,196.449 171,192.5C 176.626,185.206 182.626,178.206 189,171.5C 191.346,169.294 191.846,166.794 190.5,164C 187.5,163.333 184.5,163.333 181.5,164C 169.187,169.984 159.02,178.484 151,189.5C 148.926,192.975 147.426,196.642 146.5,200.5C 133.66,190.499 120.66,180.666 107.5,171C 102.261,168.589 96.9278,166.589 91.5,165C 85.0374,164.319 78.7041,164.653 72.5,166C 78.5,163.333 84.5,160.667 90.5,158C 90,157.833 89.5,157.667 89,157.5C 75.9296,163.133 62.7629,168.466 49.5,173.5C 49.5,173.167 49.5,172.833 49.5,172.5C 57.7235,166.784 65.2235,160.117 72,152.5C 76.2452,145.087 81.7452,138.754 88.5,133.5C 104.831,120.669 119.331,106.002 132,89.5C 139.773,76.8983 145.94,63.565 150.5,49.5 Z"/></g>
<g><path style="opacity:0.998" fill="#1e1e1e" d="M 449.5,96.5 C 455.136,106.344 458.636,117.01 460,128.5C 461.397,148.467 461.897,168.467 461.5,188.5C 450.753,176.69 442.253,163.356 436,148.5C 432.314,128.861 436.814,111.528 449.5,96.5 Z"/></g>
<g><path style="opacity:1" fill="#101010" d="M 351.5,139.5 C 356.166,143.933 361,148.267 366,152.5C 376.054,173.331 385.72,194.331 395,215.5C 395.899,217.516 397.233,219.183 399,220.5C 403.786,231.069 407.12,242.069 409,253.5C 412.375,264.406 415.875,275.239 419.5,286C 418.273,287.587 418.606,288.921 420.5,290C 419.902,293.906 420.568,297.739 422.5,301.5C 421.337,303.285 420.67,305.285 420.5,307.5C 420.613,309.641 421.28,311.475 422.5,313C 419.903,322.962 416.237,332.962 411.5,343C 411.735,343.873 412.069,344.707 412.5,345.5C 408.745,352.632 404.578,359.966 400,367.5C 391.11,392.115 378.944,414.948 363.5,436C 364.337,437.011 364.67,438.178 364.5,439.5C 358.115,447.885 350.781,455.219 342.5,461.5C 342.167,461.5 341.833,461.5 341.5,461.5C 328.5,461.5 315.5,461.5 302.5,461.5C 317.469,452.338 331.803,442.171 345.5,431C 356.109,421.396 365.609,410.896 374,399.5C 384.232,384.986 393.899,370.32 403,355.5C 390.63,370.878 376.13,383.711 359.5,394C 355.183,395.937 350.85,397.77 346.5,399.5C 345.262,399.19 345.262,398.69 346.5,398C 341.896,396.939 337.229,396.273 332.5,396C 329.719,395.478 327.385,394.311 325.5,392.5C 335.912,395.037 345.912,393.87 355.5,389C 374.577,370.781 384.577,348.447 385.5,322C 383.925,301.385 381.425,280.885 378,260.5C 376.864,256.757 375.53,253.09 374,249.5C 367.062,237.567 359.729,225.9 352,214.5C 342.731,203.22 330.898,199.053 316.5,202C 299.924,211.075 287.258,223.908 278.5,240.5C 278.784,238.123 278.784,235.956 278.5,234C 281.424,228.148 284.091,222.148 286.5,216C 285.366,214.984 285.699,214.317 287.5,214C 285.109,212.691 285.109,211.691 287.5,211C 286.461,209.383 285.461,208.217 284.5,207.5C 302.228,187.144 307.228,163.811 299.5,137.5C 301.972,132.765 305.306,128.598 309.5,125C 316.251,122.895 322.918,123.228 329.5,126C 337.056,130.271 344.39,134.771 351.5,139.5 Z"/></g>
<g><path style="opacity:1" fill="#f9f9f9" d="M 274.5,126.5 C 285.336,124.707 293.669,128.374 299.5,137.5C 307.228,163.811 302.228,187.144 284.5,207.5C 271.481,220.937 256.981,232.603 241,242.5C 235.104,257.956 228.937,273.29 222.5,288.5C 231.6,293.71 241.267,297.877 251.5,301C 257.097,302.456 262.763,302.789 268.5,302C 261.401,296.95 258.901,290.117 261,281.5C 264.325,271.353 270.158,263.02 278.5,256.5C 292.01,246.382 306.344,244.882 321.5,252C 331.704,259.27 335.204,269.104 332,281.5C 329.885,289.067 326.218,295.734 321,301.5C 315.017,306.316 309.517,311.649 304.5,317.5C 307.638,320.901 311.304,323.568 315.5,325.5C 320.774,323.53 325.774,321.03 330.5,318C 332.134,317.506 333.801,317.34 335.5,317.5C 335.762,318.978 335.429,320.311 334.5,321.5C 328.594,324.419 323.26,328.085 318.5,332.5C 320.015,334.547 320.849,336.881 321,339.5C 321.711,346.215 321.378,352.882 320,359.5C 317.426,365.647 314.592,371.647 311.5,377.5C 303.64,390.525 292.973,400.691 279.5,408C 265.36,411.353 257.36,405.853 255.5,391.5C 257.172,382.157 261.005,373.824 267,366.5C 278.541,354.624 290.375,343.124 302.5,332C 301.219,327.718 298.386,325.218 294,324.5C 290.601,326.113 287.101,327.613 283.5,329C 280.5,329.667 277.5,329.667 274.5,329C 272.74,325.17 273.74,322.17 277.5,320C 296.878,316.627 309.378,305.46 315,286.5C 316.899,278.155 316.899,269.822 315,261.5C 303.407,249.56 291.74,249.56 280,261.5C 277.667,265.167 275.333,268.833 273,272.5C 269.748,280.313 271.248,286.813 277.5,292C 280.167,292.667 282.833,292.667 285.5,292C 290.442,287.286 294.275,281.786 297,275.5C 298.011,274.663 299.178,274.33 300.5,274.5C 301.37,283.035 298.87,290.368 293,296.5C 284.02,306.904 272.853,313.57 259.5,316.5C 254.105,316.733 248.772,316.4 243.5,315.5C 234.586,314.105 225.92,311.771 217.5,308.5C 214.573,306.565 211.406,304.898 208,303.5C 197.876,308.818 187.376,313.152 176.5,316.5C 170.797,316.625 165.13,316.292 159.5,315.5C 151.057,315.03 143.891,311.697 138,305.5C 135.741,300.439 134.908,295.105 135.5,289.5C 140.305,281.09 147.638,276.757 157.5,276.5C 165.84,276.334 174.173,276.5 182.5,277C 188.993,279.623 195.66,281.29 202.5,282C 203.701,281.097 204.535,279.931 205,278.5C 205.915,271.908 207.581,265.575 210,259.5C 210.499,255.179 210.666,250.846 210.5,246.5C 196.082,246.783 182.082,244.783 168.5,240.5C 158.013,235.511 150.846,227.511 147,216.5C 146.501,211.177 146.334,205.844 146.5,200.5C 147.426,196.642 148.926,192.975 151,189.5C 159.02,178.484 169.187,169.984 181.5,164C 184.5,163.333 187.5,163.333 190.5,164C 191.846,166.794 191.346,169.294 189,171.5C 182.626,178.206 176.626,185.206 171,192.5C 169.515,196.449 168.349,200.449 167.5,204.5C 166.837,223.007 175.504,234.507 193.5,239C 197.5,239.667 201.5,239.667 205.5,239C 211.239,232.107 214.906,224.274 216.5,215.5C 219.803,205.256 223.136,194.923 226.5,184.5C 229.219,174.921 232.719,165.588 237,156.5C 243.447,143.72 252.947,133.886 265.5,127C 268.482,126.502 271.482,126.335 274.5,126.5 Z"/></g>
<g><path style="opacity:1" fill="#707070" d="M 280.5,136.5 C 277.833,136.833 275.167,137.167 272.5,137.5C 272.167,137.5 271.833,137.5 271.5,137.5C 274.409,135.713 277.409,135.379 280.5,136.5 Z"/></g>
<g><path style="opacity:1" fill="#292929" d="M 280.5,136.5 C 285.086,137.917 288.253,140.917 290,145.5C 292.509,159.105 290.342,171.772 283.5,183.5C 280.282,174.429 276.782,165.429 273,156.5C 272.5,150.175 272.334,143.842 272.5,137.5C 275.167,137.167 277.833,136.833 280.5,136.5 Z"/></g>
<g><path style="opacity:1" fill="#151515" d="M 271.5,137.5 C 271.833,137.5 272.167,137.5 272.5,137.5C 272.334,143.842 272.5,150.175 273,156.5C 276.782,165.429 280.282,174.429 283.5,183.5C 277.11,198.408 267.443,210.908 254.5,221C 251.688,222.328 249.022,223.828 246.5,225.5C 245.511,220.025 245.178,214.358 245.5,208.5C 246.953,191.831 250.119,175.498 255,159.5C 257.858,150.087 263.358,142.754 271.5,137.5 Z"/></g>
<g><path style="opacity:1" fill="#252525" d="M 49.5,178.5 C 67.6515,180.07 85.3182,183.903 102.5,190C 125.734,201.58 139.401,220.247 143.5,246C 143.967,259.309 140.633,271.476 133.5,282.5C 133.929,285.029 134.596,287.362 135.5,289.5C 134.908,295.105 135.741,300.439 138,305.5C 143.891,311.697 151.057,315.03 159.5,315.5C 159.918,316.222 160.584,316.722 161.5,317C 166.684,317.816 171.684,317.65 176.5,316.5C 187.376,313.152 197.876,308.818 208,303.5C 211.406,304.898 214.573,306.565 217.5,308.5C 214.101,310.031 210.767,311.865 207.5,314C 192.33,319.42 176.664,322.42 160.5,323C 148.824,324.417 139.324,329.584 132,338.5C 129.105,343.412 127.771,348.745 128,354.5C 126.314,342.752 124.147,331.086 121.5,319.5C 118.482,319.335 115.482,319.502 112.5,320C 107.585,325.939 101.585,330.106 94.5,332.5C 80.2958,333.663 66.2958,332.329 52.5,328.5C 58.5884,327.791 64.5884,326.624 70.5,325C 73.6978,324.152 76.5311,322.652 79,320.5C 81.254,316.993 83.254,313.327 85,309.5C 87.4287,300.641 90.4287,291.974 94,283.5C 99.8349,275.168 105.168,266.501 110,257.5C 113.035,251.473 114.035,245.14 113,238.5C 98.8893,211.552 77.7226,192.552 49.5,181.5C 49.5,181.167 49.5,180.833 49.5,180.5C 49.5,179.833 49.5,179.167 49.5,178.5 Z"/></g>
<g><path style="opacity:0.364" fill="#3f3f3f" d="M 44.5,180.5 C 46.1667,180.5 47.8333,180.5 49.5,180.5C 49.5,180.833 49.5,181.167 49.5,181.5C 49.5,230.5 49.5,279.5 49.5,328.5C 47.8333,328.5 46.1667,328.5 44.5,328.5C 44.5,279.167 44.5,229.833 44.5,180.5 Z"/></g>
<g><path style="opacity:1" fill="#0f0f0f" d="M 49.5,181.5 C 77.7226,192.552 98.8893,211.552 113,238.5C 114.035,245.14 113.035,251.473 110,257.5C 105.168,266.501 99.8349,275.168 94,283.5C 90.4287,291.974 87.4287,300.641 85,309.5C 83.254,313.327 81.254,316.993 79,320.5C 76.5311,322.652 73.6978,324.152 70.5,325C 64.5884,326.624 58.5884,327.791 52.5,328.5C 66.2958,332.329 80.2958,333.663 94.5,332.5C 94.0825,333.222 93.4158,333.722 92.5,334C 104.279,336.296 112.779,342.796 118,353.5C 121.426,360.777 124.259,368.277 126.5,376C 127.648,389.546 129.148,403.046 131,416.5C 132.932,420.924 135.766,424.591 139.5,427.5C 140.754,430.093 142.42,432.427 144.5,434.5C 141.9,433.081 139.4,431.415 137,429.5C 135.927,430.28 134.76,430.113 133.5,429C 130.141,423.997 125.475,419.664 119.5,416C 114.786,411.289 110.452,406.289 106.5,401C 105.552,400.517 104.552,400.351 103.5,400.5C 102.677,395.337 99.6767,392.004 94.5,390.5C 92.6137,387.021 90.2804,383.854 87.5,381C 86.5509,380.383 85.7175,380.549 85,381.5C 84.6905,380.234 84.1905,379.067 83.5,378C 73.4156,369.594 62.0822,363.76 49.5,360.5C 49.5,349.833 49.5,339.167 49.5,328.5C 49.5,279.5 49.5,230.5 49.5,181.5 Z"/></g>
<g><path style="opacity:1" fill="#0c0c0c" d="M 325.5,392.5 C 323.321,392.16 321.488,391.16 320,389.5C 316.566,385.903 313.733,381.903 311.5,377.5C 314.592,371.647 317.426,365.647 320,359.5C 321.378,352.882 321.711,346.215 321,339.5C 320.849,336.881 320.015,334.547 318.5,332.5C 323.26,328.085 328.594,324.419 334.5,321.5C 335.429,320.311 335.762,318.978 335.5,317.5C 333.801,317.34 332.134,317.506 330.5,318C 325.774,321.03 320.774,323.53 315.5,325.5C 311.304,323.568 307.638,320.901 304.5,317.5C 309.517,311.649 315.017,306.316 321,301.5C 326.218,295.734 329.885,289.067 332,281.5C 335.204,269.104 331.704,259.27 321.5,252C 306.344,244.882 292.01,246.382 278.5,256.5C 277.25,256.423 276.417,255.756 276,254.5C 274.914,249.368 275.748,244.701 278.5,240.5C 287.258,223.908 299.924,211.075 316.5,202C 330.898,199.053 342.731,203.22 352,214.5C 359.729,225.9 367.062,237.567 374,249.5C 375.53,253.09 376.864,256.757 378,260.5C 381.425,280.885 383.925,301.385 385.5,322C 384.577,348.447 374.577,370.781 355.5,389C 345.912,393.87 335.912,395.037 325.5,392.5 Z"/></g>
<g><path style="opacity:1" fill="#151515" d="M 146.5,200.5 C 146.334,205.844 146.501,211.177 147,216.5C 150.846,227.511 158.013,235.511 168.5,240.5C 168.65,252.434 171.317,263.768 176.5,274.5C 170.012,275.167 163.679,275.833 157.5,276.5C 147.638,276.757 140.305,281.09 135.5,289.5C 134.596,287.362 133.929,285.029 133.5,282.5C 140.633,271.476 143.967,259.309 143.5,246C 139.401,220.247 125.734,201.58 102.5,190C 85.3182,183.903 67.6515,180.07 49.5,178.5C 49.5,176.833 49.5,175.167 49.5,173.5C 62.7629,168.466 75.9296,163.133 89,157.5C 89.5,157.667 90,157.833 90.5,158C 84.5,160.667 78.5,163.333 72.5,166C 78.7041,164.653 85.0374,164.319 91.5,165C 96.9278,166.589 102.261,168.589 107.5,171C 120.66,180.666 133.66,190.499 146.5,200.5 Z"/></g>
<g><path style="opacity:1" fill="#191919" d="M 167.5,204.5 C 174.905,206.198 181.905,209.032 188.5,213C 197.605,222.089 206.938,222.922 216.5,215.5C 214.906,224.274 211.239,232.107 205.5,239C 201.5,239.667 197.5,239.667 193.5,239C 175.504,234.507 166.837,223.007 167.5,204.5 Z"/></g>
<g><path style="opacity:1" fill="#656565" d="M 245.5,208.5 C 245.178,214.358 245.511,220.025 246.5,225.5C 246.44,226.043 246.107,226.376 245.5,226.5C 244.183,220.346 244.183,214.346 245.5,208.5 Z"/></g>
<g><path style="opacity:1" fill="#161616" d="M 284.5,207.5 C 285.461,208.217 286.461,209.383 287.5,211C 285.109,211.691 285.109,212.691 287.5,214C 285.699,214.317 285.366,214.984 286.5,216C 284.091,222.148 281.424,228.148 278.5,234C 278.784,235.956 278.784,238.123 278.5,240.5C 275.748,244.701 274.914,249.368 276,254.5C 276.417,255.756 277.25,256.423 278.5,256.5C 270.158,263.02 264.325,271.353 261,281.5C 258.901,290.117 261.401,296.95 268.5,302C 262.763,302.789 257.097,302.456 251.5,301C 241.267,297.877 231.6,293.71 222.5,288.5C 228.937,273.29 235.104,257.956 241,242.5C 256.981,232.603 271.481,220.937 284.5,207.5 Z"/></g>
<g><path style="opacity:1" fill="#1a1a1a" d="M 168.5,240.5 C 182.082,244.783 196.082,246.783 210.5,246.5C 210.666,250.846 210.499,255.179 210,259.5C 207.581,265.575 205.915,271.908 205,278.5C 204.535,279.931 203.701,281.097 202.5,282C 195.66,281.29 188.993,279.623 182.5,277C 174.173,276.5 165.84,276.334 157.5,276.5C 163.679,275.833 170.012,275.167 176.5,274.5C 171.317,263.768 168.65,252.434 168.5,240.5 Z"/></g>
<g><path style="opacity:1" fill="#191919" d="M 149.5,288.5 C 163.907,286.701 177.24,289.534 189.5,297C 184.729,301.552 179.063,304.218 172.5,305C 166.5,305.667 160.5,305.667 154.5,305C 150.241,303.959 146.741,301.792 144,298.5C 143.333,296.833 143.333,295.167 144,293.5C 145.73,291.598 147.563,289.931 149.5,288.5 Z"/></g>
<g><path style="opacity:0.163" fill="#9b9b9b" d="M 421.5,64.5 C 444.771,78.3051 458.938,98.6384 464,125.5C 464.74,131.158 465.406,136.825 466,142.5C 466.5,219.499 466.667,296.499 466.5,373.5C 464.11,374.891 462.443,376.891 461.5,379.5C 461.167,379.5 460.833,379.5 460.5,379.5C 461.451,355.188 461.784,330.855 461.5,306.5C 461.5,287.833 461.5,269.167 461.5,250.5C 461.5,229.833 461.5,209.167 461.5,188.5C 461.897,168.467 461.397,148.467 460,128.5C 458.636,117.01 455.136,106.344 449.5,96.5C 443.29,83.9581 434.29,73.9581 422.5,66.5C 422.167,65.8333 421.833,65.1667 421.5,64.5 Z"/></g>
<g><path style="opacity:1" fill="#131313" d="M 311.5,377.5 C 313.733,381.903 316.566,385.903 320,389.5C 321.488,391.16 323.321,392.16 325.5,392.5C 327.385,394.311 329.719,395.478 332.5,396C 337.229,396.273 341.896,396.939 346.5,398C 345.262,398.69 345.262,399.19 346.5,399.5C 323.795,409.673 300.462,418.506 276.5,426C 247.064,441.362 215.731,448.029 182.5,446C 170.582,444.139 159.249,440.472 148.5,435C 145.335,432.665 142.335,430.165 139.5,427.5C 135.766,424.591 132.932,420.924 131,416.5C 129.148,403.046 127.648,389.546 126.5,376C 124.259,368.277 121.426,360.777 118,353.5C 112.779,342.796 104.279,336.296 92.5,334C 93.4158,333.722 94.0825,333.222 94.5,332.5C 101.585,330.106 107.585,325.939 112.5,320C 115.482,319.502 118.482,319.335 121.5,319.5C 124.147,331.086 126.314,342.752 128,354.5C 127.771,348.745 129.105,343.412 132,338.5C 139.324,329.584 148.824,324.417 160.5,323C 176.664,322.42 192.33,319.42 207.5,314C 210.767,311.865 214.101,310.031 217.5,308.5C 225.92,311.771 234.586,314.105 243.5,315.5C 243.611,316.117 243.944,316.617 244.5,317C 249.684,317.816 254.684,317.65 259.5,316.5C 272.853,313.57 284.02,306.904 293,296.5C 298.87,290.368 301.37,283.035 300.5,274.5C 299.178,274.33 298.011,274.663 297,275.5C 294.275,281.786 290.442,287.286 285.5,292C 282.833,292.667 280.167,292.667 277.5,292C 271.248,286.813 269.748,280.313 273,272.5C 275.333,268.833 277.667,265.167 280,261.5C 291.74,249.56 303.407,249.56 315,261.5C 316.899,269.822 316.899,278.155 315,286.5C 309.378,305.46 296.878,316.627 277.5,320C 273.74,322.17 272.74,325.17 274.5,329C 277.5,329.667 280.5,329.667 283.5,329C 287.101,327.613 290.601,326.113 294,324.5C 298.386,325.218 301.219,327.718 302.5,332C 290.375,343.124 278.541,354.624 267,366.5C 261.005,373.824 257.172,382.157 255.5,391.5C 257.36,405.853 265.36,411.353 279.5,408C 292.973,400.691 303.64,390.525 311.5,377.5 Z"/></g>
<g><path style="opacity:1" fill="#2a2a2a" d="M 461.5,306.5 C 461.784,330.855 461.451,355.188 460.5,379.5C 460.5,379.833 460.5,380.167 460.5,380.5C 453.371,385.903 446.038,391.07 438.5,396C 428.541,408.295 418.207,420.295 407.5,432C 397.289,437.272 386.956,442.272 376.5,447C 373.167,449.333 369.833,451.667 366.5,454C 363.882,456.106 361.882,458.606 360.5,461.5C 360.167,461.5 359.833,461.5 359.5,461.5C 353.833,461.5 348.167,461.5 342.5,461.5C 350.781,455.219 358.115,447.885 364.5,439.5C 372.31,427.899 380.143,416.232 388,404.5C 404.959,383.606 422.625,363.273 441,343.5C 448.919,331.653 455.752,319.319 461.5,306.5 Z"/></g>
<g><path style="opacity:1" fill="#b6b6b6" d="M 159.5,315.5 C 165.13,316.292 170.797,316.625 176.5,316.5C 171.684,317.65 166.684,317.816 161.5,317C 160.584,316.722 159.918,316.222 159.5,315.5 Z"/></g>
<g><path style="opacity:1" fill="#939393" d="M 243.5,315.5 C 248.772,316.4 254.105,316.733 259.5,316.5C 254.684,317.65 249.684,317.816 244.5,317C 243.944,316.617 243.611,316.117 243.5,315.5 Z"/></g>
<g><path style="opacity:0.069" fill="#838383" d="M 44.5,328.5 C 46.1667,328.5 47.8333,328.5 49.5,328.5C 49.5,339.167 49.5,349.833 49.5,360.5C 49.5,360.833 49.5,361.167 49.5,361.5C 48.7043,359.164 47.0377,357.831 44.5,357.5C 44.5,347.833 44.5,338.167 44.5,328.5 Z"/></g>
<g><path style="opacity:1" fill="#141414" d="M 301.5,343.5 C 302.247,365.546 294.914,384.713 279.5,401C 269.193,405.937 264.36,402.771 265,391.5C 273.548,372.733 285.714,356.733 301.5,343.5 Z"/></g>
<g><path style="opacity:1" fill="#171717" d="M 49.5,360.5 C 62.0822,363.76 73.4156,369.594 83.5,378C 84.1905,379.067 84.6905,380.234 85,381.5C 85.7175,380.549 86.5509,380.383 87.5,381C 90.2804,383.854 92.6137,387.021 94.5,390.5C 99.6767,392.004 102.677,395.337 103.5,400.5C 104.552,400.351 105.552,400.517 106.5,401C 110.452,406.289 114.786,411.289 119.5,416C 125.475,419.664 130.141,423.997 133.5,429C 134.76,430.113 135.927,430.28 137,429.5C 139.4,431.415 141.9,433.081 144.5,434.5C 159.654,445.559 175.988,454.559 193.5,461.5C 174.83,461.667 156.164,461.5 137.5,461C 80.4097,453.736 51.0764,421.236 49.5,363.5C 49.5,362.833 49.5,362.167 49.5,361.5C 49.5,361.167 49.5,360.833 49.5,360.5 Z"/></g>
<g><path style="opacity:1" fill="#2d2d2d" d="M 302.5,461.5 C 301.833,461.5 301.167,461.5 300.5,461.5C 266.167,461.5 231.833,461.5 197.5,461.5C 196.167,461.5 194.833,461.5 193.5,461.5C 175.988,454.559 159.654,445.559 144.5,434.5C 142.42,432.427 140.754,430.093 139.5,427.5C 142.335,430.165 145.335,432.665 148.5,435C 159.249,440.472 170.582,444.139 182.5,446C 215.731,448.029 247.064,441.362 276.5,426C 300.462,418.506 323.795,409.673 346.5,399.5C 350.85,397.77 355.183,395.937 359.5,394C 376.13,383.711 390.63,370.878 403,355.5C 393.899,370.32 384.232,384.986 374,399.5C 365.609,410.896 356.109,421.396 345.5,431C 331.803,442.171 317.469,452.338 302.5,461.5 Z"/></g>
<g><path style="opacity:0.214" fill="#464646" d="M 466.5,373.5 C 466.064,411.559 449.73,440.392 417.5,460C 397.463,468.888 376.463,472.721 354.5,471.5C 355.079,468.669 356.412,466.336 358.5,464.5C 368.714,464.962 379.048,464.129 389.5,462C 400.784,459.127 411.784,455.461 422.5,451C 424.526,446.308 427.859,442.974 432.5,441C 434.81,439.363 436.31,437.196 437,434.5C 444.094,429.001 449.261,422.001 452.5,413.5C 453.242,412.713 454.075,412.047 455,411.5C 456.11,406.836 457.61,402.336 459.5,398C 459.167,397.667 458.833,397.333 458.5,397C 459.626,393.7 460.626,390.366 461.5,387C 461.473,384.401 461.473,381.901 461.5,379.5C 462.443,376.891 464.11,374.891 466.5,373.5 Z"/></g>
<g><path style="opacity:1" fill="#111111" d="M 460.5,380.5 C 455.392,417.572 435.392,442.738 400.5,456C 387.435,459.8 374.102,461.633 360.5,461.5C 361.882,458.606 363.882,456.106 366.5,454C 369.833,451.667 373.167,449.333 376.5,447C 386.956,442.272 397.289,437.272 407.5,432C 418.207,420.295 428.541,408.295 438.5,396C 446.038,391.07 453.371,385.903 460.5,380.5 Z"/></g>
<g><path style="opacity:1" fill="#0c0c0c" d="M 147.5,382.5 C 158.491,382.553 168.491,385.719 177.5,392C 183.5,396 189.5,400 195.5,404C 205.039,411.336 205.039,418.003 195.5,424C 190.32,427.378 184.653,429.378 178.5,430C 161.574,433.562 146.741,429.728 134,418.5C 132.97,408.62 133.97,398.953 137,389.5C 139.673,385.615 143.173,383.282 147.5,382.5 Z"/></g>
<g><path style="opacity:0.04" fill="#979797" d="M 44.5,357.5 C 47.0377,357.831 48.7043,359.164 49.5,361.5C 49.5,362.167 49.5,362.833 49.5,363.5C 48.8826,363.389 48.3826,363.056 48,362.5C 47.9183,370.083 47.7517,377.583 47.5,385C 48.5952,390.899 50.9285,396.566 54.5,402C 52.0426,403.512 52.0426,404.846 54.5,406C 54.0426,406.414 53.7093,406.914 53.5,407.5C 54.2838,409.572 55.6171,411.739 57.5,414C 56.3659,415.016 56.6992,415.683 58.5,416C 57.3659,417.016 57.6992,417.683 59.5,418C 58.3659,419.016 58.6992,419.683 60.5,420C 59.8438,422.33 60.8438,423.997 63.5,425C 62.6548,426.558 63.3215,427.558 65.5,428C 65.1667,428.333 64.8333,428.667 64.5,429C 65.8333,430 67.1667,431 68.5,432C 68.1667,432.333 67.8333,432.667 67.5,433C 72.3333,439.167 77.8333,444.667 84,449.5C 84.3333,449.167 84.6667,448.833 85,448.5C 86.1354,451.707 88.1354,453.041 91,452.5C 91.4419,454.679 92.4419,455.345 94,454.5C 94.3173,456.301 94.984,456.634 96,455.5C 96.3333,456.167 96.6667,456.833 97,457.5C 98,457.5 99,457.5 100,457.5C 100.317,459.301 100.984,459.634 102,458.5C 102.317,460.301 102.984,460.634 104,459.5C 104.605,461.481 105.605,461.815 107,460.5C 107.605,462.481 108.605,462.815 110,461.5C 110.308,462.308 110.808,462.975 111.5,463.5C 113.149,463.925 114.983,463.925 117,463.5C 119.181,464.574 121.348,465.574 123.5,466.5C 124.554,466.32 125.554,465.987 126.5,465.5C 128.734,467.682 131.234,468.015 134,466.5C 136.225,468.278 138.725,468.778 141.5,468C 139.185,466.632 139.185,465.799 141.5,465.5C 149.754,466.978 157.754,468.645 165.5,470.5C 173.328,469.897 181.328,469.397 189.5,469C 187.405,468.444 187.238,467.944 189,467.5C 191.784,468.473 194.284,469.806 196.5,471.5C 176.831,471.667 157.164,471.5 137.5,471C 98.2037,469.122 70.037,450.622 53,415.5C 46.7316,396.69 43.8983,377.356 44.5,357.5 Z"/></g>
<g><path style="opacity:0.686" fill="#363636" d="M 460.5,379.5 C 460.833,379.5 461.167,379.5 461.5,379.5C 461.473,381.901 461.473,384.401 461.5,387C 460.626,390.366 459.626,393.7 458.5,397C 458.833,397.333 459.167,397.667 459.5,398C 457.61,402.336 456.11,406.836 455,411.5C 454.075,412.047 453.242,412.713 452.5,413.5C 449.261,422.001 444.094,429.001 437,434.5C 436.31,437.196 434.81,439.363 432.5,441C 427.859,442.974 424.526,446.308 422.5,451C 411.784,455.461 400.784,459.127 389.5,462C 379.048,464.129 368.714,464.962 358.5,464.5C 358.557,463.391 358.89,462.391 359.5,461.5C 359.833,461.5 360.167,461.5 360.5,461.5C 374.102,461.633 387.435,459.8 400.5,456C 435.392,442.738 455.392,417.572 460.5,380.5C 460.5,380.167 460.5,379.833 460.5,379.5 Z"/></g>
<g><path style="opacity:0.446" fill="#717171" d="M 300.5,461.5 C 301.167,461.5 301.833,461.5 302.5,461.5C 315.5,461.5 328.5,461.5 341.5,461.5C 337.072,466.816 331.739,467.816 325.5,464.5C 324.252,465.04 323.085,465.707 322,466.5C 313.402,465.846 304.902,465.18 296.5,464.5C 298.076,463.857 299.41,462.857 300.5,461.5 Z"/></g>
<g><path style="opacity:0.16" fill="#888888" d="M 49.5,363.5 C 51.0764,421.236 80.4097,453.736 137.5,461C 156.164,461.5 174.83,461.667 193.5,461.5C 194.833,461.5 196.167,461.5 197.5,461.5C 200.609,462.658 203.442,464.325 206,466.5C 207.016,465.366 207.683,465.699 208,467.5C 209.395,466.185 210.395,466.519 211,468.5C 212,465.833 213,465.833 214,468.5C 216.471,467.597 218.638,468.263 220.5,470.5C 222.12,467.942 223.62,467.942 225,470.5C 228.163,469.971 231.33,469.638 234.5,469.5C 236.422,469.801 238.088,470.467 239.5,471.5C 225.167,471.5 210.833,471.5 196.5,471.5C 194.284,469.806 191.784,468.473 189,467.5C 187.238,467.944 187.405,468.444 189.5,469C 181.328,469.397 173.328,469.897 165.5,470.5C 157.754,468.645 149.754,466.978 141.5,465.5C 139.185,465.799 139.185,466.632 141.5,468C 138.725,468.778 136.225,468.278 134,466.5C 131.234,468.015 128.734,467.682 126.5,465.5C 125.554,465.987 124.554,466.32 123.5,466.5C 121.348,465.574 119.181,464.574 117,463.5C 114.983,463.925 113.149,463.925 111.5,463.5C 110.808,462.975 110.308,462.308 110,461.5C 108.605,462.815 107.605,462.481 107,460.5C 105.605,461.815 104.605,461.481 104,459.5C 102.984,460.634 102.317,460.301 102,458.5C 100.984,459.634 100.317,459.301 100,457.5C 99,457.5 98,457.5 97,457.5C 96.6667,456.833 96.3333,456.167 96,455.5C 94.984,456.634 94.3173,456.301 94,454.5C 92.4419,455.345 91.4419,454.679 91,452.5C 88.1354,453.041 86.1354,451.707 85,448.5C 84.6667,448.833 84.3333,449.167 84,449.5C 77.8333,444.667 72.3333,439.167 67.5,433C 67.8333,432.667 68.1667,432.333 68.5,432C 67.1667,431 65.8333,430 64.5,429C 64.8333,428.667 65.1667,428.333 65.5,428C 63.3215,427.558 62.6548,426.558 63.5,425C 60.8438,423.997 59.8438,422.33 60.5,420C 58.6992,419.683 58.3659,419.016 59.5,418C 57.6992,417.683 57.3659,417.016 58.5,416C 56.6992,415.683 56.3659,415.016 57.5,414C 55.6171,411.739 54.2838,409.572 53.5,407.5C 53.7093,406.914 54.0426,406.414 54.5,406C 52.0426,404.846 52.0426,403.512 54.5,402C 50.9285,396.566 48.5952,390.899 47.5,385C 47.7517,377.583 47.9183,370.083 48,362.5C 48.3826,363.056 48.8826,363.389 49.5,363.5 Z"/></g>
<g><path style="opacity:0.167" fill="#9c9c9c" d="M 197.5,461.5 C 231.833,461.5 266.167,461.5 300.5,461.5C 299.41,462.857 298.076,463.857 296.5,464.5C 292.465,466.848 288.465,469.182 284.5,471.5C 269.5,471.5 254.5,471.5 239.5,471.5C 238.088,470.467 236.422,469.801 234.5,469.5C 231.33,469.638 228.163,469.971 225,470.5C 223.62,467.942 222.12,467.942 220.5,470.5C 218.638,468.263 216.471,467.597 214,468.5C 213,465.833 212,465.833 211,468.5C 210.395,466.519 209.395,466.185 208,467.5C 207.683,465.699 207.016,465.366 206,466.5C 203.442,464.325 200.609,462.658 197.5,461.5 Z"/></g>
<g><path style="opacity:0.031" fill="#8b8b8b" d="M 341.5,461.5 C 341.833,461.5 342.167,461.5 342.5,461.5C 348.167,461.5 353.833,461.5 359.5,461.5C 358.89,462.391 358.557,463.391 358.5,464.5C 356.412,466.336 355.079,468.669 354.5,471.5C 331.167,471.5 307.833,471.5 284.5,471.5C 288.465,469.182 292.465,466.848 296.5,464.5C 304.902,465.18 313.402,465.846 322,466.5C 323.085,465.707 324.252,465.04 325.5,464.5C 331.739,467.816 337.072,466.816 341.5,461.5 Z"/></g>
</svg>
