<svg id="visual" viewBox="0 0 540 960" width="540" height="960" xmlns="http://www.w3.org/2000/svg" xmlns:xlink="http://www.w3.org/1999/xlink" version="1.1"><path d="M0 231L15 207C30 183 60 135 90 112.7C120 90.3 150 93.7 180 103.3C210 113 240 129 270 140.2C300 151.3 330 157.7 360 164C390 170.3 420 176.7 450 162.3C480 148 510 113 525 95.5L540 78L540 0L525 0C510 0 480 0 450 0C420 0 390 0 360 0C330 0 300 0 270 0C240 0 210 0 180 0C150 0 120 0 90 0C60 0 30 0 15 0L0 0Z" fill="#966969"></path><path d="M0 337L15 311.3C30 285.7 60 234.3 90 204C120 173.7 150 164.3 180 188.3C210 212.3 240 269.7 270 295.2C300 320.7 330 314.3 360 316C390 317.7 420 327.3 450 306.5C480 285.7 510 234.3 525 208.7L540 183L540 76L525 93.5C510 111 480 146 450 160.3C420 174.7 390 168.3 360 162C330 155.7 300 149.3 270 138.2C240 127 210 111 180 101.3C150 91.7 120 88.3 90 110.7C60 133 30 181 15 205L0 229Z" fill="#c08d8d"></path><path d="M0 452L15 434.5C30 417 60 382 90 343.7C120 305.3 150 263.7 180 273.2C210 282.7 240 343.3 270 381.7C300 420 330 436 360 432.8C390 429.7 420 407.3 450 373.8C480 340.3 510 295.7 525 273.3L540 251L540 181L525 206.7C510 232.3 480 283.7 450 304.5C420 325.3 390 315.7 360 314C330 312.3 300 318.7 270 293.2C240 267.7 210 210.3 180 186.3C150 162.3 120 171.7 90 202C60 232.3 30 283.7 15 309.3L0 335Z" fill="#d5aaaa"></path><path d="M0 673L15 637.8C30 602.7 60 532.3 90 527.5C120 522.7 150 583.3 180 613.7C210 644 240 644 270 648.8C300 653.7 330 663.3 360 679.3C390 695.3 420 717.7 450 706.5C480 695.3 510 650.7 525 628.3L540 606L540 249L525 271.3C510 293.7 480 338.3 450 371.8C420 405.3 390 427.7 360 430.8C330 434 300 418 270 379.7C240 341.3 210 280.7 180 271.2C150 261.7 120 303.3 90 341.7C60 380 30 415 15 432.5L0 450Z" fill="#dbb5b5"></path><path d="M0 711L15 674.3C30 637.7 60 564.3 90 572.3C120 580.3 150 669.7 180 701.7C210 733.7 240 708.3 270 708.3C300 708.3 330 733.7 360 749.7C390 765.7 420 772.3 450 758C480 743.7 510 708.3 525 690.7L540 673L540 604L525 626.3C510 648.7 480 693.3 450 704.5C420 715.7 390 693.3 360 677.3C330 661.3 300 651.7 270 646.8C240 642 210 642 180 611.7C150 581.3 120 520.7 90 525.5C60 530.3 30 600.7 15 635.8L0 671Z" fill="#d5aaaa"></path><path d="M0 865L15 869.8C30 874.7 60 884.3 90 894C120 903.7 150 913.3 180 911.7C210 910 240 897 270 887.3C300 877.7 330 871.3 360 877.8C390 884.3 420 903.7 450 908.5C480 913.3 510 903.7 525 898.8L540 894L540 671L525 688.7C510 706.3 480 741.7 450 756C420 770.3 390 763.7 360 747.7C330 731.7 300 706.3 270 706.3C240 706.3 210 731.7 180 699.7C150 667.7 120 578.3 90 570.3C60 562.3 30 635.7 15 672.3L0 709Z" fill="#c08d8d"></path><path d="M0 961L15 961C30 961 60 961 90 961C120 961 150 961 180 961C210 961 240 961 270 961C300 961 330 961 360 961C390 961 420 961 450 961C480 961 510 961 525 961L540 961L540 892L525 896.8C510 901.7 480 911.3 450 906.5C420 901.7 390 882.3 360 875.8C330 869.3 300 875.7 270 885.3C240 895 210 908 180 909.7C150 911.3 120 901.7 90 892C60 882.3 30 872.7 15 867.8L0 863Z" fill="#966969"></path></svg>