<svg xmlns="http://www.w3.org/2000/svg" version="1.1"
     viewBox="0 0 712 170"  
     style="shape-rendering:geometricPrecision; text-rendering:geometricPrecision; image-rendering:optimizeQuality; fill-rule:evenodd; clip-rule:evenodd"
     xmlns:xlink="http://www.w3.org/1999/xlink">
<g><path style="opacity:1" fill="#444a5d" d="M 77.5,-0.5 C 85.5,-0.5 93.5,-0.5 101.5,-0.5C 100.788,3.99089 98.9543,7.99089 96,11.5C 72.7155,34.5893 49.5488,57.7559 26.5,81C 49.5488,104.244 72.7155,127.411 96,150.5C 98.4953,153.502 100.329,156.835 101.5,160.5C 93.1667,160.5 84.8333,160.5 76.5,160.5C 51.4089,135.848 26.5756,110.848 2,85.5C 1.33333,82.5 1.33333,79.5 2,76.5C 26,51.1667 50.6667,26.5 76,2.5C 76.5133,1.47344 77.0133,0.473444 77.5,-0.5 Z"/></g>
<g><path style="opacity:1" fill="#444a5d" d="M 224.5,14.5 C 228.846,14.3343 233.179,14.501 237.5,15C 243.424,16.6363 244.924,20.1363 242,25.5C 238.686,29.9813 234.852,33.9813 230.5,37.5C 225.019,32.6892 220.686,27.0225 217.5,20.5C 219.266,17.7915 221.599,15.7915 224.5,14.5 Z"/></g>
<g><path style="opacity:1" fill="#444a5d" d="M 411.5,14.5 C 424.439,13.6113 436.439,16.4446 447.5,23C 457.164,30.9915 460.664,41.1582 458,53.5C 454.968,65.5332 447.468,73.3665 435.5,77C 450.238,80.4037 458.738,89.5704 461,104.5C 463.811,136.858 448.977,153.858 416.5,155.5C 405.301,155.916 395.467,152.582 387,145.5C 383.625,139.915 380.125,134.415 376.5,129C 374.899,128.727 373.399,128.227 372,127.5C 369.022,129.311 366.522,131.644 364.5,134.5C 362.453,133.815 360.786,132.649 359.5,131C 364.85,115.325 375.516,109.659 391.5,114C 393.609,115.141 395.442,116.641 397,118.5C 400.713,125.631 404.047,132.964 407,140.5C 412.976,148.143 420.142,149.309 428.5,144C 433.625,138.916 436.458,132.749 437,125.5C 438.716,112.168 436.716,99.5009 431,87.5C 425.972,82.4212 420.139,81.2546 413.5,84C 410.594,86.7349 407.928,89.5683 405.5,92.5C 403.226,92.0298 401.226,91.0298 399.5,89.5C 401.585,84.5813 404.919,80.7479 409.5,78C 404.021,75.9006 401.021,72.234 400.5,67C 402.587,66.2078 404.421,65.0412 406,63.5C 412.991,75.5461 421.324,76.5461 431,66.5C 435.913,54.6809 435.579,43.0142 430,31.5C 423.693,24.3983 415.86,21.8983 406.5,24C 390.386,28.6614 384.719,39.1614 389.5,55.5C 386.167,55.8333 382.833,56.1667 379.5,56.5C 374.824,39.6886 380.158,27.1886 395.5,19C 400.821,16.9414 406.155,15.4414 411.5,14.5 Z"/></g>
<g><path style="opacity:1" fill="#444a5d" d="M 152.5,15.5 C 167.768,13.8463 180.601,18.513 191,29.5C 195.429,37.3373 196.096,45.3373 193,53.5C 189.401,59.0344 186.068,64.7011 183,70.5C 181.534,75.7348 183.034,79.9015 187.5,83C 186.12,84.9252 184.62,86.7585 183,88.5C 174.727,85.2266 168.727,79.56 165,71.5C 164.333,67.1667 164.333,62.8333 165,58.5C 168.2,52.2671 170.7,45.7671 172.5,39C 170.665,25.7472 163.332,21.0805 150.5,25C 144.958,28.4083 141.958,33.4083 141.5,40C 143.126,48.754 146.293,56.9207 151,64.5C 155.557,77.5027 152.724,88.6694 142.5,98C 152.559,100.908 162.559,104.242 172.5,108C 183.284,110.854 191.117,107.354 196,97.5C 197.584,98.8613 199.418,99.528 201.5,99.5C 196.225,121.952 182.225,131.452 159.5,128C 151.271,125.219 143.271,121.885 135.5,118C 126.021,113.126 118.354,114.96 112.5,123.5C 110.587,122.627 108.753,121.627 107,120.5C 111.061,108.464 119.561,101.297 132.5,99C 135.836,94.1399 136.336,88.9733 134,83.5C 131.252,78.3343 128.252,73.3343 125,68.5C 114.659,46.6882 120.159,30.1882 141.5,19C 145.254,17.6912 148.921,16.5246 152.5,15.5 Z"/></g>
<g><path style="opacity:1" fill="#444a5d" d="M 285.5,47.5 C 288.617,47.6423 291.117,48.9756 293,51.5C 295.353,56.0295 297.186,60.6962 298.5,65.5C 308.831,60.0031 318.831,54.0031 328.5,47.5C 334.114,52.4716 340.447,56.1383 347.5,58.5C 347.785,60.288 347.452,61.9547 346.5,63.5C 342.418,64.0816 340.251,66.4149 340,70.5C 339.333,82.1667 339.333,93.8333 340,105.5C 340.41,114.266 344.41,116.599 352,112.5C 353.548,113.914 354.215,115.58 354,117.5C 346.139,121.764 338.139,125.764 330,129.5C 324.921,127.421 321.588,123.754 320,118.5C 319.667,103.167 319.333,87.8333 319,72.5C 317.881,69.7094 315.881,68.0427 313,67.5C 307.756,69.2882 302.756,71.6215 298,74.5C 297.5,91.8301 297.333,109.163 297.5,126.5C 290.5,126.5 283.5,126.5 276.5,126.5C 276.667,107.83 276.5,89.1637 276,70.5C 274.967,67.9673 273.133,66.3006 270.5,65.5C 267.573,66.801 264.573,67.801 261.5,68.5C 260.862,66.54 260.862,64.7067 261.5,63C 270.075,58.5567 278.075,53.3901 285.5,47.5 Z"/></g>
<g><path style="opacity:1" fill="#444a5d" d="M 516.5,47.5 C 523.5,57.1873 530.166,67.1873 536.5,77.5C 525.052,83.3896 513.385,89.0563 501.5,94.5C 501.212,102.377 504.878,107.877 512.5,111C 521.173,112.083 528.673,109.583 535,103.5C 535.833,105.167 536.667,106.833 537.5,108.5C 528.716,114.776 520.049,121.276 511.5,128C 510.271,128.781 508.938,129.281 507.5,129.5C 491.819,126.436 482.652,117.103 480,101.5C 479.333,93.5 479.333,85.5 480,77.5C 481.316,72.0333 483.816,67.1999 487.5,63C 496.942,57.2808 506.609,52.1141 516.5,47.5 Z M 503.5,60.5 C 508.105,66.1922 512.105,72.3589 515.5,79C 510.914,82.7897 505.581,85.2897 499.5,86.5C 499.334,81.4889 499.501,76.4889 500,71.5C 500.114,67.4262 501.28,63.7595 503.5,60.5 Z"/></g>
<g><path style="opacity:1" fill="#444a5d" d="M 587.5,47.5 C 594.5,57.1873 601.166,67.1873 607.5,77.5C 596.052,83.3896 584.385,89.0563 572.5,94.5C 572.212,102.377 575.878,107.877 583.5,111C 592.173,112.083 599.673,109.583 606,103.5C 606.833,105.167 607.667,106.833 608.5,108.5C 599.716,114.776 591.049,121.276 582.5,128C 581.271,128.781 579.938,129.281 578.5,129.5C 562.819,126.436 553.652,117.103 551,101.5C 550.333,93.5 550.333,85.5 551,77.5C 552.316,72.0333 554.816,67.1999 558.5,63C 567.942,57.2808 577.609,52.1141 587.5,47.5 Z M 574.5,60.5 C 579.105,66.1922 583.105,72.3589 586.5,79C 581.914,82.7897 576.581,85.2897 570.5,86.5C 570.334,81.4889 570.501,76.4889 571,71.5C 571.114,67.4262 572.28,63.7595 574.5,60.5 Z"/></g>
<g><path style="opacity:1" fill="#444a5d" d="M 639.5,47.5 C 642.614,48.0913 645.114,49.758 647,52.5C 648.654,56.7843 650.154,61.1176 651.5,65.5C 662.26,60.3753 672.426,54.3753 682,47.5C 687.394,52.4538 693.561,56.2871 700.5,59C 701.38,60.3561 701.714,61.8561 701.5,63.5C 698.346,63.6594 695.846,64.9928 694,67.5C 693.333,81.8333 693.333,96.1667 694,110.5C 694.465,111.931 695.299,113.097 696.5,114C 699.871,114.744 703.037,114.244 706,112.5C 706.813,114.436 707.313,116.436 707.5,118.5C 699.258,121.621 691.258,125.287 683.5,129.5C 677.73,127.559 674.23,123.559 673,117.5C 672.667,102.167 672.333,86.8333 672,71.5C 670.503,69.3234 668.503,67.99 666,67.5C 660.843,69.1618 656.01,71.4951 651.5,74.5C 650.5,91.8205 650.167,109.154 650.5,126.5C 643.833,126.5 637.167,126.5 630.5,126.5C 630.919,107.792 630.419,89.1255 629,70.5C 625.401,64.5209 621.067,64.1876 616,69.5C 615.167,67.8333 614.333,66.1667 613.5,64.5C 622.537,59.3205 631.204,53.6538 639.5,47.5 Z"/></g>
<g><path style="opacity:1" fill="#444a5d" d="M 230.5,48.5 C 236.284,54.1109 242.784,58.7775 250,62.5C 250.798,64.2588 250.631,65.9255 249.5,67.5C 245.386,69.0504 243.22,72.0504 243,76.5C 242.333,86.8333 242.333,97.1667 243,107.5C 245.014,112.947 248.514,113.947 253.5,110.5C 254.974,111.436 255.974,112.77 256.5,114.5C 249.498,119.994 242.331,125.328 235,130.5C 229.247,127.748 225.247,123.415 223,117.5C 222.936,102.113 222.269,86.7796 221,71.5C 218.673,67.095 215.506,66.4283 211.5,69.5C 210.544,68.1349 209.878,66.6349 209.5,65C 216.954,60.0422 223.954,54.5422 230.5,48.5 Z"/></g>
</svg>
