<svg id="visual" viewBox="0 0 540 960" width="540" height="960" xmlns="http://www.w3.org/2000/svg" xmlns:xlink="http://www.w3.org/1999/xlink" version="1.1"><path d="M0 97L7.5 92.2C15 87.3 30 77.7 45 77.7C60 77.7 75 87.3 90 87.3C105 87.3 120 77.7 135 76C150 74.3 165 80.7 180 88.7C195 96.7 210 106.3 225 103.2C240 100 255 84 270 82.5C285 81 300 94 315 94C330 94 345 81 360 74.5C375 68 390 68 405 66.5C420 65 435 62 450 62C465 62 480 65 495 69.7C510 74.3 525 80.7 532.5 83.8L540 87L540 0L532.5 0C525 0 510 0 495 0C480 0 465 0 450 0C435 0 420 0 405 0C390 0 375 0 360 0C345 0 330 0 315 0C300 0 285 0 270 0C255 0 240 0 225 0C210 0 195 0 180 0C165 0 150 0 135 0C120 0 105 0 90 0C75 0 60 0 45 0C30 0 15 0 7.5 0L0 0Z" fill="#fa96bc"></path><path d="M0 318L7.5 314.8C15 311.7 30 305.3 45 302.2C60 299 75 299 90 313.3C105 327.7 120 356.3 135 349.8C150 343.3 165 301.7 180 301.7C195 301.7 210 343.3 225 370.5C240 397.7 255 410.3 270 412C285 413.7 300 404.3 315 374C330 343.7 345 292.3 360 284.3C375 276.3 390 311.7 405 327.7C420 343.7 435 340.3 450 348.3C465 356.3 480 375.7 495 385.3C510 395 525 395 532.5 395L540 395L540 85L532.5 81.8C525 78.7 510 72.3 495 67.7C480 63 465 60 450 60C435 60 420 63 405 64.5C390 66 375 66 360 72.5C345 79 330 92 315 92C300 92 285 79 270 80.5C255 82 240 98 225 101.2C210 104.3 195 94.7 180 86.7C165 78.7 150 72.3 135 74C120 75.7 105 85.3 90 85.3C75 85.3 60 75.7 45 75.7C30 75.7 15 85.3 7.5 90.2L0 95Z" fill="#f882af"></path><path d="M0 462L7.5 460.3C15 458.7 30 455.3 45 448.8C60 442.3 75 432.7 90 443.8C105 455 120 487 135 488.7C150 490.3 165 461.7 180 452.2C195 442.7 210 452.3 225 466.7C240 481 255 500 270 501.5C285 503 300 487 315 471C330 455 345 439 360 437.5C375 436 390 449 405 455.5C420 462 435 462 450 471.5C465 481 480 500 495 511.2C510 522.3 525 525.7 532.5 527.3L540 529L540 393L532.5 393C525 393 510 393 495 383.3C480 373.7 465 354.3 450 346.3C435 338.3 420 341.7 405 325.7C390 309.7 375 274.3 360 282.3C345 290.3 330 341.7 315 372C300 402.3 285 411.7 270 410C255 408.3 240 395.7 225 368.5C210 341.3 195 299.7 180 299.7C165 299.7 150 341.3 135 347.8C120 354.3 105 325.7 90 311.3C75 297 60 297 45 300.2C30 303.3 15 309.7 7.5 312.8L0 316Z" fill="#f56ca1"></path><path d="M0 558L7.5 561.2C15 564.3 30 570.7 45 569C60 567.3 75 557.7 90 578.5C105 599.3 120 650.7 135 660.3C150 670 165 638 180 615.5C195 593 210 580 225 586.3C240 592.7 255 618.3 270 640.8C285 663.3 300 682.7 315 671.5C330 660.3 345 618.7 360 613.8C375 609 390 641 405 655.3C420 669.7 435 666.3 450 669.5C465 672.7 480 682.3 495 688.8C510 695.3 525 698.7 532.5 700.3L540 702L540 527L532.5 525.3C525 523.7 510 520.3 495 509.2C480 498 465 479 450 469.5C435 460 420 460 405 453.5C390 447 375 434 360 435.5C345 437 330 453 315 469C300 485 285 501 270 499.5C255 498 240 479 225 464.7C210 450.3 195 440.7 180 450.2C165 459.7 150 488.3 135 486.7C120 485 105 453 90 441.8C75 430.7 60 440.3 45 446.8C30 453.3 15 456.7 7.5 458.3L0 460Z" fill="#e75a91"></path><path d="M0 836L7.5 847.2C15 858.3 30 880.7 45 880.7C60 880.7 75 858.3 90 848.8C105 839.3 120 842.7 135 850.7C150 858.7 165 871.3 180 877.7C195 884 210 884 225 885.7C240 887.3 255 890.7 270 893.8C285 897 300 900 315 900C330 900 345 897 360 882.7C375 868.3 390 842.7 405 837.8C420 833 435 849 450 858.7C465 868.3 480 871.7 495 865.3C510 859 525 843 532.5 835L540 827L540 700L532.5 698.3C525 696.7 510 693.3 495 686.8C480 680.3 465 670.7 450 667.5C435 664.3 420 667.7 405 653.3C390 639 375 607 360 611.8C345 616.7 330 658.3 315 669.5C300 680.7 285 661.3 270 638.8C255 616.3 240 590.7 225 584.3C210 578 195 591 180 613.5C165 636 150 668 135 658.3C120 648.7 105 597.3 90 576.5C75 555.7 60 565.3 45 567C30 568.7 15 562.3 7.5 559.2L0 556Z" fill="#d04d7f"></path><path d="M0 961L7.5 961C15 961 30 961 45 961C60 961 75 961 90 961C105 961 120 961 135 961C150 961 165 961 180 961C195 961 210 961 225 961C240 961 255 961 270 961C285 961 300 961 315 961C330 961 345 961 360 961C375 961 390 961 405 961C420 961 435 961 450 961C465 961 480 961 495 961C510 961 525 961 532.5 961L540 961L540 825L532.5 833C525 841 510 857 495 863.3C480 869.7 465 866.3 450 856.7C435 847 420 831 405 835.8C390 840.7 375 866.3 360 880.7C345 895 330 898 315 898C300 898 285 895 270 891.8C255 888.7 240 885.3 225 883.7C210 882 195 882 180 875.7C165 869.3 150 856.7 135 848.7C120 840.7 105 837.3 90 846.8C75 856.3 60 878.7 45 878.7C30 878.7 15 856.3 7.5 845.2L0 834Z" fill="#b9416e"></path></svg>