<svg xmlns="http://www.w3.org/2000/svg" x="0px" y="0px" width="100" height="100" viewBox="0,0,256,256">
<defs><linearGradient x1="25.776" y1="42.294" x2="16.884" y2="14.173" gradientUnits="userSpaceOnUse" id="color-1_GPw1qokXpOJP_gr1"><stop offset="0" stop-color="#c846a7"></stop><stop offset="0.689" stop-color="#f27bb3"></stop><stop offset="1" stop-color="#e77cbf"></stop></linearGradient><linearGradient x1="36.768" y1="43.07" x2="14.275" y2="16.06" gradientUnits="userSpaceOnUse" id="color-2_GPw1qokXpOJP_gr2"><stop offset="0" stop-color="#d672d1" stop-opacity="0.4"></stop><stop offset="1" stop-color="#ffaee5" stop-opacity="0.2"></stop></linearGradient><linearGradient x1="17.767" y1="24.12" x2="46.142" y2="44.336" gradientUnits="userSpaceOnUse" id="color-3_GPw1qokXpOJP_gr3"><stop offset="0" stop-color="#fff0fe" stop-opacity="0.2"></stop><stop offset="1" stop-color="#d672d1" stop-opacity="0.4"></stop></linearGradient></defs><g fill="none" fill-rule="nonzero" stroke="none" stroke-width="1" stroke-linecap="butt" stroke-linejoin="miter" stroke-miterlimit="10" stroke-dasharray="" stroke-dashoffset="0" font-family="none" font-weight="none" font-size="none" text-anchor="none" style="mix-blend-mode: normal"><g transform="scale(5.33333,5.33333)"><path d="M35,18v23h5c0,-1 0,-1.748 0,-2.511v-20.489z" fill="#e948c0" opacity="0.1"></path><path d="M34.25,18v23h5.563c-0.452,-0.799 -0.563,-1.748 -0.563,-2.511v-20.489z" fill="#e948c0" opacity="0.2"></path><path d="M33.5,18v23h6.126c-0.905,-0.598 -1.126,-1.748 -1.126,-2.511v-20.489z" fill="#e948c0" opacity="0.3"></path><path d="M32.75,18v23h6.69c-1.357,-0.397 -1.69,-1.748 -1.69,-2.511v-20.489z" fill="#e948c0" opacity="0.4"></path><path d="M32,18v23h7.253c-1.81,-0.196 -2.253,-1.748 -2.253,-2.511v-20.489z" fill="#e948c0" opacity="0.5"></path><path d="M35,11h-14l-4,-4h-11c-1.1,0 -2,0.9 -2,2v29.068c0,1.619 1.313,2.932 2.932,2.932h32.524c-1.336,0.016 -2.456,-1.125 -2.456,-2.511v-25.489c0,-1.1 -0.9,-2 -2,-2z" fill="url(#color-1_GPw1qokXpOJP_gr1)"></path><path d="M39.198,41c-1.21,-0.183 -2.198,-1.125 -2.198,-2.519v-20.481v-2h-25c-2.206,0 -4,1.794 -4,4v18c0,1 -0.626,3 -1,3h30z" fill="#e268cb" opacity="0.1"></path><path d="M37,41h2.198c-1.21,-0.183 -2.198,-1.125 -2.198,-2.519v-20.481v-1.667h-24.631c-0.76,0 -1.831,0.256 -2.393,0.686c-0.979,0.61 -1.643,1.72 -1.643,2.981v17.941c0,0.093 -0.007,0.256 -0.019,0.367c-0.096,1.06 -0.617,2.516 -1.014,2.601c-0.01,0.007 -0.02,0.04 -0.031,0.091z" fill="#e268cb" opacity="0.2"></path><path d="M37,41h2.198c-1.21,-0.183 -2.198,-1.125 -2.198,-2.519v-20.481v-1.333h-24.262c-0.608,0 -1.908,0.205 -2.357,0.549c-1.003,0.487 -1.714,1.555 -1.714,2.784v17.882c0,0.075 -0.005,0.276 -0.015,0.364c-0.077,1.066 -0.588,2.4 -1.05,2.571c-0.031,0.022 -0.063,0.094 -0.096,0.183z" fill="#e268cb" opacity="0.3"></path><path d="M37,41h2.198c-1.21,-0.183 -2.198,-1.125 -2.198,-2.519v-20.481v-1h-23.892c-0.456,0 -1.985,0.154 -2.322,0.412c-1.028,0.365 -1.786,1.391 -1.786,2.588v17.823c0,0.056 -0.004,0.295 -0.011,0.362c-0.057,1.073 -0.559,2.285 -1.087,2.541c-0.063,0.044 -0.13,0.146 -0.2,0.274z" fill="#e268cb" opacity="0.4"></path><path d="M37,41h2.198c-1.21,-0.183 -2.198,-1.125 -2.198,-2.519v-20.481v-0.667h-23.523c-0.304,0 -2.062,0.102 -2.286,0.274c-1.052,0.245 -1.858,1.228 -1.858,2.393v17.764c0,0.037 -0.003,0.315 -0.007,0.359c-0.038,1.079 -0.529,2.17 -1.123,2.511c-0.11,0.078 -0.229,0.216 -0.355,0.366z" fill="#e268cb" opacity="0.5"></path><path d="M37,41h2.198c-1.21,-0.183 -2.198,-1.125 -2.198,-2.519v-20.481v-0.333h-23.154c-0.152,0 -2.139,0.051 -2.251,0.137c-1.075,0.122 -1.928,1.064 -1.928,2.196v17.705c0,0.019 -0.001,0.335 -0.004,0.357c-0.019,1.086 -0.5,2.055 -1.16,2.481c-0.189,0.134 -0.402,0.306 -0.628,0.457z" fill="#e268cb" opacity="0.6"></path><path d="M13,18h29c1.1,0 2,0.9 2,2v18.583c0,1.335 -1.082,2.417 -2.417,2.417h-33.583c1.617,0 3,-1.149 3,-3v-18c0,-1.1 0.9,-2 2,-2z" fill="url(#color-2_GPw1qokXpOJP_gr2)"></path><path d="M42,18.5c0.827,0 1.5,0.673 1.5,1.5v18.583c0,1.057 -0.86,1.917 -1.917,1.917h-31.062c0.615,-0.621 0.979,-1.492 0.979,-2.5v-18c0,-0.827 0.673,-1.5 1.5,-1.5h29M42,18h-29c-1.1,0 -2,0.9 -2,2v18c0,1.851 -1.383,3 -3,3h33.583c1.335,0 2.417,-1.082 2.417,-2.417v-18.583c0,-1.1 -0.9,-2 -2,-2z" fill="url(#color-3_GPw1qokXpOJP_gr3)"></path></g></g>
</svg>
