<svg id="visual" viewBox="0 0 540 960" width="540" height="960" xmlns="http://www.w3.org/2000/svg" xmlns:xlink="http://www.w3.org/1999/xlink" version="1.1"><path d="M0 97L9 100.2C18 103.3 36 109.7 54 108C72 106.3 90 96.7 108 82.3C126 68 144 49 162 41C180 33 198 36 216 40.8C234 45.7 252 52.3 270 62C288 71.7 306 84.3 324 90.7C342 97 360 97 378 85.8C396 74.7 414 52.3 432 55.5C450 58.7 468 87.3 486 96.8C504 106.3 522 96.7 531 91.8L540 87L540 0L531 0C522 0 504 0 486 0C468 0 450 0 432 0C414 0 396 0 378 0C360 0 342 0 324 0C306 0 288 0 270 0C252 0 234 0 216 0C198 0 180 0 162 0C144 0 126 0 108 0C90 0 72 0 54 0C36 0 18 0 9 0L0 0Z" fill="#282a2b"></path><path d="M0 135L9 141.5C18 148 36 161 54 170.7C72 180.3 90 186.7 108 172.2C126 157.7 144 122.3 162 122.3C180 122.3 198 157.7 216 164.2C234 170.7 252 148.3 270 142C288 135.7 306 145.3 324 156.5C342 167.7 360 180.3 378 170.7C396 161 414 129 432 137C450 145 468 193 486 207.3C504 221.7 522 202.3 531 192.7L540 183L540 85L531 89.8C522 94.7 504 104.3 486 94.8C468 85.3 450 56.7 432 53.5C414 50.3 396 72.7 378 83.8C360 95 342 95 324 88.7C306 82.3 288 69.7 270 60C252 50.3 234 43.7 216 38.8C198 34 180 31 162 39C144 47 126 66 108 80.3C90 94.7 72 104.3 54 106C36 107.7 18 101.3 9 98.2L0 95Z" fill="#313436"></path><path d="M0 299L9 313.3C18 327.7 36 356.3 54 397.8C72 439.3 90 493.7 108 492C126 490.3 144 432.7 162 405.5C180 378.3 198 381.7 216 370.5C234 359.3 252 333.7 270 312.8C288 292 306 276 324 272.8C342 269.7 360 279.3 378 281C396 282.7 414 276.3 432 286C450 295.7 468 321.3 486 340.5C504 359.7 522 372.3 531 378.7L540 385L540 181L531 190.7C522 200.3 504 219.7 486 205.3C468 191 450 143 432 135C414 127 396 159 378 168.7C360 178.3 342 165.7 324 154.5C306 143.3 288 133.7 270 140C252 146.3 234 168.7 216 162.2C198 155.7 180 120.3 162 120.3C144 120.3 126 155.7 108 170.2C90 184.7 72 178.3 54 168.7C36 159 18 146 9 139.5L0 133Z" fill="#444749"></path><path d="M0 548L9 549.7C18 551.3 36 554.7 54 575.5C72 596.3 90 634.7 108 633C126 631.3 144 589.7 162 560.8C180 532 198 516 216 493.7C234 471.3 252 442.7 270 412.3C288 382 306 350 324 343.5C342 337 360 356 378 362.3C396 368.7 414 362.3 432 383.2C450 404 468 452 486 480.8C504 509.7 522 519.3 531 524.2L540 529L540 383L531 376.7C522 370.3 504 357.7 486 338.5C468 319.3 450 293.7 432 284C414 274.3 396 280.7 378 279C360 277.3 342 267.7 324 270.8C306 274 288 290 270 310.8C252 331.7 234 357.3 216 368.5C198 379.7 180 376.3 162 403.5C144 430.7 126 488.3 108 490C90 491.7 72 437.3 54 395.8C36 354.3 18 325.7 9 311.3L0 297Z" fill="#585c5e"></path><path d="M0 606L9 607.5C18 609 36 612 54 637.5C72 663 90 711 108 714.3C126 717.7 144 676.3 162 639.7C180 603 198 571 216 545.3C234 519.7 252 500.3 270 479.5C288 458.7 306 436.3 324 436.3C342 436.3 360 458.7 378 461.8C396 465 414 449 432 460.2C450 471.3 468 509.7 486 530.5C504 551.3 522 554.7 531 556.3L540 558L540 527L531 522.2C522 517.3 504 507.7 486 478.8C468 450 450 402 432 381.2C414 360.3 396 366.7 378 360.3C360 354 342 335 324 341.5C306 348 288 380 270 410.3C252 440.7 234 469.3 216 491.7C198 514 180 530 162 558.8C144 587.7 126 629.3 108 631C90 632.7 72 594.3 54 573.5C36 552.7 18 549.3 9 547.7L0 546Z" fill="#585c5e"></path><path d="M0 654L9 670C18 686 36 718 54 748.3C72 778.7 90 807.3 108 816.8C126 826.3 144 816.7 162 794.3C180 772 198 737 216 703.5C234 670 252 638 270 612.3C288 586.7 306 567.3 324 564.2C342 561 360 574 378 575.7C396 577.3 414 567.7 432 580.3C450 593 468 628 486 639.2C504 650.3 522 637.7 531 631.3L540 625L540 556L531 554.3C522 552.7 504 549.3 486 528.5C468 507.7 450 469.3 432 458.2C414 447 396 463 378 459.8C360 456.7 342 434.3 324 434.3C306 434.3 288 456.7 270 477.5C252 498.3 234 517.7 216 543.3C198 569 180 601 162 637.7C144 674.3 126 715.7 108 712.3C90 709 72 661 54 635.5C36 610 18 607 9 605.5L0 604Z" fill="#444749"></path><path d="M0 702L9 724.3C18 746.7 36 791.3 54 816.8C72 842.3 90 848.7 108 855.2C126 861.7 144 868.3 162 847.7C180 827 198 779 216 737.3C234 695.7 252 660.3 270 642.7C288 625 306 625 324 634.7C342 644.3 360 663.7 378 657.3C396 651 414 619 432 631.7C450 644.3 468 701.7 486 720.8C504 740 522 721 531 711.5L540 702L540 623L531 629.3C522 635.7 504 648.3 486 637.2C468 626 450 591 432 578.3C414 565.7 396 575.3 378 573.7C360 572 342 559 324 562.2C306 565.3 288 584.7 270 610.3C252 636 234 668 216 701.5C198 735 180 770 162 792.3C144 814.7 126 824.3 108 814.8C90 805.3 72 776.7 54 746.3C36 716 18 684 9 668L0 652Z" fill="#313436"></path><path d="M0 961L9 961C18 961 36 961 54 961C72 961 90 961 108 961C126 961 144 961 162 961C180 961 198 961 216 961C234 961 252 961 270 961C288 961 306 961 324 961C342 961 360 961 378 961C396 961 414 961 432 961C450 961 468 961 486 961C504 961 522 961 531 961L540 961L540 700L531 709.5C522 719 504 738 486 718.8C468 699.7 450 642.3 432 629.7C414 617 396 649 378 655.3C360 661.7 342 642.3 324 632.7C306 623 288 623 270 640.7C252 658.3 234 693.7 216 735.3C198 777 180 825 162 845.7C144 866.3 126 859.7 108 853.2C90 846.7 72 840.3 54 814.8C36 789.3 18 744.7 9 722.3L0 700Z" fill="#282a2b"></path></svg>