<?xml version="1.0" encoding="UTF-8"?>
<!DOCTYPE svg PUBLIC "-//W3C//DTD SVG 1.1//EN" "http://www.w3.org/Graphics/SVG/1.1/DTD/svg11.dtd">
<svg xmlns="http://www.w3.org/2000/svg" version="1.1" width="742px" height="754px" style="shape-rendering:geometricPrecision; text-rendering:geometricPrecision; image-rendering:optimizeQuality; fill-rule:evenodd; clip-rule:evenodd" xmlns:xlink="http://www.w3.org/1999/xlink">
<g><path style="opacity:1" fill="#2a2a2a" d="M -0.5,-0.5 C 33.1667,-0.5 66.8333,-0.5 100.5,-0.5C 80.3039,35.1962 52.3039,63.0295 16.5,83C 11.0245,85.3249 5.35781,87.1582 -0.5,88.5C -0.5,58.8333 -0.5,29.1667 -0.5,-0.5 Z"/></g>
<g><path style="opacity:1" fill="#141414" d="M 100.5,-0.5 C 107.167,-0.5 113.833,-0.5 120.5,-0.5C 120.334,3.51383 120.501,7.51383 121,11.5C 121.333,8.5 121.667,5.5 122,2.5C 122.333,2.16667 122.667,1.83333 123,1.5C 123.938,6.5267 123.438,11.36 121.5,16C 122.151,33.451 122.984,50.951 124,68.5C 128.771,96.2912 133.271,124.125 137.5,152C 137.179,156.272 136.346,160.438 135,164.5C 126.971,179.91 119.137,194.91 111.5,209.5C 99.4697,227.033 84.8031,242.2 67.5,255C 81.4425,250.459 95.2759,245.293 109,239.5C 109.5,239.667 110,239.833 110.5,240C 109.026,241.316 107.359,242.316 105.5,243C 118.638,241.078 131.305,242.744 143.5,248C 149.822,250.826 155.822,254.159 161.5,258C 177.908,269.738 193.742,282.238 209,295.5C 209.483,296.448 209.649,297.448 209.5,298.5C 207.666,315.503 212.666,330.003 224.5,342C 230.149,346.839 236.149,351.006 242.5,354.5C 242.884,372.369 246.884,389.369 254.5,405.5C 245.009,406.167 235.675,406.833 226.5,407.5C 215.106,407.687 205.606,412.02 198,420.5C 196.906,422.078 196.072,423.745 195.5,425.5C 194.5,425.5 193.5,425.5 192.5,425.5C 191.537,421.204 191.371,416.871 192,412.5C 197.532,405.767 201.199,398.101 203,389.5C 204.934,377.897 205.601,366.23 205,354.5C 191.213,307.044 160.046,278.877 111.5,270C 96.1418,266.806 80.6418,264.639 65,263.5C 62.3897,263.533 60.223,264.2 58.5,265.5C 56.6481,264.911 54.8148,264.244 53,263.5C 50.1196,265.286 47.2862,265.453 44.5,264C 46.5951,263.444 46.7618,262.944 45,262.5C 42.7944,263.583 40.9611,264.916 39.5,266.5C 35.6475,265.496 35.6475,264.662 39.5,264C 37.3646,263.365 35.3646,263.699 33.5,265C 34.8333,265.667 34.8333,266.333 33.5,267C 31.3646,267.635 29.3646,267.301 27.5,266C 28.938,265.781 30.2713,265.281 31.5,264.5C 31.2907,263.914 30.9574,263.414 30.5,263C 34.1112,261.22 37.7779,260.553 41.5,261C 40.8333,260.667 40.1667,260.333 39.5,260C 43.3445,258.768 46.3445,256.602 48.5,253.5C 63.3247,234.53 78.158,215.53 93,196.5C 97.4186,189.328 102.085,182.328 107,175.5C 111.81,168.404 114.644,160.571 115.5,152C 112.045,128.439 108.212,104.939 104,81.5C 103.672,76.4754 103.672,71.4754 104,66.5C 103.626,67.4162 103.126,68.2496 102.5,69C 100.616,69.2163 98.9494,69.883 97.5,71C 98.8333,71 100.167,71 101.5,71C 99.5,72 97.5,73 95.5,74C 96.8333,74 98.1667,74 99.5,74C 97.5,75 95.5,76 93.5,77C 94.8333,77 96.1667,77 97.5,77C 94.3007,80.5662 91.4674,84.3996 89,88.5C 87.3626,90.8102 85.196,92.3102 82.5,93C 83.1667,93.3333 83.8333,93.6667 84.5,94C 81.7436,97.4267 78.4103,100.093 74.5,102C 71.3333,105.167 68.1667,108.333 65,111.5C 64.3828,112.449 64.5494,113.282 65.5,114C 62.3699,116.128 59.5366,118.628 57,121.5C 56.6667,120.833 56.3333,120.167 56,119.5C 55.4818,122.023 54.1485,124.023 52,125.5C 52.3333,123.833 52.6667,122.167 53,120.5C 50.8161,123.402 48.8161,126.402 47,129.5C 47.3333,127.833 47.6667,126.167 48,124.5C 46.3333,127.167 44.6667,129.833 43,132.5C 43.3333,130.833 43.6667,129.167 44,127.5C 42.2826,129.873 40.7826,132.373 39.5,135C 35.6667,137.5 31.8333,140 28,142.5C 28,141.167 28,139.833 28,138.5C 26.883,139.949 26.2163,141.616 26,143.5C 25.0855,139.815 24.4189,140.148 24,144.5C 23.4325,141.2 21.9325,141.034 19.5,144C 20.4491,144.617 21.2825,144.451 22,143.5C 22.5908,144.483 22.2575,145.15 21,145.5C 19.1284,146.068 17.2951,146.735 15.5,147.5C 15.3309,146.603 14.9976,145.603 14.5,144.5C 12.7241,145.315 12.0574,146.482 12.5,148C 10.8988,148.273 9.39881,148.773 8,149.5C 7.75083,148.376 7.25083,147.376 6.5,146.5C 5.5,147.833 4.5,149.167 3.5,150.5C 2.49367,150.062 2.49367,149.396 3.5,148.5C 2.31116,147.571 0.977822,147.238 -0.5,147.5C -0.5,127.833 -0.5,108.167 -0.5,88.5C 5.35781,87.1582 11.0245,85.3249 16.5,83C 52.3039,63.0295 80.3039,35.1962 100.5,-0.5 Z"/></g>
<g><path style="opacity:1" fill="#1c1c1c" d="M 120.5,-0.5 C 170.5,-0.5 220.5,-0.5 270.5,-0.5C 269.814,3.52935 267.647,6.52935 264,8.5C 263.667,9.83333 263.333,11.1667 263,12.5C 249.951,26.2933 238.618,41.2933 229,57.5C 226.071,70.7913 228.404,83.1246 236,94.5C 243.773,108.614 254.107,120.614 267,130.5C 267.494,132.134 267.66,133.801 267.5,135.5C 266.652,139.868 265.319,144.202 263.5,148.5C 263.167,148.167 262.833,147.833 262.5,147.5C 264.528,142.334 265.361,137 265,131.5C 247.701,117.537 235.034,100.203 227,79.5C 224.237,69.4595 225.404,59.9595 230.5,51C 227.907,51.5465 225.74,53.0465 224,55.5C 221.033,60.8133 218.033,66.1467 215,71.5C 208.576,92.1426 200.243,111.809 190,130.5C 175.171,147.842 159.671,164.842 143.5,181.5C 131.913,189.752 121.246,199.085 111.5,209.5C 119.137,194.91 126.971,179.91 135,164.5C 136.346,160.438 137.179,156.272 137.5,152C 133.271,124.125 128.771,96.2912 124,68.5C 122.984,50.951 122.151,33.451 121.5,16C 123.438,11.36 123.938,6.5267 123,1.5C 122.667,1.83333 122.333,2.16667 122,2.5C 121.667,5.5 121.333,8.5 121,11.5C 120.501,7.51383 120.334,3.51383 120.5,-0.5 Z"/></g>
<g><path style="opacity:1" fill="#2d2d2d" d="M 270.5,-0.5 C 304.5,-0.5 338.5,-0.5 372.5,-0.5C 386.703,33.2053 409.369,59.7053 440.5,79C 442.311,80.0407 442.645,81.2073 441.5,82.5C 429.961,83.4689 418.961,86.1356 408.5,90.5C 393.179,93.8305 380.012,102.164 369,115.5C 360.549,129.684 356.049,145.017 355.5,161.5C 354.677,164.977 354.177,168.644 354,172.5C 350.032,179.397 347.032,186.73 345,194.5C 339.405,214.62 333.405,234.62 327,254.5C 326.833,257.167 326.667,259.833 326.5,262.5C 326.522,265.59 327.188,268.257 328.5,270.5C 327.607,273.814 326.274,276.814 324.5,279.5C 324.98,270.837 325.48,262.17 326,253.5C 334.361,226.05 343.028,198.716 352,171.5C 353.749,161.176 355.082,150.843 356,140.5C 344.723,165.772 328.223,186.939 306.5,204C 300.325,207.588 293.991,210.922 287.5,214C 283.056,214.968 278.556,215.468 274,215.5C 242.651,210.669 211.485,211.503 180.5,218C 165.746,222.034 151.08,226.034 136.5,230C 152.17,222.328 166.17,212.328 178.5,200C 187.993,193.087 197.659,186.42 207.5,180C 224.201,172.98 240.868,165.98 257.5,159C 264.994,153.039 268.328,145.205 267.5,135.5C 267.66,133.801 267.494,132.134 267,130.5C 254.107,120.614 243.773,108.614 236,94.5C 228.404,83.1246 226.071,70.7913 229,57.5C 238.618,41.2933 249.951,26.2933 263,12.5C 263.333,11.1667 263.667,9.83333 264,8.5C 267.647,6.52935 269.814,3.52935 270.5,-0.5 Z"/></g>
<g><path style="opacity:1" fill="#1b1b1b" d="M 372.5,-0.5 C 397.833,-0.5 423.167,-0.5 448.5,-0.5C 451.663,5.15209 455.33,10.4854 459.5,15.5C 459.333,15.8333 459.167,16.1667 459,16.5C 456.824,14.1251 454.657,11.7918 452.5,9.5C 452.167,9.66667 451.833,9.83333 451.5,10C 458.622,19.4572 466.122,28.6239 474,37.5C 474.5,37 475,36.5 475.5,36C 470.525,31.7825 466.692,26.9491 464,21.5C 477.536,38.0366 492.703,52.8699 509.5,66C 554.171,91.1747 584.837,128.008 601.5,176.5C 599.442,174.073 597.609,171.407 596,168.5C 596.543,171.612 597.71,174.612 599.5,177.5C 597.868,177.238 596.701,178.238 596,180.5C 594.954,178.91 593.787,177.41 592.5,176C 593.549,175.508 594.549,175.674 595.5,176.5C 596.521,175.998 596.688,175.332 596,174.5C 593.36,173.953 591.026,172.287 589,169.5C 588.195,171.901 587.362,171.734 586.5,169C 587.624,168.751 588.624,168.251 589.5,167.5C 589.333,167.167 589.167,166.833 589,166.5C 588,166.167 587,165.833 586,165.5C 585.195,167.901 584.362,167.734 583.5,165C 584.624,164.751 585.624,164.251 586.5,163.5C 586.154,162.304 585.654,162.304 585,163.5C 583.691,161.109 582.691,161.109 582,163.5C 579.724,161.693 579.557,160.193 581.5,159C 580.333,157.833 579.167,156.667 578,155.5C 577.667,156.167 577.333,156.833 577,157.5C 573.833,153 570,149.167 565.5,146C 566.996,145.493 568.163,145.993 569,147.5C 569.5,147 570,146.5 570.5,146C 568.317,143.65 565.984,141.483 563.5,139.5C 562.749,140.376 562.249,141.376 562,142.5C 561.25,141.874 560.416,141.374 559.5,141C 560.557,139.545 560.557,137.878 559.5,136C 559.167,135.833 558.833,135.667 558.5,135.5C 557.749,136.376 557.249,137.376 557,138.5C 554.5,136.667 552,134.833 549.5,133C 550.672,132.581 551.672,131.915 552.5,131C 548.521,127.344 544.188,124.178 539.5,121.5C 538.749,122.376 538.249,123.376 538,124.5C 533.99,122.518 530.657,119.852 528,116.5C 527.667,117.167 527.333,117.833 527,118.5C 526.667,117.167 526.333,115.833 526,114.5C 525.507,117.985 524.007,118.485 521.5,116C 523.701,115.223 523.701,114.056 521.5,112.5C 520.479,116.152 518.812,116.486 516.5,113.5C 515.897,112.365 515.564,111.365 515.5,110.5C 514.197,111.718 513.197,111.385 512.5,109.5C 510.65,110.242 509.984,111.242 510.5,112.5C 509.803,110.615 508.803,110.282 507.5,111.5C 506.808,110.975 506.308,110.308 506,109.5C 504.403,109.64 502.903,109.64 501.5,109.5C 500.167,107.833 498.833,106.167 497.5,104.5C 495.956,104.256 494.123,104.256 492,104.5C 490.303,100.917 488.137,100.584 485.5,103.5C 482.352,102.86 482.019,101.86 484.5,100.5C 484.167,99.5 483.5,98.8333 482.5,98.5C 481.167,99.1667 479.833,99.8333 478.5,100.5C 476.356,98.8669 474.689,96.8669 473.5,94.5C 472.749,95.376 472.249,96.376 472,97.5C 469.642,94.4888 466.142,92.1555 461.5,90.5C 459.012,91.6009 457.012,90.9343 455.5,88.5C 458.167,87.5 458.167,86.5 455.5,85.5C 454.402,89.3605 453.569,89.3605 453,85.5C 452.549,87.9288 451.715,88.0955 450.5,86C 452.905,83.9676 452.405,82.4676 449,81.5C 448.5,82 448,82.5 447.5,83C 448.956,83.4226 449.456,84.2559 449,85.5C 446.52,84.1885 444.02,83.1885 441.5,82.5C 442.645,81.2073 442.311,80.0407 440.5,79C 409.369,59.7053 386.703,33.2053 372.5,-0.5 Z"/></g>
<g><path style="opacity:1" fill="#111111" d="M 448.5,-0.5 C 451.833,-0.5 455.167,-0.5 458.5,-0.5C 460.316,1.13658 462.316,2.63658 464.5,4C 463.833,4.33333 463.167,4.66667 462.5,5C 465.376,4.74325 468.043,5.74325 470.5,8C 468.099,8.805 468.266,9.63834 471,10.5C 471.414,10.0426 471.914,9.70931 472.5,9.5C 484.788,10.314 497.121,10.814 509.5,11C 504.177,11.4994 498.844,11.666 493.5,11.5C 487.158,11.3338 480.825,11.5005 474.5,12C 479.833,12.3333 485.167,12.6667 490.5,13C 496.5,16.3333 502.5,19.6667 508.5,23C 555.521,34.0293 592.021,59.8626 618,100.5C 629.766,121.749 633.266,144.082 628.5,167.5C 629.684,173.468 629.684,179.468 628.5,185.5C 628.687,190.774 629.187,190.774 630,185.5C 630.86,198.243 630.36,210.91 628.5,223.5C 626.69,224.955 625.023,224.788 623.5,223C 624.738,223.077 625.738,222.911 626.5,222.5C 625.423,220.271 624.756,217.937 624.5,215.5C 621.402,215.587 621.068,215.087 623.5,214C 617.895,201.406 610.562,188.906 601.5,176.5C 584.837,128.008 554.171,91.1747 509.5,66C 492.703,52.8699 477.536,38.0366 464,21.5C 466.692,26.9491 470.525,31.7825 475.5,36C 475,36.5 474.5,37 474,37.5C 466.122,28.6239 458.622,19.4572 451.5,10C 451.833,9.83333 452.167,9.66667 452.5,9.5C 454.657,11.7918 456.824,14.1251 459,16.5C 459.167,16.1667 459.333,15.8333 459.5,15.5C 455.33,10.4854 451.663,5.15209 448.5,-0.5 Z"/></g>
<g><path style="opacity:1" fill="#222222" d="M 458.5,-0.5 C 518.833,-0.5 579.167,-0.5 639.5,-0.5C 632.514,14.2833 624.681,28.6166 616,42.5C 610.582,50.0969 603.415,55.0969 594.5,57.5C 591.465,56.9392 588.465,56.2725 585.5,55.5C 584.914,55.7093 584.414,56.0426 584,56.5C 575.239,51.2489 566.072,45.0823 556.5,38C 545.973,32.823 535.139,28.323 524,24.5C 523.667,24.8333 523.333,25.1667 523,25.5C 519.333,24.1667 515.667,22.8333 512,21.5C 511.586,21.9574 511.086,22.2907 510.5,22.5C 505.389,18.7271 499.722,15.0604 493.5,11.5C 498.844,11.666 504.177,11.4994 509.5,11C 497.121,10.814 484.788,10.314 472.5,9.5C 471.914,9.70931 471.414,10.0426 471,10.5C 468.266,9.63834 468.099,8.805 470.5,8C 468.043,5.74325 465.376,4.74325 462.5,5C 463.167,4.66667 463.833,4.33333 464.5,4C 462.316,2.63658 460.316,1.13658 458.5,-0.5 Z"/></g>
<g><path style="opacity:1" fill="#292929" d="M 639.5,-0.5 C 673.5,-0.5 707.5,-0.5 741.5,-0.5C 741.5,29.8333 741.5,60.1667 741.5,90.5C 724.773,84.5628 708.773,86.0628 693.5,95C 671.046,117.075 652.88,142.241 639,170.5C 635.412,185.212 633.912,200.045 634.5,215C 635.568,217.651 636.901,220.484 638.5,223.5C 645.061,239.555 653.894,254.222 665,267.5C 672.761,277.351 680.761,287.018 689,296.5C 692.37,306.066 697.87,314.233 705.5,321C 719.189,328.69 731.189,338.524 741.5,350.5C 741.5,375.833 741.5,401.167 741.5,426.5C 722.212,438.958 707.712,455.625 698,476.5C 696.356,481.077 695.022,485.744 694,490.5C 696.389,518.335 688.222,542.501 669.5,563C 659.5,570 649.5,577 639.5,584C 627.242,597.587 615.742,611.754 605,626.5C 602.167,629.333 599.333,632.167 596.5,635C 580.292,643.604 563.958,651.937 547.5,660C 534.306,667.861 523.806,678.361 516,691.5C 509.067,712.131 502.234,732.798 495.5,753.5C 369.167,753.5 242.833,753.5 116.5,753.5C 130.338,728.162 150.005,708.662 175.5,695C 178.732,693.551 182.065,692.384 185.5,691.5C 198.977,694.605 211.977,698.772 224.5,704C 214.617,696.488 204.951,689.654 195.5,683.5C 220.586,690.285 245.92,696.118 271.5,701C 290.467,705.241 309.133,710.407 327.5,716.5C 328.239,716.631 328.906,716.464 329.5,716C 328.304,715.346 328.304,714.846 329.5,714.5C 330.386,715.325 330.719,716.325 330.5,717.5C 347.376,721.514 363.709,727.014 379.5,734C 400.721,735.568 421.387,732.902 441.5,726C 465.192,713.656 486.025,697.49 504,677.5C 511.833,669 519.667,660.5 527.5,652C 526.549,651.282 526.383,650.449 527,649.5C 528.982,648.906 530.816,647.74 532.5,646C 531.167,644.16 531.334,643.66 533,644.5C 536.057,642.393 537.39,639.726 537,636.5C 537.914,637.654 538.747,637.487 539.5,636C 543.346,629.262 547.68,621.762 552.5,613.5C 561.47,602.353 570.303,591.019 579,579.5C 602.374,553.128 625.374,526.462 648,499.5C 662.573,477.126 673.073,454.792 679.5,432.5C 678.36,430.922 677.86,429.256 678,427.5C 678.915,428.328 679.581,429.328 680,430.5C 680.429,428.331 679.929,426.331 678.5,424.5C 678.667,424.167 678.833,423.833 679,423.5C 679.915,424.328 680.581,425.328 681,426.5C 683.183,421.005 683.849,415.339 683,409.5C 682.667,410.5 682.333,411.5 682,412.5C 681.581,410.32 681.748,408.154 682.5,406C 682.406,403.046 681.906,402.879 681,405.5C 680.605,403.821 680.772,402.155 681.5,400.5C 681.333,399.833 681.167,399.167 681,398.5C 680.581,399.672 679.915,400.672 679,401.5C 679.138,399.51 679.638,397.51 680.5,395.5C 678.843,387.362 676.676,379.362 674,371.5C 663.096,349.614 651.429,328.947 639,309.5C 638.502,307.473 638.669,305.473 639.5,303.5C 632.867,277.092 629.201,250.425 628.5,223.5C 630.36,210.91 630.86,198.243 630,185.5C 629.187,190.774 628.687,190.774 628.5,185.5C 629.684,179.468 629.684,173.468 628.5,167.5C 633.266,144.082 629.766,121.749 618,100.5C 592.021,59.8626 555.521,34.0293 508.5,23C 502.5,19.6667 496.5,16.3333 490.5,13C 485.167,12.6667 479.833,12.3333 474.5,12C 480.825,11.5005 487.158,11.3338 493.5,11.5C 499.722,15.0604 505.389,18.7271 510.5,22.5C 511.086,22.2907 511.586,21.9574 512,21.5C 515.667,22.8333 519.333,24.1667 523,25.5C 523.333,25.1667 523.667,24.8333 524,24.5C 535.139,28.323 545.973,32.823 556.5,38C 566.072,45.0823 575.239,51.2489 584,56.5C 584.414,56.0426 584.914,55.7093 585.5,55.5C 588.465,56.2725 591.465,56.9392 594.5,57.5C 603.415,55.0969 610.582,50.0969 616,42.5C 624.681,28.6166 632.514,14.2833 639.5,-0.5 Z"/></g>
<g><path style="opacity:1" fill="#1b1b1b" d="M 48.5,253.5 C 42.2226,257.264 35.5559,260.264 28.5,262.5C 29.5628,264.366 28.8961,264.866 26.5,264C 27.8882,263.111 27.7215,262.611 26,262.5C 21.6039,263.145 17.4372,264.478 13.5,266.5C 8.51412,265.445 8.51412,266.278 13.5,269C 9.94796,269.112 6.61463,268.279 3.5,266.5C 2.83333,266.667 2.16667,266.833 1.5,267C 5.24501,269.496 4.57835,270.663 -0.5,270.5C -0.5,229.5 -0.5,188.5 -0.5,147.5C 0.977822,147.238 2.31116,147.571 3.5,148.5C 2.49367,149.396 2.49367,150.062 3.5,150.5C 4.5,149.167 5.5,147.833 6.5,146.5C 7.25083,147.376 7.75083,148.376 8,149.5C 9.39881,148.773 10.8988,148.273 12.5,148C 12.0574,146.482 12.7241,145.315 14.5,144.5C 14.9976,145.603 15.3309,146.603 15.5,147.5C 17.2951,146.735 19.1284,146.068 21,145.5C 22.2575,145.15 22.5908,144.483 22,143.5C 21.2825,144.451 20.4491,144.617 19.5,144C 21.9325,141.034 23.4325,141.2 24,144.5C 24.4189,140.148 25.0855,139.815 26,143.5C 26.2163,141.616 26.883,139.949 28,138.5C 28,139.833 28,141.167 28,142.5C 31.8333,140 35.6667,137.5 39.5,135C 40.7826,132.373 42.2826,129.873 44,127.5C 43.6667,129.167 43.3333,130.833 43,132.5C 44.6667,129.833 46.3333,127.167 48,124.5C 47.6667,126.167 47.3333,127.833 47,129.5C 48.8161,126.402 50.8161,123.402 53,120.5C 52.6667,122.167 52.3333,123.833 52,125.5C 54.1485,124.023 55.4818,122.023 56,119.5C 56.3333,120.167 56.6667,120.833 57,121.5C 59.5366,118.628 62.3699,116.128 65.5,114C 64.5494,113.282 64.3828,112.449 65,111.5C 68.1667,108.333 71.3333,105.167 74.5,102C 78.4103,100.093 81.7436,97.4267 84.5,94C 83.8333,93.6667 83.1667,93.3333 82.5,93C 85.196,92.3102 87.3626,90.8102 89,88.5C 91.4674,84.3996 94.3007,80.5662 97.5,77C 96.1667,77 94.8333,77 93.5,77C 95.5,76 97.5,75 99.5,74C 98.1667,74 96.8333,74 95.5,74C 97.5,73 99.5,72 101.5,71C 100.167,71 98.8333,71 97.5,71C 98.9494,69.883 100.616,69.2163 102.5,69C 103.126,68.2496 103.626,67.4162 104,66.5C 103.672,71.4754 103.672,76.4754 104,81.5C 108.212,104.939 112.045,128.439 115.5,152C 114.644,160.571 111.81,168.404 107,175.5C 102.085,182.328 97.4186,189.328 93,196.5C 78.158,215.53 63.3247,234.53 48.5,253.5 Z"/></g>
<g><path style="opacity:1" fill="#151515" d="M 601.5,176.5 C 610.562,188.906 617.895,201.406 623.5,214C 621.068,215.087 621.402,215.587 624.5,215.5C 624.756,217.937 625.423,220.271 626.5,222.5C 625.738,222.911 624.738,223.077 623.5,223C 625.023,224.788 626.69,224.955 628.5,223.5C 629.201,250.425 632.867,277.092 639.5,303.5C 638.669,305.473 638.502,307.473 639,309.5C 651.429,328.947 663.096,349.614 674,371.5C 676.676,379.362 678.843,387.362 680.5,395.5C 679.638,397.51 679.138,399.51 679,401.5C 679.915,400.672 680.581,399.672 681,398.5C 681.167,399.167 681.333,399.833 681.5,400.5C 680.772,402.155 680.605,403.821 681,405.5C 681.906,402.879 682.406,403.046 682.5,406C 681.748,408.154 681.581,410.32 682,412.5C 682.333,411.5 682.667,410.5 683,409.5C 683.849,415.339 683.183,421.005 681,426.5C 680.581,425.328 679.915,424.328 679,423.5C 678.833,423.833 678.667,424.167 678.5,424.5C 679.929,426.331 680.429,428.331 680,430.5C 679.581,429.328 678.915,428.328 678,427.5C 677.86,429.256 678.36,430.922 679.5,432.5C 673.073,454.792 662.573,477.126 648,499.5C 625.374,526.462 602.374,553.128 579,579.5C 570.303,591.019 561.47,602.353 552.5,613.5C 551.761,613.631 551.094,613.464 550.5,613C 552.088,608.29 554.255,603.457 557,598.5C 557.667,597.167 558.333,597.167 559,598.5C 560.107,593.155 562.44,587.488 566,581.5C 567.666,582.34 567.833,581.84 566.5,580C 567.5,579 568.5,578 569.5,577C 569.043,576.586 568.709,576.086 568.5,575.5C 569.889,571.875 571.889,568.708 574.5,566C 574.043,565.586 573.709,565.086 573.5,564.5C 574.56,561.532 576.227,559.032 578.5,557C 577.825,554.758 578.325,552.591 580,550.5C 580.308,551.308 580.808,551.975 581.5,552.5C 581.109,551.282 581.776,550.448 583.5,550C 581.487,548.209 581.487,546.875 583.5,546C 583.043,545.586 582.709,545.086 582.5,544.5C 585.605,537.313 588.939,531.48 592.5,527C 591.366,525.984 591.699,525.317 593.5,525C 592.366,523.984 592.699,523.317 594.5,523C 594.5,522 594.5,521 594.5,520C 597.389,518.88 599.056,517.213 599.5,515C 598.833,514.667 598.167,514.333 597.5,514C 599.878,511.459 600.545,508.625 599.5,505.5C 603.241,499.845 606.574,494.012 609.5,488C 608.139,485.416 608.805,483.416 611.5,482C 610.185,480.605 610.519,479.605 612.5,479C 611.177,475.787 611.844,472.953 614.5,470.5C 613.005,467.473 613.339,464.64 615.5,462C 614.207,455.345 614.207,448.678 615.5,442C 612.978,437.414 612.311,432.581 613.5,427.5C 613.154,426.304 612.654,426.304 612,427.5C 611.313,425.432 611.48,423.432 612.5,421.5C 611.25,419.21 610.25,417.043 609.5,415C 609.645,414.228 609.978,413.561 610.5,413C 609.333,412.5 608.5,411.667 608,410.5C 606.405,407.012 605.905,403.512 606.5,400C 603.124,395.323 600.791,389.656 599.5,383C 600.71,381.132 600.21,379.632 598,378.5C 597.28,376.888 597.446,375.388 598.5,374C 596.246,372.946 595.913,371.446 597.5,369.5C 596.833,368.833 596.167,368.167 595.5,367.5C 595.5,365.833 595.5,364.167 595.5,362.5C 594.289,361.126 593.289,359.626 592.5,358C 592.735,357.127 593.069,356.293 593.5,355.5C 592.103,350.808 590.603,346.141 589,341.5C 588.5,340.333 587.667,339.5 586.5,339C 586.835,337.497 586.835,336.164 586.5,335C 584.431,334.676 584.098,333.842 585.5,332.5C 584.833,332.167 584.167,331.833 583.5,331.5C 584.902,330.158 584.569,329.324 582.5,329C 582.957,328.586 583.291,328.086 583.5,327.5C 582.753,327.264 581.92,326.93 581,326.5C 579.271,322.492 577.438,318.492 575.5,314.5C 576.167,314.167 576.833,313.833 577.5,313.5C 576.948,311.667 576.115,310 575,308.5C 574.667,309.167 574.333,309.833 574,310.5C 562.081,284.198 548.748,255.864 534,225.5C 526.603,218.597 519.103,211.93 511.5,205.5C 507.603,201.54 503.269,198.04 498.5,195C 499.996,194.493 501.163,194.993 502,196.5C 501.956,194.721 501.289,193.055 500,191.5C 490.322,182.488 481.322,172.821 473,162.5C 465.544,144.254 457.544,126.254 449,108.5C 438.123,97.221 425.289,94.3877 410.5,100C 404.939,102.562 401.106,106.728 399,112.5C 397.432,120.421 397.099,128.421 398,136.5C 400.051,145.475 401.884,154.475 403.5,163.5C 402.044,171.204 400.377,178.871 398.5,186.5C 396.833,186.5 395.167,186.5 393.5,186.5C 395.288,178.465 397.288,170.465 399.5,162.5C 393.852,146.613 391.685,130.279 393,113.5C 398.268,99.9187 408.268,92.9187 423,92.5C 433.149,92.3548 441.816,95.6881 449,102.5C 458.834,121.629 468.001,141.129 476.5,161C 478.783,162.618 480.283,164.785 481,167.5C 499.45,185.957 518.45,203.624 538,220.5C 546.943,239.386 555.61,258.386 564,277.5C 559.176,259.214 554.176,240.88 549,222.5C 539.83,204.816 529.164,188.149 517,172.5C 494.236,146.399 470.736,120.899 446.5,96C 434.564,89.2576 421.897,87.4243 408.5,90.5C 418.961,86.1356 429.961,83.4689 441.5,82.5C 444.02,83.1885 446.52,84.1885 449,85.5C 449.456,84.2559 448.956,83.4226 447.5,83C 448,82.5 448.5,82 449,81.5C 452.405,82.4676 452.905,83.9676 450.5,86C 451.715,88.0955 452.549,87.9288 453,85.5C 453.569,89.3605 454.402,89.3605 455.5,85.5C 458.167,86.5 458.167,87.5 455.5,88.5C 457.012,90.9343 459.012,91.6009 461.5,90.5C 466.142,92.1555 469.642,94.4888 472,97.5C 472.249,96.376 472.749,95.376 473.5,94.5C 474.689,96.8669 476.356,98.8669 478.5,100.5C 479.833,99.8333 481.167,99.1667 482.5,98.5C 483.5,98.8333 484.167,99.5 484.5,100.5C 482.019,101.86 482.352,102.86 485.5,103.5C 488.137,100.584 490.303,100.917 492,104.5C 494.123,104.256 495.956,104.256 497.5,104.5C 498.833,106.167 500.167,107.833 501.5,109.5C 502.903,109.64 504.403,109.64 506,109.5C 506.308,110.308 506.808,110.975 507.5,111.5C 508.803,110.282 509.803,110.615 510.5,112.5C 509.984,111.242 510.65,110.242 512.5,109.5C 513.197,111.385 514.197,111.718 515.5,110.5C 515.564,111.365 515.897,112.365 516.5,113.5C 518.812,116.486 520.479,116.152 521.5,112.5C 523.701,114.056 523.701,115.223 521.5,116C 524.007,118.485 525.507,117.985 526,114.5C 526.333,115.833 526.667,117.167 527,118.5C 527.333,117.833 527.667,117.167 528,116.5C 530.657,119.852 533.99,122.518 538,124.5C 538.249,123.376 538.749,122.376 539.5,121.5C 544.188,124.178 548.521,127.344 552.5,131C 551.672,131.915 550.672,132.581 549.5,133C 552,134.833 554.5,136.667 557,138.5C 557.249,137.376 557.749,136.376 558.5,135.5C 558.833,135.667 559.167,135.833 559.5,136C 560.557,137.878 560.557,139.545 559.5,141C 560.416,141.374 561.25,141.874 562,142.5C 562.249,141.376 562.749,140.376 563.5,139.5C 565.984,141.483 568.317,143.65 570.5,146C 570,146.5 569.5,147 569,147.5C 568.163,145.993 566.996,145.493 565.5,146C 570,149.167 573.833,153 577,157.5C 577.333,156.833 577.667,156.167 578,155.5C 579.167,156.667 580.333,157.833 581.5,159C 579.557,160.193 579.724,161.693 582,163.5C 582.691,161.109 583.691,161.109 585,163.5C 585.654,162.304 586.154,162.304 586.5,163.5C 585.624,164.251 584.624,164.751 583.5,165C 584.362,167.734 585.195,167.901 586,165.5C 587,165.833 588,166.167 589,166.5C 589.167,166.833 589.333,167.167 589.5,167.5C 588.624,168.251 587.624,168.751 586.5,169C 587.362,171.734 588.195,171.901 589,169.5C 591.026,172.287 593.36,173.953 596,174.5C 596.688,175.332 596.521,175.998 595.5,176.5C 594.549,175.674 593.549,175.508 592.5,176C 593.787,177.41 594.954,178.91 596,180.5C 596.701,178.238 597.868,177.238 599.5,177.5C 597.71,174.612 596.543,171.612 596,168.5C 597.609,171.407 599.442,174.073 601.5,176.5 Z"/></g>
<g><path style="opacity:1" fill="#222222" d="M 741.5,90.5 C 741.5,101.167 741.5,111.833 741.5,122.5C 729.58,124.974 718.247,129.141 707.5,135C 687.51,146.075 669.676,159.909 654,176.5C 643.532,190.403 638.366,206.07 638.5,223.5C 636.901,220.484 635.568,217.651 634.5,215C 633.912,200.045 635.412,185.212 639,170.5C 652.88,142.241 671.046,117.075 693.5,95C 708.773,86.0628 724.773,84.5628 741.5,90.5 Z"/></g>
<g><path style="opacity:1" fill="#111111" d="M 393.5,186.5 C 379.796,189.366 368.463,196.366 359.5,207.5C 358.504,207.586 357.671,207.252 357,206.5C 355.645,191.536 355.145,176.536 355.5,161.5C 356.049,145.017 360.549,129.684 369,115.5C 380.012,102.164 393.179,93.8305 408.5,90.5C 421.897,87.4243 434.564,89.2576 446.5,96C 470.736,120.899 494.236,146.399 517,172.5C 529.164,188.149 539.83,204.816 549,222.5C 554.176,240.88 559.176,259.214 564,277.5C 555.61,258.386 546.943,239.386 538,220.5C 518.45,203.624 499.45,185.957 481,167.5C 480.283,164.785 478.783,162.618 476.5,161C 468.001,141.129 458.834,121.629 449,102.5C 441.816,95.6881 433.149,92.3548 423,92.5C 408.268,92.9187 398.268,99.9187 393,113.5C 391.685,130.279 393.852,146.613 399.5,162.5C 397.288,170.465 395.288,178.465 393.5,186.5 Z"/></g>
<g><path style="opacity:1" fill="#282828" d="M 511.5,205.5 C 501.335,198.855 491.002,192.355 480.5,186C 470.331,182.29 459.998,181.623 449.5,184C 442.66,189.87 437.993,197.037 435.5,205.5C 432.464,199.955 428.464,195.122 423.5,191C 421.975,189.991 420.308,189.491 418.5,189.5C 418.5,188.5 418.5,187.5 418.5,186.5C 411.833,186.5 405.167,186.5 398.5,186.5C 400.377,178.871 402.044,171.204 403.5,163.5C 401.884,154.475 400.051,145.475 398,136.5C 397.099,128.421 397.432,120.421 399,112.5C 401.106,106.728 404.939,102.562 410.5,100C 425.289,94.3877 438.123,97.221 449,108.5C 457.544,126.254 465.544,144.254 473,162.5C 481.322,172.821 490.322,182.488 500,191.5C 501.289,193.055 501.956,194.721 502,196.5C 501.163,194.993 499.996,194.493 498.5,195C 503.269,198.04 507.603,201.54 511.5,205.5 Z"/></g>
<g><path style="opacity:1" fill="#1c1c1c" d="M 741.5,122.5 C 741.5,198.5 741.5,274.5 741.5,350.5C 731.189,338.524 719.189,328.69 705.5,321C 697.87,314.233 692.37,306.066 689,296.5C 680.761,287.018 672.761,277.351 665,267.5C 653.894,254.222 645.061,239.555 638.5,223.5C 638.366,206.07 643.532,190.403 654,176.5C 669.676,159.909 687.51,146.075 707.5,135C 718.247,129.141 729.58,124.974 741.5,122.5 Z"/></g>
<g><path style="opacity:1" fill="#282828" d="M 267.5,135.5 C 268.328,145.205 264.994,153.039 257.5,159C 240.868,165.98 224.201,172.98 207.5,180C 197.659,186.42 187.993,193.087 178.5,200C 166.17,212.328 152.17,222.328 136.5,230C 151.08,226.034 165.746,222.034 180.5,218C 211.485,211.503 242.651,210.669 274,215.5C 278.556,215.468 283.056,214.968 287.5,214C 293.991,210.922 300.325,207.588 306.5,204C 328.223,186.939 344.723,165.772 356,140.5C 355.082,150.843 353.749,161.176 352,171.5C 343.028,198.716 334.361,226.05 326,253.5C 325.48,262.17 324.98,270.837 324.5,279.5C 321.447,291.165 318.28,302.831 315,314.5C 312.247,323.893 308.747,332.893 304.5,341.5C 305.329,336.846 306.163,332.18 307,327.5C 307.333,328.167 307.667,328.833 308,329.5C 309.46,325.104 310.793,320.771 312,316.5C 304.452,323.264 295.619,325.764 285.5,324C 272.386,313.276 257.72,305.443 241.5,300.5C 241.5,305.167 241.5,309.833 241.5,314.5C 239.75,300.496 242.916,287.496 251,275.5C 258.667,267.167 266.333,258.833 274,250.5C 275.664,247.711 275.83,244.877 274.5,242C 270.167,241.333 265.833,241.333 261.5,242C 240.272,251.225 224.105,266.058 213,286.5C 211.891,290.647 210.724,294.647 209.5,298.5C 209.649,297.448 209.483,296.448 209,295.5C 193.742,282.238 177.908,269.738 161.5,258C 155.822,254.159 149.822,250.826 143.5,248C 131.305,242.744 118.638,241.078 105.5,243C 107.359,242.316 109.026,241.316 110.5,240C 110,239.833 109.5,239.667 109,239.5C 95.2759,245.293 81.4425,250.459 67.5,255C 84.8031,242.2 99.4697,227.033 111.5,209.5C 121.246,199.085 131.913,189.752 143.5,181.5C 159.671,164.842 175.171,147.842 190,130.5C 200.243,111.809 208.576,92.1426 215,71.5C 218.033,66.1467 221.033,60.8133 224,55.5C 225.74,53.0465 227.907,51.5465 230.5,51C 225.404,59.9595 224.237,69.4595 227,79.5C 235.034,100.203 247.701,117.537 265,131.5C 265.361,137 264.528,142.334 262.5,147.5C 262.833,147.833 263.167,148.167 263.5,148.5C 265.319,144.202 266.652,139.868 267.5,135.5 Z"/></g>
<g><path style="opacity:1" fill="#1b1b1b" d="M 355.5,161.5 C 355.145,176.536 355.645,191.536 357,206.5C 357.671,207.252 358.504,207.586 359.5,207.5C 353.605,214.278 348.438,221.612 344,229.5C 338.233,243.017 333.066,256.684 328.5,270.5C 327.188,268.257 326.522,265.59 326.5,262.5C 326.667,259.833 326.833,257.167 327,254.5C 333.405,234.62 339.405,214.62 345,194.5C 347.032,186.73 350.032,179.397 354,172.5C 354.177,168.644 354.677,164.977 355.5,161.5 Z"/></g>
<g><path style="opacity:1" fill="#101010" d="M 511.5,205.5 C 519.103,211.93 526.603,218.597 534,225.5C 548.748,255.864 562.081,284.198 574,310.5C 574.333,309.833 574.667,309.167 575,308.5C 576.115,310 576.948,311.667 577.5,313.5C 576.833,313.833 576.167,314.167 575.5,314.5C 577.438,318.492 579.271,322.492 581,326.5C 581.92,326.93 582.753,327.264 583.5,327.5C 583.291,328.086 582.957,328.586 582.5,329C 584.569,329.324 584.902,330.158 583.5,331.5C 584.167,331.833 584.833,332.167 585.5,332.5C 584.098,333.842 584.431,334.676 586.5,335C 586.835,336.164 586.835,337.497 586.5,339C 587.667,339.5 588.5,340.333 589,341.5C 590.603,346.141 592.103,350.808 593.5,355.5C 593.069,356.293 592.735,357.127 592.5,358C 593.289,359.626 594.289,361.126 595.5,362.5C 595.5,364.167 595.5,365.833 595.5,367.5C 596.167,368.167 596.833,368.833 597.5,369.5C 595.913,371.446 596.246,372.946 598.5,374C 597.446,375.388 597.28,376.888 598,378.5C 600.21,379.632 600.71,381.132 599.5,383C 600.791,389.656 603.124,395.323 606.5,400C 605.905,403.512 606.405,407.012 608,410.5C 608.5,411.667 609.333,412.5 610.5,413C 609.978,413.561 609.645,414.228 609.5,415C 610.25,417.043 611.25,419.21 612.5,421.5C 611.48,423.432 611.313,425.432 612,427.5C 612.654,426.304 613.154,426.304 613.5,427.5C 612.311,432.581 612.978,437.414 615.5,442C 614.207,448.678 614.207,455.345 615.5,462C 613.339,464.64 613.005,467.473 614.5,470.5C 611.844,472.953 611.177,475.787 612.5,479C 610.519,479.605 610.185,480.605 611.5,482C 608.805,483.416 608.139,485.416 609.5,488C 606.574,494.012 603.241,499.845 599.5,505.5C 600.545,508.625 599.878,511.459 597.5,514C 598.167,514.333 598.833,514.667 599.5,515C 599.056,517.213 597.389,518.88 594.5,520C 594.5,521 594.5,522 594.5,523C 592.699,523.317 592.366,523.984 593.5,525C 591.699,525.317 591.366,525.984 592.5,527C 588.939,531.48 585.605,537.313 582.5,544.5C 582.709,545.086 583.043,545.586 583.5,546C 581.487,546.875 581.487,548.209 583.5,550C 581.776,550.448 581.109,551.282 581.5,552.5C 580.808,551.975 580.308,551.308 580,550.5C 578.325,552.591 577.825,554.758 578.5,557C 576.227,559.032 574.56,561.532 573.5,564.5C 573.709,565.086 574.043,565.586 574.5,566C 571.889,568.708 569.889,571.875 568.5,575.5C 568.709,576.086 569.043,576.586 569.5,577C 568.5,578 567.5,579 566.5,580C 567.833,581.84 567.666,582.34 566,581.5C 562.44,587.488 560.107,593.155 559,598.5C 558.333,597.167 557.667,597.167 557,598.5C 554.255,603.457 552.088,608.29 550.5,613C 551.094,613.464 551.761,613.631 552.5,613.5C 547.68,621.762 543.346,629.262 539.5,636C 538.747,637.487 537.914,637.654 537,636.5C 537.39,639.726 536.057,642.393 533,644.5C 531.334,643.66 531.167,644.16 532.5,646C 530.816,647.74 528.982,648.906 527,649.5C 526.383,650.449 526.549,651.282 527.5,652C 519.667,660.5 511.833,669 504,677.5C 486.025,697.49 465.192,713.656 441.5,726C 421.387,732.902 400.721,735.568 379.5,734C 363.709,727.014 347.376,721.514 330.5,717.5C 330.719,716.325 330.386,715.325 329.5,714.5C 328.304,714.846 328.304,715.346 329.5,716C 328.906,716.464 328.239,716.631 327.5,716.5C 327.617,714.516 326.95,712.85 325.5,711.5C 324.197,712.718 323.197,712.385 322.5,710.5C 321.707,710.931 320.873,711.265 320,711.5C 311.964,709.233 304.797,705.567 298.5,700.5C 297.833,700.833 297.167,701.167 296.5,701.5C 291.078,698.789 286.078,696.289 281.5,694C 281.833,693.667 282.167,693.333 282.5,693C 280.751,691.708 278.918,690.542 277,689.5C 276.667,690.167 276.333,690.833 276,691.5C 271.582,688.707 267.082,686.041 262.5,683.5C 261.749,682.624 261.249,681.624 261,680.5C 258.298,681.641 256.631,680.641 256,677.5C 255.586,677.957 255.086,678.291 254.5,678.5C 253.13,676.873 251.63,675.206 250,673.5C 249.026,675.878 248.359,675.544 248,672.5C 247.282,673.451 246.449,673.617 245.5,673C 243.68,672.021 242.513,670.521 242,668.5C 240.284,669.552 239.284,668.886 239,666.5C 237.284,667.552 236.284,666.886 236,664.5C 234.284,665.552 233.284,664.886 233,662.5C 232.586,662.957 232.086,663.291 231.5,663.5C 230.757,662.092 229.923,660.759 229,659.5C 228.586,659.957 228.086,660.291 227.5,660.5C 226.167,659.5 226.167,658.5 227.5,657.5C 246.966,668.733 267.3,678.067 288.5,685.5C 289.087,684.767 289.087,683.767 288.5,682.5C 290.993,682.329 292.826,683.329 294,685.5C 296.144,685.246 298.144,685.246 300,685.5C 303.145,686.411 306.312,687.245 309.5,688C 308.304,688.654 308.304,689.154 309.5,689.5C 311.163,688.125 312.497,688.458 313.5,690.5C 315.792,688.976 317.792,689.309 319.5,691.5C 321.883,690.095 324.05,690.429 326,692.5C 329.146,691.148 332.146,691.481 335,693.5C 337.821,691.981 340.321,692.314 342.5,694.5C 343.293,694.069 344.127,693.735 345,693.5C 346.765,694.446 348.598,695.446 350.5,696.5C 351.167,696.167 351.833,695.833 352.5,695.5C 352.833,696.167 353.167,696.833 353.5,697.5C 355.335,697.166 357.002,697.166 358.5,697.5C 359.197,699.385 360.197,699.718 361.5,698.5C 361.833,699.167 362.167,699.833 362.5,700.5C 364.48,699.617 366.48,699.783 368.5,701C 370.224,701.448 370.891,702.282 370.5,703.5C 371.167,703.167 371.833,702.833 372.5,702.5C 382.34,704.732 392.006,703.898 401.5,700C 429.201,684.976 456.201,668.643 482.5,651C 504.63,633.87 524.463,614.37 542,592.5C 556.667,571.167 571.333,549.833 586,528.5C 587.289,526.945 587.956,525.279 588,523.5C 567.79,549.229 543.29,569.562 514.5,584.5C 497.827,586.904 482.16,584.07 467.5,576C 460.982,570.336 456.316,563.502 453.5,555.5C 453.328,554.508 453.662,553.842 454.5,553.5C 461.224,574.349 475.557,583.183 497.5,580C 505.679,579.462 513.012,576.796 519.5,572C 522.259,566.905 526.092,562.738 531,559.5C 551.57,534.799 562.07,506.299 562.5,474C 560.027,443.329 556.194,412.829 551,382.5C 547.728,372.625 543.394,363.292 538,354.5C 531.04,343.011 523.707,331.677 516,320.5C 502.728,301.62 484.561,293.787 461.5,297C 455.707,299.73 450.04,302.73 444.5,306C 428.197,319.509 414.864,335.342 404.5,353.5C 404.196,352.85 403.863,352.183 403.5,351.5C 406.354,343.999 408.854,337.332 411,331.5C 411.492,330.451 411.326,329.451 410.5,328.5C 411.167,328.167 411.833,327.833 412.5,327.5C 412.167,326.833 411.833,326.167 411.5,325.5C 412.167,325.167 412.833,324.833 413.5,324.5C 413.167,323.833 412.833,323.167 412.5,322.5C 413.167,322.167 413.833,321.833 414.5,321.5C 414.069,320.707 413.735,319.873 413.5,319C 415.011,313.588 416.011,308.088 416.5,302.5C 424.906,292.358 431.239,281.025 435.5,268.5C 436.79,267.942 437.623,266.942 438,265.5C 441.031,245.814 441.198,226.148 438.5,206.5C 437.5,206.5 436.5,206.5 435.5,206.5C 435.5,206.167 435.5,205.833 435.5,205.5C 437.993,197.037 442.66,189.87 449.5,184C 459.998,181.623 470.331,182.29 480.5,186C 491.002,192.355 501.335,198.855 511.5,205.5 Z"/></g>
<g><path style="opacity:1" fill="#fbfbfb" d="M 393.5,186.5 C 395.167,186.5 396.833,186.5 398.5,186.5C 405.167,186.5 411.833,186.5 418.5,186.5C 418.5,187.5 418.5,188.5 418.5,189.5C 420.308,189.491 421.975,189.991 423.5,191C 428.464,195.122 432.464,199.955 435.5,205.5C 435.5,205.833 435.5,206.167 435.5,206.5C 438.85,215.828 440.184,225.495 439.5,235.5C 439.435,246.679 438.102,257.679 435.5,268.5C 431.239,281.025 424.906,292.358 416.5,302.5C 406.023,313.14 395.023,323.307 383.5,333C 371.912,341.044 360.412,349.211 349,357.5C 340.109,379.928 331.275,402.262 322.5,424.5C 322.608,425.442 322.941,426.275 323.5,427C 341.361,436.287 360.194,442.787 380,446.5C 383.29,446.572 386.456,446.072 389.5,445C 379.296,437.73 375.796,427.896 379,415.5C 383.026,400.982 390.86,388.982 402.5,379.5C 410.673,374.245 419.34,369.745 428.5,366C 437.5,365.333 446.5,365.333 455.5,366C 476.185,372.682 485.685,386.849 484,408.5C 482.257,421.561 476.923,432.894 468,442.5C 459.453,451.18 450.62,459.514 441.5,467.5C 446.897,472.394 452.731,476.728 459,480.5C 467.182,476.992 475.016,472.825 482.5,468C 485.304,467.029 487.304,467.862 488.5,470.5C 488.471,472.029 487.804,473.196 486.5,474C 477.812,478.341 469.812,483.674 462.5,490C 465.227,492.956 466.727,496.456 467,500.5C 468.422,512.503 467.089,524.17 463,535.5C 460.412,541.673 457.579,547.673 454.5,553.5C 453.662,553.842 453.328,554.508 453.5,555.5C 442.358,574.142 427.358,588.975 408.5,600C 384.635,607.126 372.135,598.292 371,573.5C 373.441,562.954 377.774,553.287 384,544.5C 390.25,536.527 397.083,529.027 404.5,522C 416.47,512.421 427.97,502.254 439,491.5C 438.742,484.061 434.909,479.395 427.5,477.5C 421.797,480.351 416.13,483.185 410.5,486C 406.1,486.978 401.933,486.478 398,484.5C 396.557,479.788 397.723,475.955 401.5,473C 406.832,470.843 412.166,469.009 417.5,467.5C 426.977,465.172 434.81,460.172 441,452.5C 449.108,442.706 455.108,431.706 459,419.5C 461.327,408.056 460.994,396.722 458,385.5C 450.258,374.691 439.758,370.525 426.5,373C 409.798,379.372 398.965,391.205 394,408.5C 391.851,424.679 398.684,431.846 414.5,430C 421.497,422.669 427.331,414.502 432,405.5C 433.356,404.62 434.856,404.286 436.5,404.5C 438.081,412.706 436.581,420.372 432,427.5C 426.051,436.614 418.884,444.614 410.5,451.5C 401.1,457.969 390.766,462.303 379.5,464.5C 376.22,465.865 372.886,466.865 369.5,467.5C 366.833,467.5 364.167,467.5 361.5,467.5C 361.389,466.883 361.056,466.383 360.5,466C 357.522,465.304 354.522,464.804 351.5,464.5C 338.858,462.256 326.525,458.923 314.5,454.5C 310.154,451.81 305.487,449.477 300.5,447.5C 285.037,455.401 269.037,461.901 252.5,467C 245.833,467.667 239.167,467.667 232.5,467C 225.02,465.267 217.686,462.934 210.5,460C 195.451,452.645 190.451,441.145 195.5,425.5C 196.072,423.745 196.906,422.078 198,420.5C 205.606,412.02 215.106,407.687 226.5,407.5C 238.171,407.333 249.838,407.5 261.5,408C 265.07,409.31 268.737,410.143 272.5,410.5C 278.109,412.804 283.942,414.804 290,416.5C 291.473,416.097 292.806,415.43 294,414.5C 300.837,398.158 304.337,381.158 304.5,363.5C 286.855,363.809 269.522,361.809 252.5,357.5C 249.54,355.604 246.207,354.604 242.5,354.5C 236.149,351.006 230.149,346.839 224.5,342C 212.666,330.003 207.666,315.503 209.5,298.5C 210.724,294.647 211.891,290.647 213,286.5C 224.105,266.058 240.272,251.225 261.5,242C 265.833,241.333 270.167,241.333 274.5,242C 275.83,244.877 275.664,247.711 274,250.5C 266.333,258.833 258.667,267.167 251,275.5C 242.916,287.496 239.75,300.496 241.5,314.5C 244.287,329.789 252.62,340.956 266.5,348C 275.792,351.87 285.459,353.536 295.5,353C 299.583,349.995 302.583,346.161 304.5,341.5C 308.747,332.893 312.247,323.893 315,314.5C 318.28,302.831 321.447,291.165 324.5,279.5C 326.274,276.814 327.607,273.814 328.5,270.5C 333.066,256.684 338.233,243.017 344,229.5C 348.438,221.612 353.605,214.278 359.5,207.5C 368.463,196.366 379.796,189.366 393.5,186.5 Z"/></g>
<g><path style="opacity:1" fill="#2b2b2b" d="M 410.5,274.5 C 410.244,272.063 409.577,269.729 408.5,267.5C 408.846,266.304 409.346,266.304 410,267.5C 410.333,268.5 410.667,269.5 411,270.5C 411.667,268.833 411.667,267.167 411,265.5C 408.108,258.279 404.774,251.279 401,244.5C 395.739,231.076 392.906,217.409 392.5,203.5C 406.769,197.214 416.602,201.548 422,216.5C 424.281,229.01 423.614,241.343 420,253.5C 416.978,260.633 413.811,267.633 410.5,274.5 Z"/></g>
<g><path style="opacity:1" fill="#131313" d="M 392.5,203.5 C 392.906,217.409 395.739,231.076 401,244.5C 404.774,251.279 408.108,258.279 411,265.5C 411.667,267.167 411.667,268.833 411,270.5C 410.667,269.5 410.333,268.5 410,267.5C 409.346,266.304 408.846,266.304 408.5,267.5C 409.577,269.729 410.244,272.063 410.5,274.5C 405.827,283.854 400.161,292.52 393.5,300.5C 392.5,300.5 391.5,300.5 390.5,300.5C 386.101,282.365 378.935,265.365 369,249.5C 368.503,246.854 368.336,244.187 368.5,241.5C 371.468,228.396 377.468,216.896 386.5,207C 388.388,205.606 390.388,204.44 392.5,203.5 Z"/></g>
<g><path style="opacity:1" fill="#303030" d="M 435.5,206.5 C 436.5,206.5 437.5,206.5 438.5,206.5C 441.198,226.148 441.031,245.814 438,265.5C 437.623,266.942 436.79,267.942 435.5,268.5C 438.102,257.679 439.435,246.679 439.5,235.5C 440.184,225.495 438.85,215.828 435.5,206.5 Z"/></g>
<g><path style="opacity:1" fill="#191919" d="M 368.5,241.5 C 368.336,244.187 368.503,246.854 369,249.5C 378.935,265.365 386.101,282.365 390.5,300.5C 391.5,300.5 392.5,300.5 393.5,300.5C 383.71,313.622 371.71,324.288 357.5,332.5C 355.532,324.567 354.865,316.234 355.5,307.5C 355.438,302.924 356.105,298.591 357.5,294.5C 358.091,291.377 359.258,288.377 361,285.5C 361.44,275.706 362.606,266.039 364.5,256.5C 364.338,254.473 364.505,252.473 365,250.5C 365.861,247.269 367.028,244.269 368.5,241.5 Z"/></g>
<g><path style="opacity:1" fill="#101010" d="M 48.5,253.5 C 46.3445,256.602 43.3445,258.768 39.5,260C 40.1667,260.333 40.8333,260.667 41.5,261C 37.7779,260.553 34.1112,261.22 30.5,263C 30.9574,263.414 31.2907,263.914 31.5,264.5C 30.2713,265.281 28.938,265.781 27.5,266C 29.3646,267.301 31.3646,267.635 33.5,267C 34.8333,266.333 34.8333,265.667 33.5,265C 35.3646,263.699 37.3646,263.365 39.5,264C 35.6475,264.662 35.6475,265.496 39.5,266.5C 40.9611,264.916 42.7944,263.583 45,262.5C 46.7618,262.944 46.5951,263.444 44.5,264C 47.2862,265.453 50.1196,265.286 53,263.5C 54.8148,264.244 56.6481,264.911 58.5,265.5C 66.2079,266.347 73.5412,268.513 80.5,272C 106.901,286.059 129.401,304.892 148,328.5C 154.585,337.502 159.418,347.336 162.5,358C 161.348,365.79 159.181,373.29 156,380.5C 149.062,392.433 141.729,404.1 134,415.5C 128.133,430.767 122.467,446.101 117,461.5C 113.232,471.6 106.066,477.767 95.5,480C 87.8822,481.612 80.2155,482.945 72.5,484C 91.1103,489.033 110.11,491.033 129.5,490C 135.536,488.712 141.203,486.545 146.5,483.5C 147.738,483.81 147.738,484.31 146.5,485C 141.145,488.118 135.478,490.451 129.5,492C 147.246,495.099 160.079,504.599 168,520.5C 172.988,531.128 176.988,542.128 180,553.5C 179.315,537.679 179.482,522.013 180.5,506.5C 180.751,528.128 181.418,549.794 182.5,571.5C 183.832,585.134 185.332,598.8 187,612.5C 189.618,618.749 193.452,624.082 198.5,628.5C 199.072,630.255 199.906,631.922 201,633.5C 204.038,636.369 206.871,639.369 209.5,642.5C 208.957,642.56 208.624,642.893 208.5,643.5C 210.5,644.833 212.5,646.167 214.5,647.5C 213.965,649.101 212.965,649.601 211.5,649C 208.646,646.312 205.646,643.812 202.5,641.5C 203.025,640.808 203.692,640.308 204.5,640C 204.167,639.667 203.833,639.333 203.5,639C 201.402,639.984 199.402,639.651 197.5,638C 197.324,636.308 196.824,634.808 196,633.5C 195.043,635.709 193.876,635.543 192.5,633C 193.258,631.636 192.758,630.469 191,629.5C 189.16,630.833 188.66,630.666 189.5,629C 186.428,626.049 183.261,623.216 180,620.5C 179.586,620.957 179.086,621.291 178.5,621.5C 178.704,620.471 178.204,619.471 177,618.5C 175.927,619.28 174.76,619.113 173.5,618C 174.167,617.667 174.833,617.333 175.5,617C 169.385,613.197 164.551,608.697 161,603.5C 159.334,604.34 159.167,603.84 160.5,602C 159.333,600.833 158.167,599.667 157,598.5C 155.391,599.15 153.891,598.65 152.5,597C 153.167,596.333 153.833,595.667 154.5,595C 153,593.5 151.5,592 150,590.5C 149.667,590.833 149.333,591.167 149,591.5C 147.59,590.213 146.09,589.046 144.5,588C 145.167,587.333 145.833,586.667 146.5,586C 144.333,583.833 142.167,581.667 140,579.5C 139.667,579.833 139.333,580.167 139,580.5C 132.295,574.497 126.628,568.164 122,561.5C 119.442,563.943 118.608,563.443 119.5,560C 118.333,558.833 117.167,557.667 116,556.5C 113.827,559.277 113.327,559.11 114.5,556C 113.083,553.174 111.583,553.007 110,555.5C 109.383,554.551 109.549,553.718 110.5,553C 109.083,550.174 107.583,550.007 106,552.5C 103.252,550.542 100.418,548.709 97.5,547C 101.097,546.136 100.93,544.969 97,543.5C 94.8266,546.277 94.3266,546.11 95.5,543C 88.8304,539.274 82.8304,536.608 77.5,535C 78.4506,535.718 78.6172,536.551 78,537.5C 76.0414,536.252 74.5414,534.585 73.5,532.5C 72.8333,532.833 72.1667,533.167 71.5,533.5C 70.3044,533.154 70.3044,532.654 71.5,532C 69.8904,530.505 68.2237,530.339 66.5,531.5C 64.7334,529.11 62.4001,527.443 59.5,526.5C 58.8333,526.833 58.1667,527.167 57.5,527.5C 56.2429,523.89 53.9096,522.39 50.5,523C 51.6537,522.086 51.487,521.253 50,520.5C 47.3614,519.21 44.5281,517.376 41.5,515C 39.2294,514.546 36.8961,513.879 34.5,513C 36.9011,512.195 36.7344,511.362 34,510.5C 32.5861,511.413 31.0861,511.413 29.5,510.5C 29.9175,509.778 30.5842,509.278 31.5,509C 29.9452,507.354 28.2785,507.021 26.5,508C 27.8333,507.333 27.8333,506.667 26.5,506C 24.2068,504.305 21.8734,503.638 19.5,504C 17.375,501.008 14.5416,498.842 11,497.5C 10.6667,497.833 10.3333,498.167 10,498.5C 9,497.5 8,496.5 7,495.5C 5.11901,496.354 3.28568,496.021 1.5,494.5C 0.816537,494.863 0.14987,495.196 -0.5,495.5C -0.5,488.167 -0.5,480.833 -0.5,473.5C 12.0572,471.218 23.7239,466.718 34.5,460C 52.652,449.508 69.9853,437.842 86.5,425C 96.6916,413.809 107.192,402.976 118,392.5C 124.644,383.544 128.811,373.544 130.5,362.5C 129.503,354.508 126.337,347.508 121,341.5C 105.626,321.12 89.1264,301.62 71.5,283C 65.8237,278.662 59.4904,275.662 52.5,274C 34.8285,273.57 17.1619,273.07 -0.5,272.5C -0.5,271.833 -0.5,271.167 -0.5,270.5C 4.57835,270.663 5.24501,269.496 1.5,267C 2.16667,266.833 2.83333,266.667 3.5,266.5C 6.61463,268.279 9.94796,269.112 13.5,269C 8.51412,266.278 8.51412,265.445 13.5,266.5C 17.4372,264.478 21.6039,263.145 26,262.5C 27.7215,262.611 27.8882,263.111 26.5,264C 28.8961,264.866 29.5628,264.366 28.5,262.5C 35.5559,260.264 42.2226,257.264 48.5,253.5 Z"/></g>
<g><path style="opacity:1" fill="#252525" d="M 195.5,425.5 C 190.451,441.145 195.451,452.645 210.5,460C 217.686,462.934 225.02,465.267 232.5,467C 239.167,467.667 245.833,467.667 252.5,467C 269.037,461.901 285.037,455.401 300.5,447.5C 305.487,449.477 310.154,451.81 314.5,454.5C 313.127,454.343 311.793,454.51 310.5,455C 307.833,457 305.167,459 302.5,461C 293.228,464.202 283.895,467.202 274.5,470C 258.172,472.333 241.839,474.666 225.5,477C 204.713,479.955 190.546,491.121 183,510.5C 182.767,531.008 182.6,551.341 182.5,571.5C 181.418,549.794 180.751,528.128 180.5,506.5C 177.883,495.145 176.216,483.645 175.5,472C 173.865,467.874 170.865,466.541 166.5,468C 164.051,468.725 161.717,469.725 159.5,471C 155.931,476.071 151.597,480.238 146.5,483.5C 141.203,486.545 135.536,488.712 129.5,490C 110.11,491.033 91.1103,489.033 72.5,484C 80.2155,482.945 87.8822,481.612 95.5,480C 106.066,477.767 113.232,471.6 117,461.5C 122.467,446.101 128.133,430.767 134,415.5C 141.729,404.1 149.062,392.433 156,380.5C 159.181,373.29 161.348,365.79 162.5,358C 159.418,347.336 154.585,337.502 148,328.5C 129.401,304.892 106.901,286.059 80.5,272C 73.5412,268.513 66.2079,266.347 58.5,265.5C 60.223,264.2 62.3897,263.533 65,263.5C 80.6418,264.639 96.1418,266.806 111.5,270C 160.046,278.877 191.213,307.044 205,354.5C 205.601,366.23 204.934,377.897 203,389.5C 201.199,398.101 197.532,405.767 192,412.5C 191.371,416.871 191.537,421.204 192.5,425.5C 193.5,425.5 194.5,425.5 195.5,425.5 Z"/></g>
<g><path style="opacity:1" fill="#0b0c0b" d="M -0.5,272.5 C 17.1619,273.07 34.8285,273.57 52.5,274C 59.4904,275.662 65.8237,278.662 71.5,283C 89.1264,301.62 105.626,321.12 121,341.5C 126.337,347.508 129.503,354.508 130.5,362.5C 128.811,373.544 124.644,383.544 118,392.5C 107.192,402.976 96.6916,413.809 86.5,425C 69.9853,437.842 52.652,449.508 34.5,460C 23.7239,466.718 12.0572,471.218 -0.5,473.5C -0.5,406.5 -0.5,339.5 -0.5,272.5 Z"/></g>
<g><path style="opacity:1" fill="#393939" d="M 364.5,256.5 C 362.606,266.039 361.44,275.706 361,285.5C 359.258,288.377 358.091,291.377 357.5,294.5C 358.121,285.771 359.288,277.104 361,268.5C 361.488,264.167 362.655,260.167 364.5,256.5 Z"/></g>
<g><path style="opacity:1" fill="#0c0c0c" d="M 454.5,553.5 C 457.579,547.673 460.412,541.673 463,535.5C 467.089,524.17 468.422,512.503 467,500.5C 466.727,496.456 465.227,492.956 462.5,490C 469.812,483.674 477.812,478.341 486.5,474C 487.804,473.196 488.471,472.029 488.5,470.5C 487.304,467.862 485.304,467.029 482.5,468C 475.016,472.825 467.182,476.992 459,480.5C 452.731,476.728 446.897,472.394 441.5,467.5C 450.62,459.514 459.453,451.18 468,442.5C 476.923,432.894 482.257,421.561 484,408.5C 485.685,386.849 476.185,372.682 455.5,366C 446.5,365.333 437.5,365.333 428.5,366C 419.34,369.745 410.673,374.245 402.5,379.5C 401.414,379.38 400.747,378.713 400.5,377.5C 398.431,368.915 399.764,360.915 404.5,353.5C 414.864,335.342 428.197,319.509 444.5,306C 450.04,302.73 455.707,299.73 461.5,297C 484.561,293.787 502.728,301.62 516,320.5C 523.707,331.677 531.04,343.011 538,354.5C 543.394,363.292 547.728,372.625 551,382.5C 556.194,412.829 560.027,443.329 562.5,474C 562.07,506.299 551.57,534.799 531,559.5C 526.092,562.738 522.259,566.905 519.5,572C 513.012,576.796 505.679,579.462 497.5,580C 475.557,583.183 461.224,574.349 454.5,553.5 Z"/></g>
<g><path style="opacity:1" fill="#1a1a1a" d="M 304.5,341.5 C 302.583,346.161 299.583,349.995 295.5,353C 285.459,353.536 275.792,351.87 266.5,348C 252.62,340.956 244.287,329.789 241.5,314.5C 241.5,309.833 241.5,305.167 241.5,300.5C 257.72,305.443 272.386,313.276 285.5,324C 295.619,325.764 304.452,323.264 312,316.5C 310.793,320.771 309.46,325.104 308,329.5C 307.667,328.833 307.333,328.167 307,327.5C 306.163,332.18 305.329,336.846 304.5,341.5 Z"/></g>
<g><path style="opacity:1" fill="#5e5e5e" d="M 355.5,307.5 C 354.865,316.234 355.532,324.567 357.5,332.5C 356.791,333.404 355.791,333.737 354.5,333.5C 354.174,324.651 354.507,315.984 355.5,307.5 Z"/></g>
<g><path style="opacity:1" fill="#181818" d="M 416.5,302.5 C 416.011,308.088 415.011,313.588 413.5,319C 413.735,319.873 414.069,320.707 414.5,321.5C 413.833,321.833 413.167,322.167 412.5,322.5C 412.833,323.167 413.167,323.833 413.5,324.5C 412.833,324.833 412.167,325.167 411.5,325.5C 411.833,326.167 412.167,326.833 412.5,327.5C 411.833,327.833 411.167,328.167 410.5,328.5C 411.326,329.451 411.492,330.451 411,331.5C 408.854,337.332 406.354,343.999 403.5,351.5C 403.863,352.183 404.196,352.85 404.5,353.5C 399.764,360.915 398.431,368.915 400.5,377.5C 400.747,378.713 401.414,379.38 402.5,379.5C 390.86,388.982 383.026,400.982 379,415.5C 375.796,427.896 379.296,437.73 389.5,445C 386.456,446.072 383.29,446.572 380,446.5C 360.194,442.787 341.361,436.287 323.5,427C 322.941,426.275 322.608,425.442 322.5,424.5C 331.275,402.262 340.109,379.928 349,357.5C 360.412,349.211 371.912,341.044 383.5,333C 395.023,323.307 406.023,313.14 416.5,302.5 Z"/></g>
<g><path style="opacity:1" fill="#191919" d="M 252.5,357.5 C 269.522,361.809 286.855,363.809 304.5,363.5C 304.337,381.158 300.837,398.158 294,414.5C 292.806,415.43 291.473,416.097 290,416.5C 283.942,414.804 278.109,412.804 272.5,410.5C 270.622,409.792 268.955,408.626 267.5,407C 263.789,406.825 260.122,406.325 256.5,405.5C 247.905,389.937 244.239,373.27 245.5,355.5C 247.51,357.171 249.843,357.838 252.5,357.5 Z"/></g>
<g><path style="opacity:1" fill="#101010" d="M 417.5,467.5 C 415.167,467.5 412.833,467.5 410.5,467.5C 410.5,462.167 410.5,456.833 410.5,451.5C 418.884,444.614 426.051,436.614 432,427.5C 436.581,420.372 438.081,412.706 436.5,404.5C 434.856,404.286 433.356,404.62 432,405.5C 427.331,414.502 421.497,422.669 414.5,430C 398.684,431.846 391.851,424.679 394,408.5C 398.965,391.205 409.798,379.372 426.5,373C 439.758,370.525 450.258,374.691 458,385.5C 460.994,396.722 461.327,408.056 459,419.5C 455.108,431.706 449.108,442.706 441,452.5C 434.81,460.172 426.977,465.172 417.5,467.5 Z"/></g>
<g><path style="opacity:1" fill="#323232" d="M 242.5,354.5 C 246.207,354.604 249.54,355.604 252.5,357.5C 249.843,357.838 247.51,357.171 245.5,355.5C 244.239,373.27 247.905,389.937 256.5,405.5C 260.122,406.325 263.789,406.825 267.5,407C 268.955,408.626 270.622,409.792 272.5,410.5C 268.737,410.143 265.07,409.31 261.5,408C 249.838,407.5 238.171,407.333 226.5,407.5C 235.675,406.833 245.009,406.167 254.5,405.5C 246.884,389.369 242.884,372.369 242.5,354.5 Z"/></g>
<g><path style="opacity:1" fill="#191919" d="M 258.5,446.5 C 242.812,446.063 227.145,445.396 211.5,444.5C 204.963,441.296 203.797,436.629 208,430.5C 209.637,428.19 211.804,426.69 214.5,426C 235.626,422.365 255.292,426.198 273.5,437.5C 269.265,441.784 264.265,444.784 258.5,446.5 Z"/></g>
<g><path style="opacity:1" fill="#313131" d="M 211.5,444.5 C 227.145,445.396 242.812,446.063 258.5,446.5C 244.276,451.989 229.943,452.156 215.5,447C 214.142,446.066 212.808,445.232 211.5,444.5 Z"/></g>
<g><path style="opacity:1" fill="#2a2a2a" d="M 741.5,453.5 C 741.5,553.5 741.5,653.5 741.5,753.5C 707.167,753.5 672.833,753.5 638.5,753.5C 650.86,732.463 666.526,714.13 685.5,698.5C 702.103,671.628 714.603,642.961 723,612.5C 728.5,598.833 734,585.167 739.5,571.5C 739.043,570.702 738.376,570.369 737.5,570.5C 732.601,562.761 727.101,555.428 721,548.5C 714.891,539.284 709.558,529.617 705,519.5C 704.5,513.175 704.334,506.842 704.5,500.5C 713.471,482.195 725.804,466.528 741.5,453.5 Z"/></g>
<g><path style="opacity:1" fill="#131313" d="M 410.5,451.5 C 410.5,456.833 410.5,462.167 410.5,467.5C 412.833,467.5 415.167,467.5 417.5,467.5C 412.166,469.009 406.832,470.843 401.5,473C 397.723,475.955 396.557,479.788 398,484.5C 401.933,486.478 406.1,486.978 410.5,486C 416.13,483.185 421.797,480.351 427.5,477.5C 434.909,479.395 438.742,484.061 439,491.5C 427.97,502.254 416.47,512.421 404.5,522C 397.083,529.027 390.25,536.527 384,544.5C 377.774,553.287 373.441,562.954 371,573.5C 372.135,598.292 384.635,607.126 408.5,600C 427.358,588.975 442.358,574.142 453.5,555.5C 456.316,563.502 460.982,570.336 467.5,576C 482.16,584.07 497.827,586.904 514.5,584.5C 504.312,589.408 493.978,594.242 483.5,599C 455.274,609.279 426.94,619.279 398.5,629C 391.523,631.822 384.857,635.155 378.5,639C 353.046,647.596 327.046,653.93 300.5,658C 269.935,660.254 240.935,654.587 213.5,641C 208.043,637.375 203.043,633.209 198.5,628.5C 193.452,624.082 189.618,618.749 187,612.5C 185.332,598.8 183.832,585.134 182.5,571.5C 182.6,551.341 182.767,531.008 183,510.5C 190.546,491.121 204.713,479.955 225.5,477C 241.839,474.666 258.172,472.333 274.5,470C 283.895,467.202 293.228,464.202 302.5,461C 305.167,459 307.833,457 310.5,455C 311.793,454.51 313.127,454.343 314.5,454.5C 326.525,458.923 338.858,462.256 351.5,464.5C 354.251,466.975 357.584,467.975 361.5,467.5C 364.167,467.5 366.833,467.5 369.5,467.5C 372.187,467.664 374.854,467.497 377.5,467C 378.381,466.292 379.047,465.458 379.5,464.5C 390.766,462.303 401.1,457.969 410.5,451.5 Z"/></g>
<g><path style="opacity:1" fill="#b4b4b4" d="M 351.5,464.5 C 354.522,464.804 357.522,465.304 360.5,466C 361.056,466.383 361.389,466.883 361.5,467.5C 357.584,467.975 354.251,466.975 351.5,464.5 Z"/></g>
<g><path style="opacity:1" fill="#7c7c7c" d="M 379.5,464.5 C 379.047,465.458 378.381,466.292 377.5,467C 374.854,467.497 372.187,467.664 369.5,467.5C 372.886,466.865 376.22,465.865 379.5,464.5 Z"/></g>
<g><path style="opacity:1" fill="#171717" d="M 180.5,506.5 C 179.482,522.013 179.315,537.679 180,553.5C 176.988,542.128 172.988,531.128 168,520.5C 160.079,504.599 147.246,495.099 129.5,492C 135.478,490.451 141.145,488.118 146.5,485C 147.738,484.31 147.738,483.81 146.5,483.5C 151.597,480.238 155.931,476.071 159.5,471C 161.717,469.725 164.051,468.725 166.5,468C 170.865,466.541 173.865,467.874 175.5,472C 176.216,483.645 177.883,495.145 180.5,506.5 Z"/></g>
<g><path style="opacity:1" fill="#232323" d="M 29.5,510.5 C 23.3956,507.614 17.3956,504.447 11.5,501C 10.1667,500.333 8.83333,500.333 7.5,501C 8.25286,502.487 9.0862,502.654 10,501.5C 13.983,505.414 18.3163,509.748 23,514.5C 23.3333,514.167 23.6667,513.833 24,513.5C 25.5,515 27,516.5 28.5,518C 28.1667,518.333 27.8333,518.667 27.5,519C 40.623,530.677 49.7897,545.51 55,563.5C 54.4732,581.24 48.8066,597.24 38,611.5C 26.8435,625.163 14.0102,636.83 -0.5,646.5C -0.5,596.167 -0.5,545.833 -0.5,495.5C 0.14987,495.196 0.816537,494.863 1.5,494.5C 3.28568,496.021 5.11901,496.354 7,495.5C 8,496.5 9,497.5 10,498.5C 10.3333,498.167 10.6667,497.833 11,497.5C 14.5416,498.842 17.375,501.008 19.5,504C 21.8734,503.638 24.2068,504.305 26.5,506C 27.8333,506.667 27.8333,507.333 26.5,508C 28.2785,507.021 29.9452,507.354 31.5,509C 30.5842,509.278 29.9175,509.778 29.5,510.5 Z"/></g>
<g><path style="opacity:1" fill="#1b1b1b" d="M 704.5,500.5 C 704.334,506.842 704.5,513.175 705,519.5C 709.558,529.617 714.891,539.284 721,548.5C 727.101,555.428 732.601,562.761 737.5,570.5C 732.959,582.587 728.126,594.587 723,606.5C 714.76,639.927 700.76,670.594 681,698.5C 668.106,707.725 654.939,716.559 641.5,725C 636.833,729 632.167,733 627.5,737C 614.023,739.576 602.023,745.076 591.5,753.5C 590.5,753.5 589.5,753.5 588.5,753.5C 602.586,742.339 616.086,730.339 629,717.5C 639.802,700.01 649.802,682.01 659,663.5C 666.489,642.538 673.822,621.538 681,600.5C 688.928,574.415 693.594,547.749 695,520.5C 696.939,513.149 700.105,506.483 704.5,500.5 Z"/></g>
<g><path style="opacity:1" fill="#161616" d="M 29.5,510.5 C 31.0861,511.413 32.5861,511.413 34,510.5C 36.7344,511.362 36.9011,512.195 34.5,513C 36.8961,513.879 39.2294,514.546 41.5,515C 44.5281,517.376 47.3614,519.21 50,520.5C 51.487,521.253 51.6537,522.086 50.5,523C 53.9096,522.39 56.2429,523.89 57.5,527.5C 58.1667,527.167 58.8333,526.833 59.5,526.5C 62.4001,527.443 64.7334,529.11 66.5,531.5C 68.2237,530.339 69.8904,530.505 71.5,532C 70.3044,532.654 70.3044,533.154 71.5,533.5C 72.1667,533.167 72.8333,532.833 73.5,532.5C 74.5414,534.585 76.0414,536.252 78,537.5C 78.6172,536.551 78.4506,535.718 77.5,535C 82.8304,536.608 88.8304,539.274 95.5,543C 94.3266,546.11 94.8266,546.277 97,543.5C 100.93,544.969 101.097,546.136 97.5,547C 100.418,548.709 103.252,550.542 106,552.5C 107.583,550.007 109.083,550.174 110.5,553C 109.549,553.718 109.383,554.551 110,555.5C 111.583,553.007 113.083,553.174 114.5,556C 113.327,559.11 113.827,559.277 116,556.5C 117.167,557.667 118.333,558.833 119.5,560C 118.608,563.443 119.442,563.943 122,561.5C 126.628,568.164 132.295,574.497 139,580.5C 139.333,580.167 139.667,579.833 140,579.5C 142.167,581.667 144.333,583.833 146.5,586C 145.833,586.667 145.167,587.333 144.5,588C 146.09,589.046 147.59,590.213 149,591.5C 149.333,591.167 149.667,590.833 150,590.5C 151.5,592 153,593.5 154.5,595C 153.833,595.667 153.167,596.333 152.5,597C 153.891,598.65 155.391,599.15 157,598.5C 158.167,599.667 159.333,600.833 160.5,602C 159.167,603.84 159.334,604.34 161,603.5C 164.551,608.697 169.385,613.197 175.5,617C 174.833,617.333 174.167,617.667 173.5,618C 174.76,619.113 175.927,619.28 177,618.5C 178.204,619.471 178.704,620.471 178.5,621.5C 179.086,621.291 179.586,620.957 180,620.5C 183.261,623.216 186.428,626.049 189.5,629C 188.66,630.666 189.16,630.833 191,629.5C 192.758,630.469 193.258,631.636 192.5,633C 193.876,635.543 195.043,635.709 196,633.5C 196.824,634.808 197.324,636.308 197.5,638C 199.402,639.651 201.402,639.984 203.5,639C 203.833,639.333 204.167,639.667 204.5,640C 203.692,640.308 203.025,640.808 202.5,641.5C 205.646,643.812 208.646,646.312 211.5,649C 212.965,649.601 213.965,649.101 214.5,647.5C 212.5,646.167 210.5,644.833 208.5,643.5C 208.624,642.893 208.957,642.56 209.5,642.5C 212.995,644.002 215.829,646.335 218,649.5C 218.333,649.167 218.667,648.833 219,648.5C 233.314,657.807 248.814,666.141 265.5,673.5C 266.197,675.385 267.197,675.718 268.5,674.5C 270.134,674.968 271.3,675.968 272,677.5C 274.19,676.416 275.856,677.083 277,679.5C 279.19,678.416 280.856,679.083 282,681.5C 284.373,680.457 286.54,680.79 288.5,682.5C 289.087,683.767 289.087,684.767 288.5,685.5C 267.3,678.067 246.966,668.733 227.5,657.5C 226.167,658.5 226.167,659.5 227.5,660.5C 228.086,660.291 228.586,659.957 229,659.5C 229.923,660.759 230.757,662.092 231.5,663.5C 232.086,663.291 232.586,662.957 233,662.5C 233.284,664.886 234.284,665.552 236,664.5C 236.284,666.886 237.284,667.552 239,666.5C 239.284,668.886 240.284,669.552 242,668.5C 242.513,670.521 243.68,672.021 245.5,673C 246.449,673.617 247.282,673.451 248,672.5C 248.359,675.544 249.026,675.878 250,673.5C 251.63,675.206 253.13,676.873 254.5,678.5C 255.086,678.291 255.586,677.957 256,677.5C 256.631,680.641 258.298,681.641 261,680.5C 261.249,681.624 261.749,682.624 262.5,683.5C 267.082,686.041 271.582,688.707 276,691.5C 276.333,690.833 276.667,690.167 277,689.5C 278.918,690.542 280.751,691.708 282.5,693C 282.167,693.333 281.833,693.667 281.5,694C 286.078,696.289 291.078,698.789 296.5,701.5C 297.167,701.167 297.833,700.833 298.5,700.5C 304.797,705.567 311.964,709.233 320,711.5C 320.873,711.265 321.707,710.931 322.5,710.5C 323.197,712.385 324.197,712.718 325.5,711.5C 326.95,712.85 327.617,714.516 327.5,716.5C 309.133,710.407 290.467,705.241 271.5,701C 245.92,696.118 220.586,690.285 195.5,683.5C 181.785,678.063 167.785,672.23 153.5,666C 125.613,648.521 101.447,626.688 81,600.5C 72.4847,587.3 64.1514,573.966 56,560.5C 56.5675,566.089 56.5675,571.756 56,577.5C 49.7635,598.484 38.5968,616.318 22.5,631C 15.241,637.433 7.57429,643.266 -0.5,648.5C -0.5,647.833 -0.5,647.167 -0.5,646.5C 14.0102,636.83 26.8435,625.163 38,611.5C 48.8066,597.24 54.4732,581.24 55,563.5C 49.7897,545.51 40.623,530.677 27.5,519C 27.8333,518.667 28.1667,518.333 28.5,518C 27,516.5 25.5,515 24,513.5C 23.6667,513.833 23.3333,514.167 23,514.5C 18.3163,509.748 13.983,505.414 10,501.5C 9.0862,502.654 8.25286,502.487 7.5,501C 8.83333,500.333 10.1667,500.333 11.5,501C 17.3956,504.447 23.3956,507.614 29.5,510.5 Z"/></g>
<g><path style="opacity:1" fill="#111111" d="M 741.5,426.5 C 741.5,435.5 741.5,444.5 741.5,453.5C 725.804,466.528 713.471,482.195 704.5,500.5C 700.105,506.483 696.939,513.149 695,520.5C 693.594,547.749 688.928,574.415 681,600.5C 673.822,621.538 666.489,642.538 659,663.5C 649.802,682.01 639.802,700.01 629,717.5C 616.086,730.339 602.586,742.339 588.5,753.5C 557.5,753.5 526.5,753.5 495.5,753.5C 502.234,732.798 509.067,712.131 516,691.5C 523.806,678.361 534.306,667.861 547.5,660C 563.958,651.937 580.292,643.604 596.5,635C 599.333,632.167 602.167,629.333 605,626.5C 615.742,611.754 627.242,597.587 639.5,584C 649.5,577 659.5,570 669.5,563C 688.222,542.501 696.389,518.335 694,490.5C 695.022,485.744 696.356,481.077 698,476.5C 707.712,455.625 722.212,438.958 741.5,426.5 Z"/></g>
<g><path style="opacity:1" fill="#151515" d="M 437.5,506.5 C 438.5,506.5 439.5,506.5 440.5,506.5C 439.301,537.28 428.968,564.447 409.5,588C 404.109,593.02 397.775,595.02 390.5,594C 384.829,589.47 382.996,583.637 385,576.5C 392.737,557.353 403.737,540.353 418,525.5C 424.395,518.937 430.895,512.603 437.5,506.5 Z"/></g>
<g><path style="opacity:1" fill="#2d2d2d" d="M 288.5,682.5 C 286.54,680.79 284.373,680.457 282,681.5C 280.856,679.083 279.19,678.416 277,679.5C 275.856,677.083 274.19,676.416 272,677.5C 271.3,675.968 270.134,674.968 268.5,674.5C 267.197,675.718 266.197,675.385 265.5,673.5C 248.814,666.141 233.314,657.807 219,648.5C 218.667,648.833 218.333,649.167 218,649.5C 215.829,646.335 212.995,644.002 209.5,642.5C 206.871,639.369 204.038,636.369 201,633.5C 199.906,631.922 199.072,630.255 198.5,628.5C 203.043,633.209 208.043,637.375 213.5,641C 240.935,654.587 269.935,660.254 300.5,658C 327.046,653.93 353.046,647.596 378.5,639C 384.857,635.155 391.523,631.822 398.5,629C 426.94,619.279 455.274,609.279 483.5,599C 493.978,594.242 504.312,589.408 514.5,584.5C 543.29,569.562 567.79,549.229 588,523.5C 587.956,525.279 587.289,526.945 586,528.5C 571.333,549.833 556.667,571.167 542,592.5C 524.463,614.37 504.63,633.87 482.5,651C 456.201,668.643 429.201,684.976 401.5,700C 392.006,703.898 382.34,704.732 372.5,702.5C 371.833,702.833 371.167,703.167 370.5,703.5C 370.891,702.282 370.224,701.448 368.5,701C 366.48,699.783 364.48,699.617 362.5,700.5C 362.167,699.833 361.833,699.167 361.5,698.5C 360.197,699.718 359.197,699.385 358.5,697.5C 357.002,697.166 355.335,697.166 353.5,697.5C 353.167,696.833 352.833,696.167 352.5,695.5C 351.833,695.833 351.167,696.167 350.5,696.5C 348.598,695.446 346.765,694.446 345,693.5C 344.127,693.735 343.293,694.069 342.5,694.5C 340.321,692.314 337.821,691.981 335,693.5C 332.146,691.481 329.146,691.148 326,692.5C 324.05,690.429 321.883,690.095 319.5,691.5C 317.792,689.309 315.792,688.976 313.5,690.5C 312.497,688.458 311.163,688.125 309.5,689.5C 308.304,689.154 308.304,688.654 309.5,688C 306.312,687.245 303.145,686.411 300,685.5C 298.144,685.246 296.144,685.246 294,685.5C 292.826,683.329 290.993,682.329 288.5,682.5 Z"/></g>
<g><path style="opacity:1" fill="#1c1c1c" d="M 195.5,683.5 C 204.951,689.654 214.617,696.488 224.5,704C 211.977,698.772 198.977,694.605 185.5,691.5C 182.065,692.384 178.732,693.551 175.5,695C 150.005,708.662 130.338,728.162 116.5,753.5C 77.5,753.5 38.5,753.5 -0.5,753.5C -0.5,718.5 -0.5,683.5 -0.5,648.5C 7.57429,643.266 15.241,637.433 22.5,631C 38.5968,616.318 49.7635,598.484 56,577.5C 56.5675,571.756 56.5675,566.089 56,560.5C 64.1514,573.966 72.4847,587.3 81,600.5C 101.447,626.688 125.613,648.521 153.5,666C 167.785,672.23 181.785,678.063 195.5,683.5 Z"/></g>
<g><path style="opacity:1" fill="#0c0c0c" d="M 213.5,563.5 C 220.664,563.69 227.664,564.857 234.5,567C 253.899,575.777 271.733,586.943 288,600.5C 291.863,604.912 293.363,609.912 292.5,615.5C 280.473,627.675 265.807,634.175 248.5,635C 227.652,637.16 209.152,631.66 193,618.5C 191.078,615.83 189.912,612.83 189.5,609.5C 190.356,598.34 192.19,587.34 195,576.5C 198.942,568.796 205.108,564.463 213.5,563.5 Z"/></g>
<g><path style="opacity:1" fill="#202020" d="M 737.5,570.5 C 738.376,570.369 739.043,570.702 739.5,571.5C 734,585.167 728.5,598.833 723,612.5C 714.603,642.961 702.103,671.628 685.5,698.5C 666.526,714.13 650.86,732.463 638.5,753.5C 622.833,753.5 607.167,753.5 591.5,753.5C 602.023,745.076 614.023,739.576 627.5,737C 632.167,733 636.833,729 641.5,725C 654.939,716.559 668.106,707.725 681,698.5C 700.76,670.594 714.76,639.927 723,606.5C 728.126,594.587 732.959,582.587 737.5,570.5 Z"/></g>
</svg>
