<?xml version="1.0" encoding="UTF-8"?>
<!DOCTYPE svg PUBLIC "-//W3C//DTD SVG 1.1//EN" "http://www.w3.org/Graphics/SVG/1.1/DTD/svg11.dtd">
<svg xmlns="http://www.w3.org/2000/svg" version="1.1" width="512px" height="512px" style="shape-rendering:geometricPrecision; text-rendering:geometricPrecision; image-rendering:optimizeQuality; fill-rule:evenodd; clip-rule:evenodd" xmlns:xlink="http://www.w3.org/1999/xlink">
<g><path style="opacity:1" fill="#392aab" d="M 204.5,49.5 C 235.833,49.5 267.167,49.5 298.5,49.5C 301.324,52.4652 304.657,54.9652 308.5,57C 300.89,55.8548 293.557,56.6882 286.5,59.5C 264.171,63.8287 250.838,77.1621 246.5,99.5C 245.732,98.7375 245.232,97.7375 245,96.5C 241.907,103.023 238.573,109.356 235,115.5C 229.18,122.287 223.013,128.787 216.5,135C 208.776,141.446 199.943,145.28 190,146.5C 168.067,143.425 146.234,143.925 124.5,148C 114.822,151.36 105.155,154.36 95.5,157C 105.89,151.806 115.223,145.139 123.5,137C 130.992,131.42 138.659,126.087 146.5,121C 152.275,118.075 158.275,115.742 164.5,114C 171.105,111.119 177.272,107.619 183,103.5C 184.806,98.622 185.473,93.622 185,88.5C 174.007,79.5126 165.673,68.5126 160,55.5C 159.506,53.8659 159.34,52.1992 159.5,50.5C 174.676,50.8294 189.676,50.4961 204.5,49.5 Z"/></g>
<g><path style="opacity:1" fill="#543cb5" d="M 204.5,49.5 C 189.676,50.4961 174.676,50.8294 159.5,50.5C 155.894,50.2108 152.394,50.5442 149,51.5C 145.098,65.5706 139.098,78.5706 131,90.5C 118.998,106.335 105.165,120.335 89.5,132.5C 89.44,131.957 89.1067,131.624 88.5,131.5C 86.5171,132.982 84.6837,134.649 83,136.5C 86.8045,128.612 90.8045,120.612 95,112.5C 96.244,109.436 97.0773,106.269 97.5,103C 95.4152,90.4993 93.4152,77.9993 91.5,65.5C 100.79,59.5214 110.79,55.1881 121.5,52.5C 127.389,51.2093 133.389,50.376 139.5,50C 161.164,49.5 182.831,49.3334 204.5,49.5 Z"/></g>
<g><path style="opacity:1" fill="#5e32bf" d="M 356.5,50.5 C 361.666,53.2484 366.666,56.2484 371.5,59.5C 382.328,70.3167 391.995,81.9834 400.5,94.5C 404.185,101.707 407.185,109.207 409.5,117C 409.333,117.5 409.167,118 409,118.5C 407.887,117.695 406.721,117.028 405.5,116.5C 402.585,111.026 398.918,106.026 394.5,101.5C 394.089,102.262 393.923,103.262 394,104.5C 392.5,103 391,101.5 389.5,100C 390.167,99.6667 390.833,99.3333 391.5,99C 375.2,83.2153 355.867,72.8819 333.5,68C 322.803,63.0923 312.47,57.4257 302.5,51C 320.497,50.5001 338.497,50.3334 356.5,50.5 Z"/></g>
<g><path style="opacity:1" fill="#7b4ec5" d="M 356.5,50.5 C 356.5,50.1667 356.5,49.8333 356.5,49.5C 367.754,49.2718 378.754,50.2718 389.5,52.5C 400.457,55.4888 411.123,59.4888 421.5,64.5C 421.5,64.8333 421.5,65.1667 421.5,65.5C 426.543,71.929 429.709,79.2624 431,87.5C 431.407,101.171 431.24,114.838 430.5,128.5C 430.87,134.925 430.37,141.258 429,147.5C 419.356,131.88 411.023,115.546 404,98.5C 403.051,96.9069 401.885,95.5736 400.5,94.5C 393.647,81.4616 384.647,69.9616 373.5,60C 372.906,59.5357 372.239,59.369 371.5,59.5C 366.666,56.2484 361.666,53.2484 356.5,50.5 Z"/></g>
<g><path style="opacity:1" fill="#6c47bf" d="M 298.5,49.5 C 317.833,49.5 337.167,49.5 356.5,49.5C 356.5,49.8333 356.5,50.1667 356.5,50.5C 338.497,50.3334 320.497,50.5001 302.5,51C 312.47,57.4257 322.803,63.0923 333.5,68C 355.867,72.8819 375.2,83.2153 391.5,99C 390.833,99.3333 390.167,99.6667 389.5,100C 391,101.5 392.5,103 394,104.5C 393.923,103.262 394.089,102.262 394.5,101.5C 398.918,106.026 402.585,111.026 405.5,116.5C 405.901,120.07 407.901,122.236 411.5,123C 410.5,124 409.5,125 408.5,126C 412.089,132.352 414.089,139.185 414.5,146.5C 412.592,158.06 409.758,169.393 406,180.5C 402.253,199.71 403.086,218.71 408.5,237.5C 408.154,238.696 407.654,238.696 407,237.5C 401.646,222.599 395.813,207.932 389.5,193.5C 384.873,179.328 380.706,164.995 377,150.5C 371.836,140.834 366.169,131.5 360,122.5C 343.209,102.708 325.709,83.5417 307.5,65C 301.01,61.4683 294.01,59.6349 286.5,59.5C 293.557,56.6882 300.89,55.8548 308.5,57C 304.657,54.9652 301.324,52.4652 298.5,49.5 Z"/></g>
<g><path style="opacity:0.463" fill="#7a60a5" d="M 389.5,52.5 C 401.306,53.7474 411.972,57.7474 421.5,64.5C 411.123,59.4888 400.457,55.4888 389.5,52.5 Z"/></g>
<g><path style="opacity:0.749" fill="#6b5aa4" d="M 121.5,52.5 C 110.79,55.1881 100.79,59.5214 91.5,65.5C 89.1495,66.8611 86.8162,68.1944 84.5,69.5C 85.1667,68.5 85.8333,67.5 86.5,66.5C 96.7983,58.7268 108.465,54.0602 121.5,52.5 Z"/></g>
<g><path style="opacity:1" fill="#5740ab" d="M 371.5,59.5 C 372.239,59.369 372.906,59.5357 373.5,60C 384.647,69.9616 393.647,81.4616 400.5,94.5C 391.995,81.9834 382.328,70.3167 371.5,59.5 Z"/></g>
<g><path style="opacity:1" fill="#744dc2" d="M 286.5,59.5 C 294.01,59.6349 301.01,61.4683 307.5,65C 325.709,83.5417 343.209,102.708 360,122.5C 366.169,131.5 371.836,140.834 377,150.5C 380.706,164.995 384.873,179.328 389.5,193.5C 382.425,179.014 375.592,164.347 369,149.5C 355.062,137.564 341.728,124.897 329,111.5C 328.333,112.167 328.333,112.833 329,113.5C 341.395,126.564 354.395,138.897 368,150.5C 370.568,154.612 372.235,158.945 373,163.5C 370.171,153.85 364.338,146.85 355.5,142.5C 345.228,132.058 335.061,121.391 325,110.5C 320.216,98.2643 314.883,86.2643 309,74.5C 304.944,68.221 299.111,65.221 291.5,65.5C 279.492,66.8382 273.492,73.5049 273.5,85.5C 274.933,93.9723 276.266,102.472 277.5,111C 276.81,116.235 275.81,121.401 274.5,126.5C 262.855,127.659 253.521,132.993 246.5,142.5C 245.376,133.892 244.71,125.225 244.5,116.5C 245.365,110.996 246.032,105.329 246.5,99.5C 250.838,77.1621 264.171,63.8287 286.5,59.5 Z"/></g>
<g><path style="opacity:1" fill="#6946bd" d="M 91.5,65.5 C 93.4152,77.9993 95.4152,90.4993 97.5,103C 97.0773,106.269 96.244,109.436 95,112.5C 90.8045,120.612 86.8045,128.612 83,136.5C 84.6837,134.649 86.5171,132.982 88.5,131.5C 89.1067,131.624 89.44,131.957 89.5,132.5C 82.1115,138.391 75.9448,145.391 71,153.5C 64.868,160.476 58.0347,166.476 50.5,171.5C 50.5,165.833 50.5,160.167 50.5,154.5C 61.5415,141.442 71.3749,127.442 80,112.5C 82.038,101.43 81.538,90.4298 78.5,79.5C 78.3601,77.9704 77.6935,76.9704 76.5,76.5C 78.5491,73.4503 81.2157,71.117 84.5,69.5C 86.8162,68.1944 89.1495,66.8611 91.5,65.5 Z"/></g>
<g><path style="opacity:1" fill="#402ead" d="M 355.5,142.5 C 348.338,137.522 341.004,132.689 333.5,128C 325.907,123.48 317.907,122.48 309.5,125C 305.445,129.03 301.779,133.196 298.5,137.5C 292.571,129.221 284.571,125.554 274.5,126.5C 275.81,121.401 276.81,116.235 277.5,111C 276.266,102.472 274.933,93.9723 273.5,85.5C 273.492,73.5049 279.492,66.8382 291.5,65.5C 299.111,65.221 304.944,68.221 309,74.5C 314.883,86.2643 320.216,98.2643 325,110.5C 335.061,121.391 345.228,132.058 355.5,142.5 Z"/></g>
<g><path style="opacity:0.036" fill="#311b61" d="M 86.5,66.5 C 85.8333,67.5 85.1667,68.5 84.5,69.5C 81.2157,71.117 78.5491,73.4503 76.5,76.5C 59.0938,94.0178 50.4272,115.351 50.5,140.5C 49.5119,145.64 49.1786,150.974 49.5,156.5C 47.8333,158.5 46.1667,160.5 44.5,162.5C 43.8302,142.183 46.9968,122.516 54,103.5C 60.5659,89.9333 69.7326,78.4333 81.5,69C 83.0779,67.9055 84.7446,67.0722 86.5,66.5 Z"/></g>
<g><path style="opacity:1" fill="#6136bf" d="M 76.5,76.5 C 77.6935,76.9704 78.3601,77.9704 78.5,79.5C 81.538,90.4298 82.038,101.43 80,112.5C 71.3749,127.442 61.5415,141.442 50.5,154.5C 50.5,149.833 50.5,145.167 50.5,140.5C 50.4272,115.351 59.0938,94.0178 76.5,76.5 Z"/></g>
<g><path style="opacity:1" fill="#402eae" d="M 159.5,50.5 C 159.34,52.1992 159.506,53.8659 160,55.5C 165.673,68.5126 174.007,79.5126 185,88.5C 185.473,93.622 184.806,98.622 183,103.5C 177.272,107.619 171.105,111.119 164.5,114C 158.275,115.742 152.275,118.075 146.5,121C 138.659,126.087 130.992,131.42 123.5,137C 115.223,145.139 105.89,151.806 95.5,157C 105.155,154.36 114.822,151.36 124.5,148C 146.234,143.925 168.067,143.425 190,146.5C 199.943,145.28 208.776,141.446 216.5,135C 223.013,128.787 229.18,122.287 235,115.5C 238.573,109.356 241.907,103.023 245,96.5C 245.232,97.7375 245.732,98.7375 246.5,99.5C 246.032,105.329 245.365,110.996 244.5,116.5C 242.526,120.668 240.693,125.001 239,129.5C 236.263,141.779 232.597,153.779 228,165.5C 226.577,173.814 225.41,182.147 224.5,190.5C 223.361,193.004 222.694,195.67 222.5,198.5C 220.446,201.008 219.446,204.008 219.5,207.5C 219.59,210.152 218.924,212.485 217.5,214.5C 207.371,222.958 197.704,222.458 188.5,213C 181.512,209.677 174.846,206.177 168.5,202.5C 168.993,200.194 169.326,197.861 169.5,195.5C 170.459,192.248 171.959,189.248 174,186.5C 179.565,181.024 184.898,175.358 190,169.5C 190.494,167.866 190.66,166.199 190.5,164.5C 187.696,163.362 184.696,163.195 181.5,164C 180.944,164.383 180.611,164.883 180.5,165.5C 166.301,171.698 155.634,181.698 148.5,195.5C 147.463,196.93 146.796,198.597 146.5,200.5C 134.71,191.1 122.71,181.933 110.5,173C 99.4469,165.753 87.4469,163.086 74.5,165C 76.5951,164.444 76.7618,163.944 75,163.5C 66.8702,166.566 58.8702,169.9 51,173.5C 50.5357,172.906 50.369,172.239 50.5,171.5C 58.0347,166.476 64.868,160.476 71,153.5C 75.9448,145.391 82.1115,138.391 89.5,132.5C 105.165,120.335 118.998,106.335 131,90.5C 139.098,78.5706 145.098,65.5706 149,51.5C 152.394,50.5442 155.894,50.2108 159.5,50.5 Z"/></g>
<g><path style="opacity:0.082" fill="#2b2056" d="M 421.5,65.5 C 421.5,65.1667 421.5,64.8333 421.5,64.5C 444.771,78.3051 458.938,98.6384 464,125.5C 464.74,131.158 465.406,136.825 466,142.5C 466.5,186.165 466.667,229.832 466.5,273.5C 464.94,267.808 463.273,262.141 461.5,256.5C 461.5,255.833 461.5,255.167 461.5,254.5C 461.5,253.167 461.5,251.833 461.5,250.5C 461.5,229.833 461.5,209.167 461.5,188.5C 461.667,171.163 461.5,153.83 461,136.5C 460.355,128.625 458.855,120.958 456.5,113.5C 450.917,92.9375 439.25,76.9375 421.5,65.5 Z"/></g>
<g><path style="opacity:1" fill="#5c42af" d="M 456.5,113.5 C 458.855,120.958 460.355,128.625 461,136.5C 461.5,153.83 461.667,171.163 461.5,188.5C 451.963,178.102 444.129,166.435 438,153.5C 436.861,137.608 442.027,124.108 453.5,113C 454.577,112.53 455.577,112.697 456.5,113.5 Z"/></g>
<g><path style="opacity:1" fill="#5a3db4" d="M 244.5,116.5 C 244.71,125.225 245.376,133.892 246.5,142.5C 236.105,156.486 229.272,172.152 226,189.5C 225.617,190.056 225.117,190.389 224.5,190.5C 225.41,182.147 226.577,173.814 228,165.5C 232.597,153.779 236.263,141.779 239,129.5C 240.693,125.001 242.526,120.668 244.5,116.5 Z"/></g>
<g><path style="opacity:1" fill="#7a4fc4" d="M 355.5,142.5 C 358.83,145.933 362.33,149.266 366,152.5C 377.755,177.504 389.588,202.337 401.5,227C 407.387,246.972 413.387,266.639 419.5,286C 418.273,287.587 418.606,288.921 420.5,290C 419.902,293.906 420.568,297.739 422.5,301.5C 420.212,305.295 419.879,309.295 421.5,313.5C 419.521,324.123 415.855,334.123 410.5,343.5C 411.025,344.192 411.692,344.692 412.5,345C 411.257,346.154 410.257,347.488 409.5,349C 410.094,349.464 410.761,349.631 411.5,349.5C 411.167,350.167 410.833,350.833 410.5,351.5C 409.325,351.281 408.325,351.614 407.5,352.5C 400.774,365.95 394.607,379.616 389,393.5C 383.41,404.944 377.077,415.944 370,426.5C 369.472,427.816 369.972,428.483 371.5,428.5C 367.806,433.361 364.306,438.361 361,443.5C 355.715,449.953 349.882,455.953 343.5,461.5C 343.167,461.5 342.833,461.5 342.5,461.5C 329.167,461.5 315.833,461.5 302.5,461.5C 314.607,453.604 326.607,445.437 338.5,437C 349.333,427.5 359.5,417.333 369,406.5C 380,390.5 391,374.5 402,358.5C 402.667,357.833 402.667,357.167 402,356.5C 388.18,374.625 371.013,388.291 350.5,397.5C 343.273,397.146 336.273,396.146 329.5,394.5C 338.279,395.352 346.613,393.852 354.5,390C 377.9,368.682 388.066,342.182 385,310.5C 382.74,292.084 380.073,273.751 377,255.5C 368.589,237.747 357.756,221.581 344.5,207C 331.22,199.388 318.22,199.721 305.5,208C 294.102,217.554 284.769,228.72 277.5,241.5C 277.389,240.883 277.056,240.383 276.5,240C 277.914,238.007 278.914,235.84 279.5,233.5C 283.09,226.121 285.59,218.454 287,210.5C 286.586,210.043 286.086,209.709 285.5,209.5C 283.056,224.439 275.556,236.106 263,244.5C 264.996,240.187 267.329,235.854 270,231.5C 269.984,227.205 270.817,223.205 272.5,219.5C 276.797,214.702 281.297,210.035 286,205.5C 290.149,200.532 293.649,195.198 296.5,189.5C 298.897,186.691 300.23,183.358 300.5,179.5C 301.935,172.385 302.602,165.052 302.5,157.5C 302.492,152.778 301.825,148.445 300.5,144.5C 299.833,142.167 299.167,139.833 298.5,137.5C 301.779,133.196 305.445,129.03 309.5,125C 317.907,122.48 325.907,123.48 333.5,128C 341.004,132.689 348.338,137.522 355.5,142.5 Z"/></g>
<g><path style="opacity:1" fill="#6644bc" d="M 400.5,94.5 C 401.885,95.5736 403.051,96.9069 404,98.5C 411.023,115.546 419.356,131.88 429,147.5C 430.37,141.258 430.87,134.925 430.5,128.5C 431.256,136.722 431.589,145.055 431.5,153.5C 430.833,154.167 430.167,154.833 429.5,155.5C 429.846,156.696 430.346,156.696 431,155.5C 431.444,162.551 432.277,169.551 433.5,176.5C 433.849,189.615 436.682,202.615 442,215.5C 448.514,227.197 455.014,238.864 461.5,250.5C 461.5,251.833 461.5,253.167 461.5,254.5C 454.631,241.101 447.464,227.767 440,214.5C 440.278,218.139 440.278,221.806 440,225.5C 439.465,223.729 438.631,223.396 437.5,224.5C 438.263,225.719 439.263,226.719 440.5,227.5C 439.559,227.489 438.892,227.989 438.5,229C 442.605,232.851 443.939,237.518 442.5,243C 444.004,244.491 444.837,246.324 445,248.5C 445.48,257.177 445.313,265.844 444.5,274.5C 443.325,274.281 442.325,274.614 441.5,275.5C 445.73,277.457 445.396,279.624 440.5,282C 441.672,282.419 442.672,283.085 443.5,284C 437.46,308.243 426.794,330.077 411.5,349.5C 410.761,349.631 410.094,349.464 409.5,349C 410.257,347.488 411.257,346.154 412.5,345C 411.692,344.692 411.025,344.192 410.5,343.5C 415.855,334.123 419.521,324.123 421.5,313.5C 419.879,309.295 420.212,305.295 422.5,301.5C 420.568,297.739 419.902,293.906 420.5,290C 418.606,288.921 418.273,287.587 419.5,286C 413.387,266.639 407.387,246.972 401.5,227C 389.588,202.337 377.755,177.504 366,152.5C 362.33,149.266 358.83,145.933 355.5,142.5C 364.338,146.85 370.171,153.85 373,163.5C 372.235,158.945 370.568,154.612 368,150.5C 354.395,138.897 341.395,126.564 329,113.5C 328.333,112.833 328.333,112.167 329,111.5C 341.728,124.897 355.062,137.564 369,149.5C 375.592,164.347 382.425,179.014 389.5,193.5C 395.813,207.932 401.646,222.599 407,237.5C 407.654,238.696 408.154,238.696 408.5,237.5C 403.086,218.71 402.253,199.71 406,180.5C 409.758,169.393 412.592,158.06 414.5,146.5C 414.089,139.185 412.089,132.352 408.5,126C 409.5,125 410.5,124 411.5,123C 407.901,122.236 405.901,120.07 405.5,116.5C 406.721,117.028 407.887,117.695 409,118.5C 409.167,118 409.333,117.5 409.5,117C 407.185,109.207 404.185,101.707 400.5,94.5 Z"/></g>
<g><path style="opacity:1" fill="#030106" d="M 274.5,126.5 C 284.571,125.554 292.571,129.221 298.5,137.5C 299.167,139.833 299.833,142.167 300.5,144.5C 300.5,156.167 300.5,167.833 300.5,179.5C 298.6,182.518 297.267,185.851 296.5,189.5C 293.649,195.198 290.149,200.532 286,205.5C 281.297,210.035 276.797,214.702 272.5,219.5C 262.34,226.811 252.007,233.978 241.5,241C 240.748,241.671 240.414,242.504 240.5,243.5C 238.935,245.509 237.935,247.843 237.5,250.5C 234.257,257.558 231.59,264.891 229.5,272.5C 226.528,277.194 224.195,282.36 222.5,288C 223.531,290.692 225.531,292.192 228.5,292.5C 230.509,294.065 232.843,295.065 235.5,295.5C 237.05,296.441 238.716,297.107 240.5,297.5C 242.936,298.871 245.603,299.871 248.5,300.5C 250.558,301.933 252.892,302.6 255.5,302.5C 260.015,303.812 264.682,303.812 269.5,302.5C 269.376,301.893 269.043,301.56 268.5,301.5C 265.413,299.579 263.246,296.913 262,293.5C 260.101,278.338 265.268,266.338 277.5,257.5C 289.154,248.549 302.154,246.049 316.5,250C 332.406,257.699 336.906,269.865 330,286.5C 328.254,290.327 326.254,293.993 324,297.5C 317.292,304.375 310.459,311.042 303.5,317.5C 307.5,320.5 311.5,323.5 315.5,326.5C 321.519,322.655 327.852,319.655 334.5,317.5C 334.714,319.144 334.38,320.644 333.5,322C 328.239,324.545 323.406,327.712 319,331.5C 320.535,339.952 320.868,348.619 320,357.5C 317.826,364.545 314.993,371.212 311.5,377.5C 304.406,389.095 295.072,398.595 283.5,406C 277.693,408.318 271.693,408.984 265.5,408C 256.423,401.258 253.923,392.424 258,381.5C 265.137,368.196 274.637,356.862 286.5,347.5C 292.638,343.196 297.971,338.029 302.5,332C 298.659,322.548 293.326,321.381 286.5,328.5C 282.275,329.556 278.109,329.556 274,328.5C 273.628,322.689 276.461,319.356 282.5,318.5C 286.583,317.646 290.583,316.479 294.5,315C 311.461,301.913 318.627,284.746 316,263.5C 308.652,251.829 298.819,249.329 286.5,256C 282.62,258.379 279.62,261.546 277.5,265.5C 271.808,271.308 269.974,278.308 272,286.5C 275.127,292.186 279.627,293.852 285.5,291.5C 290.548,287.082 294.382,281.749 297,275.5C 298.011,274.663 299.178,274.33 300.5,274.5C 300.343,283.136 297.51,290.802 292,297.5C 288.472,300.169 285.305,303.169 282.5,306.5C 277.114,309.193 271.781,311.86 266.5,314.5C 256.382,317.447 246.382,317.114 236.5,313.5C 232.514,312.511 228.514,311.511 224.5,310.5C 222.491,308.935 220.157,307.935 217.5,307.5C 217.167,307.5 216.833,307.5 216.5,307.5C 214.75,306.13 212.75,305.13 210.5,304.5C 209.054,303.387 207.387,303.22 205.5,304C 203.382,305.082 201.382,306.249 199.5,307.5C 193.421,309.986 187.421,312.319 181.5,314.5C 179.585,314.216 177.919,314.549 176.5,315.5C 167.345,315.715 158.345,314.715 149.5,312.5C 138.995,308.505 134.329,300.839 135.5,289.5C 139.02,284.818 143.353,280.984 148.5,278C 158.1,276.609 167.767,276.109 177.5,276.5C 181.744,277.783 186.078,278.783 190.5,279.5C 191.78,280.931 193.447,281.598 195.5,281.5C 195.833,281.5 196.167,281.5 196.5,281.5C 197.772,282.434 199.272,283.101 201,283.5C 202.301,283.361 203.134,282.695 203.5,281.5C 204.918,278.939 205.918,276.272 206.5,273.5C 207.612,271.401 208.279,269.067 208.5,266.5C 208.263,265.209 208.596,264.209 209.5,263.5C 210.954,260.282 211.621,256.782 211.5,253C 211.496,250.639 211.163,248.473 210.5,246.5C 202.833,245.833 195.167,245.167 187.5,244.5C 183.702,243.132 179.702,242.132 175.5,241.5C 164.918,239.05 156.585,233.383 150.5,224.5C 148.095,218.075 146.762,211.409 146.5,204.5C 146.5,204.167 146.5,203.833 146.5,203.5C 147.768,201.095 148.435,198.428 148.5,195.5C 155.634,181.698 166.301,171.698 180.5,165.5C 183.764,164.676 187.098,164.342 190.5,164.5C 190.66,166.199 190.494,167.866 190,169.5C 184.898,175.358 179.565,181.024 174,186.5C 171.959,189.248 170.459,192.248 169.5,195.5C 168.59,197.019 167.757,198.685 167,200.5C 166.185,205.352 166.352,210.019 167.5,214.5C 173.125,233.252 185.792,241.419 205.5,239C 209.399,234.698 212.399,229.864 214.5,224.5C 215.537,223.07 216.204,221.403 216.5,219.5C 216.629,217.784 216.962,216.117 217.5,214.5C 218.924,212.485 219.59,210.152 219.5,207.5C 220.946,204.746 221.946,201.746 222.5,198.5C 222.694,195.67 223.361,193.004 224.5,190.5C 225.117,190.389 225.617,190.056 226,189.5C 229.272,172.152 236.105,156.486 246.5,142.5C 253.521,132.993 262.855,127.659 274.5,126.5 Z"/></g>
<g><path style="opacity:1" fill="#3f2daa" d="M 282.5,187.5 C 282.481,185.94 282.148,184.44 281.5,183C 281.905,182.055 282.572,181.388 283.5,181C 279.338,173.169 275.838,165.002 273,156.5C 272.5,149.842 272.334,143.175 272.5,136.5C 281.819,133.68 287.986,137.014 291,146.5C 293.177,161.402 290.344,175.069 282.5,187.5 Z"/></g>
<g><path style="opacity:1" fill="#734cc0" d="M 272.5,136.5 C 272.334,143.175 272.5,149.842 273,156.5C 275.838,165.002 279.338,173.169 283.5,181C 282.572,181.388 281.905,182.055 281.5,183C 282.148,184.44 282.481,185.94 282.5,187.5C 278.414,194.007 274.08,200.34 269.5,206.5C 266.556,193.273 261.389,180.94 254,169.5C 253.505,167.527 253.338,165.527 253.5,163.5C 255.276,156.278 258.442,149.611 263,143.5C 265.781,140.538 268.948,138.204 272.5,136.5 Z"/></g>
<g><path style="opacity:1" fill="#4b3aa2" d="M 421.5,65.5 C 439.25,76.9375 450.917,92.9375 456.5,113.5C 455.577,112.697 454.577,112.53 453.5,113C 442.027,124.108 436.861,137.608 438,153.5C 444.129,166.435 451.963,178.102 461.5,188.5C 461.5,209.167 461.5,229.833 461.5,250.5C 455.014,238.864 448.514,227.197 442,215.5C 436.682,202.615 433.849,189.615 433.5,176.5C 432.277,169.551 431.444,162.551 431,155.5C 430.346,156.696 429.846,156.696 429.5,155.5C 430.167,154.833 430.833,154.167 431.5,153.5C 431.589,145.055 431.256,136.722 430.5,128.5C 431.24,114.838 431.407,101.171 431,87.5C 429.709,79.2624 426.543,71.929 421.5,65.5 Z"/></g>
<g><path style="opacity:1" fill="#362357" d="M 300.5,144.5 C 301.825,148.445 302.492,152.778 302.5,157.5C 302.602,165.052 301.935,172.385 300.5,179.5C 300.5,167.833 300.5,156.167 300.5,144.5 Z"/></g>
<g><path style="opacity:1" fill="#21185a" d="M 190.5,164.5 C 187.098,164.342 183.764,164.676 180.5,165.5C 180.611,164.883 180.944,164.383 181.5,164C 184.696,163.195 187.696,163.362 190.5,164.5 Z"/></g>
<g><path style="opacity:1" fill="#6f49bf" d="M 50.5,140.5 C 50.5,145.167 50.5,149.833 50.5,154.5C 50.5,160.167 50.5,165.833 50.5,171.5C 50.369,172.239 50.5357,172.906 51,173.5C 58.8702,169.9 66.8702,166.566 75,163.5C 76.7618,163.944 76.5951,164.444 74.5,165C 87.4469,163.086 99.4469,165.753 110.5,173C 122.71,181.933 134.71,191.1 146.5,200.5C 146.5,201.5 146.5,202.5 146.5,203.5C 146.5,203.833 146.5,204.167 146.5,204.5C 145.705,209.741 145.372,215.074 145.5,220.5C 146.325,221.386 147.325,221.719 148.5,221.5C 148.285,223.179 148.952,224.179 150.5,224.5C 156.585,233.383 164.918,239.05 175.5,241.5C 176.167,242.167 176.833,242.833 177.5,243.5C 174.195,243.788 171.362,242.788 169,240.5C 168.716,252.801 171.216,264.468 176.5,275.5C 174.208,275.756 172.041,275.423 170,274.5C 167.311,268.459 164.644,262.459 162,256.5C 155.646,233.461 142.646,215.127 123,201.5C 122.536,202.094 122.369,202.761 122.5,203.5C 110.319,192.411 95.9852,185.578 79.5,183C 69.595,180.785 59.595,179.285 49.5,178.5C 49.5,171.167 49.5,163.833 49.5,156.5C 49.1786,150.974 49.5119,145.64 50.5,140.5 Z"/></g>
<g><path style="opacity:1" fill="#5c3eb6" d="M 253.5,163.5 C 253.338,165.527 253.505,167.527 254,169.5C 261.389,180.94 266.556,193.273 269.5,206.5C 262.954,213.769 255.62,220.102 247.5,225.5C 245.533,217.903 244.866,209.903 245.5,201.5C 245.328,200.508 245.662,199.842 246.5,199.5C 248.322,192.749 249.322,185.749 249.5,178.5C 249.5,178.167 249.5,177.833 249.5,177.5C 251.074,175.898 251.741,173.898 251.5,171.5C 251.565,168.572 252.232,165.905 253.5,163.5 Z"/></g>
<g><path style="opacity:1" fill="#271b4d" d="M 251.5,171.5 C 251.741,173.898 251.074,175.898 249.5,177.5C 249.259,175.102 249.926,173.102 251.5,171.5 Z"/></g>
<g><path style="opacity:1" fill="#4531af" d="M 49.5,178.5 C 59.595,179.285 69.595,180.785 79.5,183C 95.9852,185.578 110.319,192.411 122.5,203.5C 131.64,214.105 138.473,226.105 143,239.5C 145.035,255.097 141.868,269.43 133.5,282.5C 134.019,284.913 134.685,287.246 135.5,289.5C 134.329,300.839 138.995,308.505 149.5,312.5C 153.77,314.839 158.437,316.172 163.5,316.5C 167.981,317.648 172.648,317.815 177.5,317C 178.858,316.066 180.192,315.232 181.5,314.5C 187.421,312.319 193.421,309.986 199.5,307.5C 203.292,306.759 206.959,305.759 210.5,304.5C 212.75,305.13 214.75,306.13 216.5,307.5C 211.487,312.507 205.487,315.673 198.5,317C 186.121,320.695 173.454,322.695 160.5,323C 145.887,324.372 135.387,331.539 129,344.5C 128.667,347.167 128.333,349.833 128,352.5C 126.05,341.472 123.884,330.472 121.5,319.5C 118.482,319.335 115.482,319.502 112.5,320C 107.585,325.939 101.585,330.106 94.5,332.5C 80.6759,333.64 67.0093,332.473 53.5,329C 54.4158,328.722 55.0825,328.222 55.5,327.5C 61.6846,327.212 67.6846,326.046 73.5,324C 76.616,322.551 79.116,320.384 81,317.5C 85.5424,306.2 89.8757,294.867 94,283.5C 99.3333,274.833 104.667,266.167 110,257.5C 113.577,250.395 114.244,243.062 112,235.5C 97.4559,210.116 76.6226,192.116 49.5,181.5C 49.5,180.5 49.5,179.5 49.5,178.5 Z"/></g>
<g><path style="opacity:0.037" fill="#3f2a66" d="M 49.5,156.5 C 49.5,163.833 49.5,171.167 49.5,178.5C 49.5,179.5 49.5,180.5 49.5,181.5C 49.5,184.167 49.5,186.833 49.5,189.5C 49.5,246.167 49.5,302.833 49.5,359.5C 47.8333,358.833 46.1667,358.167 44.5,357.5C 44.5,292.5 44.5,227.5 44.5,162.5C 46.1667,160.5 47.8333,158.5 49.5,156.5 Z"/></g>
<g><path style="opacity:1" fill="#7c52c7" d="M 49.5,181.5 C 76.6226,192.116 97.4559,210.116 112,235.5C 114.244,243.062 113.577,250.395 110,257.5C 104.667,266.167 99.3333,274.833 94,283.5C 89.8757,294.867 85.5424,306.2 81,317.5C 79.116,320.384 76.616,322.551 73.5,324C 67.6846,326.046 61.6846,327.212 55.5,327.5C 53.8333,327.5 52.1667,327.5 50.5,327.5C 50.3335,317.828 50.5002,308.161 51,298.5C 66.08,286.755 79.08,273.088 90,257.5C 93.9173,250.953 94.2507,244.286 91,237.5C 81,224.833 71,212.167 61,199.5C 57.5903,195.584 53.757,192.251 49.5,189.5C 49.5,186.833 49.5,184.167 49.5,181.5 Z"/></g>
<g><path style="opacity:1" fill="#452c6f" d="M 300.5,179.5 C 300.23,183.358 298.897,186.691 296.5,189.5C 297.267,185.851 298.6,182.518 300.5,179.5 Z"/></g>
<g><path style="opacity:1" fill="#8256cb" d="M 49.5,189.5 C 53.757,192.251 57.5903,195.584 61,199.5C 71,212.167 81,224.833 91,237.5C 94.2507,244.286 93.9173,250.953 90,257.5C 79.08,273.088 66.08,286.755 51,298.5C 50.5002,308.161 50.3335,317.828 50.5,327.5C 50.5,338.5 50.5,349.5 50.5,360.5C 50.5,363.833 50.5,367.167 50.5,370.5C 49.5184,367.038 49.185,363.371 49.5,359.5C 49.5,302.833 49.5,246.167 49.5,189.5 Z"/></g>
<g><path style="opacity:1" fill="#3b2875" d="M 249.5,178.5 C 249.322,185.749 248.322,192.749 246.5,199.5C 246.418,192.214 247.418,185.214 249.5,178.5 Z"/></g>
<g><path style="opacity:1" fill="#281b53" d="M 148.5,195.5 C 148.435,198.428 147.768,201.095 146.5,203.5C 146.5,202.5 146.5,201.5 146.5,200.5C 146.796,198.597 147.463,196.93 148.5,195.5 Z"/></g>
<g><path style="opacity:1" fill="#281d70" d="M 222.5,198.5 C 221.946,201.746 220.946,204.746 219.5,207.5C 219.446,204.008 220.446,201.008 222.5,198.5 Z"/></g>
<g><path style="opacity:1" fill="#8457ce" d="M 329.5,394.5 C 326.1,392.963 322.767,391.13 319.5,389C 316.7,385.225 314.034,381.392 311.5,377.5C 314.993,371.212 317.826,364.545 320,357.5C 320.868,348.619 320.535,339.952 319,331.5C 323.406,327.712 328.239,324.545 333.5,322C 334.38,320.644 334.714,319.144 334.5,317.5C 327.852,319.655 321.519,322.655 315.5,326.5C 311.5,323.5 307.5,320.5 303.5,317.5C 310.459,311.042 317.292,304.375 324,297.5C 326.254,293.993 328.254,290.327 330,286.5C 336.906,269.865 332.406,257.699 316.5,250C 302.154,246.049 289.154,248.549 277.5,257.5C 274.884,252.277 274.884,246.943 277.5,241.5C 284.769,228.72 294.102,217.554 305.5,208C 318.22,199.721 331.22,199.388 344.5,207C 357.756,221.581 368.589,237.747 377,255.5C 380.073,273.751 382.74,292.084 385,310.5C 388.066,342.182 377.9,368.682 354.5,390C 346.613,393.852 338.279,395.352 329.5,394.5 Z"/></g>
<g><path style="opacity:1" fill="#6343ba" d="M 176.5,275.5 C 177.167,275.5 177.5,275.833 177.5,276.5C 167.767,276.109 158.1,276.609 148.5,278C 143.353,280.984 139.02,284.818 135.5,289.5C 134.685,287.246 134.019,284.913 133.5,282.5C 141.868,269.43 145.035,255.097 143,239.5C 138.473,226.105 131.64,214.105 122.5,203.5C 122.369,202.761 122.536,202.094 123,201.5C 142.646,215.127 155.646,233.461 162,256.5C 164.644,262.459 167.311,268.459 170,274.5C 172.041,275.423 174.208,275.756 176.5,275.5 Z"/></g>
<g><path style="opacity:1" fill="#2a1d5c" d="M 169.5,195.5 C 169.326,197.861 168.993,200.194 168.5,202.5C 167.517,206.298 167.183,210.298 167.5,214.5C 166.352,210.019 166.185,205.352 167,200.5C 167.757,198.685 168.59,197.019 169.5,195.5 Z"/></g>
<g><path style="opacity:1" fill="#5c3eb5" d="M 168.5,202.5 C 174.846,206.177 181.512,209.677 188.5,213C 197.704,222.458 207.371,222.958 217.5,214.5C 216.962,216.117 216.629,217.784 216.5,219.5C 214.787,220.635 214.12,222.302 214.5,224.5C 212.399,229.864 209.399,234.698 205.5,239C 185.792,241.419 173.125,233.252 167.5,214.5C 167.183,210.298 167.517,206.298 168.5,202.5 Z"/></g>
<g><path style="opacity:1" fill="#1d143a" d="M 244.5,208.5 C 243.88,214.926 244.547,220.926 246.5,226.5C 245.791,227.404 244.791,227.737 243.5,227.5C 243.177,220.978 243.51,214.645 244.5,208.5 Z"/></g>
<g><path style="opacity:1" fill="#3f2b7d" d="M 245.5,201.5 C 244.866,209.903 245.533,217.903 247.5,225.5C 247.5,226.167 247.167,226.5 246.5,226.5C 244.547,220.926 243.88,214.926 244.5,208.5C 244.198,205.941 244.532,203.607 245.5,201.5 Z"/></g>
<g><path style="opacity:1" fill="#543794" d="M 146.5,204.5 C 146.762,211.409 148.095,218.075 150.5,224.5C 148.952,224.179 148.285,223.179 148.5,221.5C 147.325,221.719 146.325,221.386 145.5,220.5C 145.372,215.074 145.705,209.741 146.5,204.5 Z"/></g>
<g><path style="opacity:1" fill="#2b1d54" d="M 216.5,219.5 C 216.204,221.403 215.537,223.07 214.5,224.5C 214.12,222.302 214.787,220.635 216.5,219.5 Z"/></g>
<g><path style="opacity:1" fill="#6539c0" d="M 461.5,254.5 C 461.5,255.167 461.5,255.833 461.5,256.5C 461.5,271.167 461.5,285.833 461.5,300.5C 461.5,301.167 461.5,301.833 461.5,302.5C 456.093,315.31 449.593,327.643 442,339.5C 426.903,357.354 411.569,375.02 396,392.5C 392.902,396.383 390.068,400.383 387.5,404.5C 386.542,404.953 385.708,405.619 385,406.5C 393.174,388.206 401.674,369.873 410.5,351.5C 410.833,350.833 411.167,350.167 411.5,349.5C 426.794,330.077 437.46,308.243 443.5,284C 442.672,283.085 441.672,282.419 440.5,282C 445.396,279.624 445.73,277.457 441.5,275.5C 442.325,274.614 443.325,274.281 444.5,274.5C 445.313,265.844 445.48,257.177 445,248.5C 444.837,246.324 444.004,244.491 442.5,243C 443.939,237.518 442.605,232.851 438.5,229C 438.892,227.989 439.559,227.489 440.5,227.5C 439.263,226.719 438.263,225.719 437.5,224.5C 438.631,223.396 439.465,223.729 440,225.5C 440.278,221.806 440.278,218.139 440,214.5C 447.464,227.767 454.631,241.101 461.5,254.5 Z"/></g>
<g><path style="opacity:1" fill="#583cb3" d="M 279.5,233.5 C 276.056,234.443 273.723,236.609 272.5,240C 268.654,241.669 265.488,244.169 263,247.5C 262.667,247.167 262.333,246.833 262,246.5C 252.505,256.978 241.671,265.644 229.5,272.5C 231.59,264.891 234.257,257.558 237.5,250.5C 239.834,248.824 240.834,246.491 240.5,243.5C 240.414,242.504 240.748,241.671 241.5,241C 252.007,233.978 262.34,226.811 272.5,219.5C 270.817,223.205 269.984,227.205 270,231.5C 267.329,235.854 264.996,240.187 263,244.5C 275.556,236.106 283.056,224.439 285.5,209.5C 286.086,209.709 286.586,210.043 287,210.5C 285.59,218.454 283.09,226.121 279.5,233.5 Z"/></g>
<g><path style="opacity:1" fill="#6543b9" d="M 279.5,233.5 C 278.914,235.84 277.914,238.007 276.5,240C 277.056,240.383 277.389,240.883 277.5,241.5C 274.884,246.943 274.884,252.277 277.5,257.5C 265.268,266.338 260.101,278.338 262,293.5C 263.246,296.913 265.413,299.579 268.5,301.5C 264.366,302.485 260.032,302.818 255.5,302.5C 252.892,302.6 250.558,301.933 248.5,300.5C 246.383,298.345 243.716,297.345 240.5,297.5C 238.716,297.107 237.05,296.441 235.5,295.5C 233.824,293.166 231.491,292.166 228.5,292.5C 225.531,292.192 223.531,290.692 222.5,288C 224.195,282.36 226.528,277.194 229.5,272.5C 241.671,265.644 252.505,256.978 262,246.5C 262.333,246.833 262.667,247.167 263,247.5C 265.488,244.169 268.654,241.669 272.5,240C 273.723,236.609 276.056,234.443 279.5,233.5 Z"/></g>
<g><path style="opacity:1" fill="#1d1538" d="M 175.5,241.5 C 179.702,242.132 183.702,243.132 187.5,244.5C 184.14,244.384 180.807,244.051 177.5,243.5C 176.833,242.833 176.167,242.167 175.5,241.5 Z"/></g>
<g><path style="opacity:1" fill="#5b3eb6" d="M 177.5,243.5 C 180.807,244.051 184.14,244.384 187.5,244.5C 195.167,245.167 202.833,245.833 210.5,246.5C 209.646,252.121 209.313,257.788 209.5,263.5C 208.596,264.209 208.263,265.209 208.5,266.5C 206.837,268.438 206.171,270.772 206.5,273.5C 205.918,276.272 204.918,278.939 203.5,281.5C 201.167,281.5 198.833,281.5 196.5,281.5C 196.167,281.5 195.833,281.5 195.5,281.5C 194.448,279.744 192.781,279.077 190.5,279.5C 186.078,278.783 181.744,277.783 177.5,276.5C 177.5,275.833 177.167,275.5 176.5,275.5C 171.216,264.468 168.716,252.801 169,240.5C 171.362,242.788 174.195,243.788 177.5,243.5 Z"/></g>
<g><path style="opacity:1" fill="#392771" d="M 240.5,243.5 C 240.834,246.491 239.834,248.824 237.5,250.5C 237.935,247.843 238.935,245.509 240.5,243.5 Z"/></g>
<g><path style="opacity:1" fill="#8256cb" d="M 282.5,318.5 C 282.5,314.5 282.5,310.5 282.5,306.5C 285.305,303.169 288.472,300.169 292,297.5C 297.51,290.802 300.343,283.136 300.5,274.5C 299.178,274.33 298.011,274.663 297,275.5C 294.382,281.749 290.548,287.082 285.5,291.5C 284.167,291.5 282.833,291.5 281.5,291.5C 280.546,282.737 279.212,274.07 277.5,265.5C 279.62,261.546 282.62,258.379 286.5,256C 298.819,249.329 308.652,251.829 316,263.5C 318.627,284.746 311.461,301.913 294.5,315C 290.583,316.479 286.583,317.646 282.5,318.5 Z"/></g>
<g><path style="opacity:1" fill="#452f89" d="M 210.5,246.5 C 211.163,248.473 211.496,250.639 211.5,253C 211.621,256.782 210.954,260.282 209.5,263.5C 209.313,257.788 209.646,252.121 210.5,246.5 Z"/></g>
<g><path style="opacity:0.172" fill="#351e64" d="M 461.5,256.5 C 463.273,262.141 464.94,267.808 466.5,273.5C 466.5,277.5 466.5,281.5 466.5,285.5C 464.959,290.535 463.292,295.535 461.5,300.5C 461.5,285.833 461.5,271.167 461.5,256.5 Z"/></g>
<g><path style="opacity:1" fill="#352468" d="M 208.5,266.5 C 208.279,269.067 207.612,271.401 206.5,273.5C 206.171,270.772 206.837,268.438 208.5,266.5 Z"/></g>
<g><path style="opacity:1" fill="#6b47ba" d="M 277.5,265.5 C 279.212,274.07 280.546,282.737 281.5,291.5C 282.833,291.5 284.167,291.5 285.5,291.5C 279.627,293.852 275.127,292.186 272,286.5C 269.974,278.308 271.808,271.308 277.5,265.5 Z"/></g>
<g><path style="opacity:1" fill="#3b2875" d="M 190.5,279.5 C 192.781,279.077 194.448,279.744 195.5,281.5C 193.447,281.598 191.78,280.931 190.5,279.5 Z"/></g>
<g><path style="opacity:1" fill="#342367" d="M 196.5,281.5 C 198.833,281.5 201.167,281.5 203.5,281.5C 203.134,282.695 202.301,283.361 201,283.5C 199.272,283.101 197.772,282.434 196.5,281.5 Z"/></g>
<g><path style="opacity:1" fill="#32225e" d="M 172.5,289.5 C 164.507,288.205 156.507,288.205 148.5,289.5C 148.611,288.883 148.944,288.383 149.5,288C 156.833,287.333 164.167,287.333 171.5,288C 172.056,288.383 172.389,288.883 172.5,289.5 Z"/></g>
<g><path style="opacity:1" fill="#6242b9" d="M 172.5,289.5 C 177.934,291.193 183.267,293.193 188.5,295.5C 188.833,296 189.167,296.5 189.5,297C 187.957,298.713 186.291,300.213 184.5,301.5C 181.888,302.371 179.221,303.037 176.5,303.5C 167.685,302.274 159.019,302.274 150.5,303.5C 150.167,303.5 149.833,303.5 149.5,303.5C 146.891,302.557 144.891,300.89 143.5,298.5C 143.4,295.892 144.067,293.558 145.5,291.5C 145.973,290.094 146.973,289.427 148.5,289.5C 156.507,288.205 164.507,288.205 172.5,289.5 Z"/></g>
<g><path style="opacity:1" fill="#3c2873" d="M 228.5,292.5 C 231.491,292.166 233.824,293.166 235.5,295.5C 232.843,295.065 230.509,294.065 228.5,292.5 Z"/></g>
<g><path style="opacity:1" fill="#2e1f57" d="M 145.5,291.5 C 144.067,293.558 143.4,295.892 143.5,298.5C 141.885,295.598 142.551,293.265 145.5,291.5 Z"/></g>
<g><path style="opacity:1" fill="#3c286e" d="M 240.5,297.5 C 243.716,297.345 246.383,298.345 248.5,300.5C 245.603,299.871 242.936,298.871 240.5,297.5 Z"/></g>
<g><path style="opacity:1" fill="#35225b" d="M 268.5,301.5 C 269.043,301.56 269.376,301.893 269.5,302.5C 264.682,303.812 260.015,303.812 255.5,302.5C 260.032,302.818 264.366,302.485 268.5,301.5 Z"/></g>
<g><path style="opacity:0.169" fill="#261e54" d="M 466.5,285.5 C 466.5,314.5 466.5,343.5 466.5,372.5C 464.5,374.833 462.5,377.167 460.5,379.5C 460.5,378.167 460.5,376.833 460.5,375.5C 461.489,352.575 461.822,329.575 461.5,306.5C 461.5,305.167 461.5,303.833 461.5,302.5C 461.5,301.833 461.5,301.167 461.5,300.5C 463.292,295.535 464.959,290.535 466.5,285.5 Z"/></g>
<g><path style="opacity:1" fill="#412fae" d="M 150.5,303.5 C 159.019,302.274 167.685,302.274 176.5,303.5C 174.786,304.738 172.786,305.405 170.5,305.5C 163.745,305.613 157.078,304.947 150.5,303.5 Z"/></g>
<g><path style="opacity:1" fill="#1e1644" d="M 184.5,301.5 C 180.37,304.324 175.703,305.991 170.5,306.5C 170.5,306.167 170.5,305.833 170.5,305.5C 172.786,305.405 174.786,304.738 176.5,303.5C 179.221,303.037 181.888,302.371 184.5,301.5 Z"/></g>
<g><path style="opacity:1" fill="#332480" d="M 149.5,303.5 C 149.833,303.5 150.167,303.5 150.5,303.5C 157.078,304.947 163.745,305.613 170.5,305.5C 170.5,305.833 170.5,306.167 170.5,306.5C 166.154,306.666 161.821,306.499 157.5,306C 154.543,305.721 151.877,304.887 149.5,303.5 Z"/></g>
<g><path style="opacity:1" fill="#36257c" d="M 210.5,304.5 C 206.959,305.759 203.292,306.759 199.5,307.5C 201.382,306.249 203.382,305.082 205.5,304C 207.387,303.22 209.054,303.387 210.5,304.5 Z"/></g>
<g><path style="opacity:1" fill="#6644bb" d="M 216.5,307.5 C 216.833,307.5 217.167,307.5 217.5,307.5C 219.32,309.448 221.654,310.448 224.5,310.5C 228.514,311.511 232.514,312.511 236.5,313.5C 236.953,314.458 237.619,315.292 238.5,316C 240.382,316.198 242.048,316.698 243.5,317.5C 237.439,321.382 231.773,325.882 226.5,331C 221.199,337.302 215.532,343.302 209.5,349C 195.722,352.467 181.722,354.8 167.5,356C 151.474,360.435 140.974,370.601 136,386.5C 135.36,388.265 135.527,389.932 136.5,391.5C 133.965,400.318 133.132,409.318 134,418.5C 136.478,420.639 138.978,422.639 141.5,424.5C 140.769,424.942 139.769,425.109 138.5,425C 139.252,425.671 139.586,426.504 139.5,427.5C 136.148,424.305 133.315,420.638 131,416.5C 129.21,403.537 127.71,390.537 126.5,377.5C 124,363 117.667,350.5 107.5,340C 102.828,337.163 97.8281,335.163 92.5,334C 94.3427,333.841 95.0093,333.341 94.5,332.5C 101.585,330.106 107.585,325.939 112.5,320C 115.482,319.502 118.482,319.335 121.5,319.5C 123.884,330.472 126.05,341.472 128,352.5C 128.333,349.833 128.667,347.167 129,344.5C 135.387,331.539 145.887,324.372 160.5,323C 173.454,322.695 186.121,320.695 198.5,317C 205.487,315.673 211.487,312.507 216.5,307.5 Z"/></g>
<g><path style="opacity:1" fill="#392669" d="M 217.5,307.5 C 220.157,307.935 222.491,308.935 224.5,310.5C 221.654,310.448 219.32,309.448 217.5,307.5 Z"/></g>
<g><path style="opacity:1" fill="#6e48be" d="M 282.5,306.5 C 282.5,310.5 282.5,314.5 282.5,318.5C 276.461,319.356 273.628,322.689 274,328.5C 278.109,329.556 282.275,329.556 286.5,328.5C 285.791,329.404 284.791,329.737 283.5,329.5C 283.244,335.724 284.244,341.724 286.5,347.5C 274.637,356.862 265.137,368.196 258,381.5C 253.923,392.424 256.423,401.258 265.5,408C 271.693,408.984 277.693,408.318 283.5,406C 295.072,398.595 304.406,389.095 311.5,377.5C 314.034,381.392 316.7,385.225 319.5,389C 322.767,391.13 326.1,392.963 329.5,394.5C 336.273,396.146 343.273,397.146 350.5,397.5C 341.8,402.182 332.8,406.348 323.5,410C 299.96,417.271 276.96,425.938 254.5,436C 240.121,440.57 225.455,443.903 210.5,446C 191.083,448.412 172.416,445.745 154.5,438C 149.067,435.059 144.067,431.559 139.5,427.5C 139.586,426.504 139.252,425.671 138.5,425C 139.769,425.109 140.769,424.942 141.5,424.5C 157.906,431.927 174.572,432.427 191.5,426C 205.394,419.522 206.061,411.855 193.5,403C 183.51,395.42 172.676,389.253 161,384.5C 153.944,382.754 147.11,383.254 140.5,386C 139.023,387.812 137.69,389.645 136.5,391.5C 135.527,389.932 135.36,388.265 136,386.5C 140.974,370.601 151.474,360.435 167.5,356C 181.722,354.8 195.722,352.467 209.5,349C 215.532,343.302 221.199,337.302 226.5,331C 231.773,325.882 237.439,321.382 243.5,317.5C 249.842,317.666 256.175,317.5 262.5,317C 263.858,316.066 265.192,315.232 266.5,314.5C 271.781,311.86 277.114,309.193 282.5,306.5 Z"/></g>
<g><path style="opacity:1" fill="#4839a1" d="M 461.5,306.5 C 461.822,329.575 461.489,352.575 460.5,375.5C 459.539,377.265 459.205,379.265 459.5,381.5C 452.046,386.447 444.713,391.614 437.5,397C 428.5,408 419.5,419 410.5,430C 398.323,436.589 385.99,442.922 373.5,449C 370.833,451 368.167,453 365.5,455C 363.235,456.758 361.568,458.925 360.5,461.5C 360.167,461.5 359.833,461.5 359.5,461.5C 354.167,461.5 348.833,461.5 343.5,461.5C 349.882,455.953 355.715,449.953 361,443.5C 364.306,438.361 367.806,433.361 371.5,428.5C 376.403,420.254 381.737,412.254 387.5,404.5C 404.845,383.864 422.678,363.531 441,343.5C 449,331.704 455.833,319.371 461.5,306.5 Z"/></g>
<g><path style="opacity:1" fill="#19133d" d="M 149.5,312.5 C 158.345,314.715 167.345,315.715 176.5,315.5C 172.366,316.485 168.032,316.818 163.5,316.5C 158.437,316.172 153.77,314.839 149.5,312.5 Z"/></g>
<g><path style="opacity:1" fill="#51358e" d="M 236.5,313.5 C 246.382,317.114 256.382,317.447 266.5,314.5C 265.192,315.232 263.858,316.066 262.5,317C 256.175,317.5 249.842,317.666 243.5,317.5C 242.048,316.698 240.382,316.198 238.5,316C 237.619,315.292 236.953,314.458 236.5,313.5 Z"/></g>
<g><path style="opacity:1" fill="#2a1e6b" d="M 181.5,314.5 C 180.192,315.232 178.858,316.066 177.5,317C 172.648,317.815 167.981,317.648 163.5,316.5C 168.032,316.818 172.366,316.485 176.5,315.5C 177.919,314.549 179.585,314.216 181.5,314.5 Z"/></g>
<g><path style="opacity:1" fill="#8256cb" d="M 286.5,347.5 C 284.244,341.724 283.244,335.724 283.5,329.5C 284.791,329.737 285.791,329.404 286.5,328.5C 293.326,321.381 298.659,322.548 302.5,332C 297.971,338.029 292.638,343.196 286.5,347.5 Z"/></g>
<g><path style="opacity:1" fill="#794ec4" d="M 50.5,327.5 C 52.1667,327.5 53.8333,327.5 55.5,327.5C 55.0825,328.222 54.4158,328.722 53.5,329C 67.0093,332.473 80.6759,333.64 94.5,332.5C 95.0093,333.341 94.3427,333.841 92.5,334C 97.8281,335.163 102.828,337.163 107.5,340C 117.667,350.5 124,363 126.5,377.5C 127.71,390.537 129.21,403.537 131,416.5C 133.315,420.638 136.148,424.305 139.5,427.5C 140.754,430.093 142.42,432.427 144.5,434.5C 134.839,427.996 125.505,420.996 116.5,413.5C 114.405,411.752 112.738,409.585 111.5,407C 110.552,406.517 109.552,406.351 108.5,406.5C 109.21,403.14 107.876,401.307 104.5,401C 103.809,399.933 103.309,398.766 103,397.5C 97.1667,393 92,387.833 87.5,382C 86.552,381.517 85.552,381.351 84.5,381.5C 84.5,380.5 84.5,379.5 84.5,378.5C 83.1667,378.5 81.8333,378.5 80.5,378.5C 80.6495,377.448 80.4828,376.448 80,375.5C 79.6667,375.833 79.3333,376.167 79,376.5C 71.478,368.953 61.978,363.62 50.5,360.5C 50.5,349.5 50.5,338.5 50.5,327.5 Z"/></g>
<g><path style="opacity:1" fill="#6848b7" d="M 461.5,302.5 C 461.5,303.833 461.5,305.167 461.5,306.5C 455.833,319.371 449,331.704 441,343.5C 422.678,363.531 404.845,383.864 387.5,404.5C 390.068,400.383 392.902,396.383 396,392.5C 411.569,375.02 426.903,357.354 442,339.5C 449.593,327.643 456.093,315.31 461.5,302.5 Z"/></g>
<g><path style="opacity:1" fill="#8054c7" d="M 300.5,363.5 C 298.983,363.489 297.816,362.823 297,361.5C 294.946,358.953 293.113,356.286 291.5,353.5C 294.479,349.854 297.812,346.521 301.5,343.5C 301.833,345.833 302.167,348.167 302.5,350.5C 302.541,355.039 301.874,359.372 300.5,363.5 Z"/></g>
<g><path style="opacity:1" fill="#6d47bc" d="M 291.5,353.5 C 293.113,356.286 294.946,358.953 297,361.5C 297.816,362.823 298.983,363.489 300.5,363.5C 297.386,376.018 291.886,387.351 284,397.5C 279.756,402.043 274.589,403.877 268.5,403C 264.797,399.604 263.631,395.437 265,390.5C 270.953,376.056 279.786,363.723 291.5,353.5 Z"/></g>
<g><path style="opacity:1" fill="#693cc2" d="M 50.5,360.5 C 61.978,363.62 71.478,368.953 79,376.5C 79.3333,376.167 79.6667,375.833 80,375.5C 80.4828,376.448 80.6495,377.448 80.5,378.5C 81.8333,378.5 83.1667,378.5 84.5,378.5C 84.5,379.5 84.5,380.5 84.5,381.5C 85.552,381.351 86.552,381.517 87.5,382C 92,387.833 97.1667,393 103,397.5C 103.309,398.766 103.809,399.933 104.5,401C 107.876,401.307 109.21,403.14 108.5,406.5C 109.552,406.351 110.552,406.517 111.5,407C 112.738,409.585 114.405,411.752 116.5,413.5C 116.103,414.525 115.437,414.692 114.5,414C 110.644,410.643 106.644,407.476 102.5,404.5C 102.167,404.833 101.833,405.167 101.5,405.5C 117.553,416.715 132.886,428.882 147.5,442C 156.737,448.753 166.07,455.253 175.5,461.5C 161.471,461.762 147.471,461.429 133.5,460.5C 131.735,459.539 129.735,459.205 127.5,459.5C 121.437,456.072 115.104,452.905 108.5,450C 88.75,436.747 71.4166,420.914 56.5,402.5C 52.4252,392.298 50.4252,381.632 50.5,370.5C 50.5,367.167 50.5,363.833 50.5,360.5 Z"/></g>
<g><path style="opacity:0.032" fill="#392560" d="M 466.5,372.5 C 466.368,412.959 448.701,442.793 413.5,462C 400.979,467.047 387.979,470.047 374.5,471C 360.504,471.5 346.504,471.667 332.5,471.5C 336.14,468.527 339.473,465.194 342.5,461.5C 342.833,461.5 343.167,461.5 343.5,461.5C 348.833,461.5 354.167,461.5 359.5,461.5C 358.011,463.645 357.011,465.978 356.5,468.5C 365.541,468.717 374.541,468.217 383.5,467C 385.119,465.077 386.952,464.577 389,465.5C 390.324,464.12 391.657,463.786 393,464.5C 394,463.833 395,463.167 396,462.5C 397.667,462.5 399.333,462.5 401,462.5C 403.36,461.941 405.693,460.608 408,458.5C 408.333,458.833 408.667,459.167 409,459.5C 416.865,455.093 424.698,449.926 432.5,444C 441.256,434.955 448.256,425.622 453.5,416C 452.366,414.984 452.699,414.317 454.5,414C 454.167,413.667 453.833,413.333 453.5,413C 455.422,411.54 456.089,409.873 455.5,408C 457.125,407.147 457.458,406.147 456.5,405C 457.833,401.333 459.167,397.667 460.5,394C 461.333,389.25 461.333,384.417 460.5,379.5C 462.5,377.167 464.5,374.833 466.5,372.5 Z"/></g>
<g><path style="opacity:1" fill="#3b2bab" d="M 302.5,461.5 C 301.833,461.5 301.167,461.5 300.5,461.5C 266.167,461.5 231.833,461.5 197.5,461.5C 196.167,461.5 194.833,461.5 193.5,461.5C 176.172,454.336 159.839,445.336 144.5,434.5C 142.42,432.427 140.754,430.093 139.5,427.5C 144.067,431.559 149.067,435.059 154.5,438C 172.416,445.745 191.083,448.412 210.5,446C 225.455,443.903 240.121,440.57 254.5,436C 276.96,425.938 299.96,417.271 323.5,410C 332.8,406.348 341.8,402.182 350.5,397.5C 371.013,388.291 388.18,374.625 402,356.5C 402.667,357.167 402.667,357.833 402,358.5C 391,374.5 380,390.5 369,406.5C 359.5,417.333 349.333,427.5 338.5,437C 326.607,445.437 314.607,453.604 302.5,461.5 Z"/></g>
<g><path style="opacity:1" fill="#5e3eb6" d="M 410.5,351.5 C 401.674,369.873 393.174,388.206 385,406.5C 385.708,405.619 386.542,404.953 387.5,404.5C 381.737,412.254 376.403,420.254 371.5,428.5C 369.972,428.483 369.472,427.816 370,426.5C 377.077,415.944 383.41,404.944 389,393.5C 394.607,379.616 400.774,365.95 407.5,352.5C 408.325,351.614 409.325,351.281 410.5,351.5 Z"/></g>
<g><path style="opacity:0.219" fill="#432c6d" d="M 460.5,375.5 C 460.5,376.833 460.5,378.167 460.5,379.5C 461.333,384.417 461.333,389.25 460.5,394C 459.167,397.667 457.833,401.333 456.5,405C 457.458,406.147 457.125,407.147 455.5,408C 456.089,409.873 455.422,411.54 453.5,413C 453.833,413.333 454.167,413.667 454.5,414C 452.699,414.317 452.366,414.984 453.5,416C 448.256,425.622 441.256,434.955 432.5,444C 424.698,449.926 416.865,455.093 409,459.5C 408.667,459.167 408.333,458.833 408,458.5C 405.693,460.608 403.36,461.941 401,462.5C 399.333,462.5 397.667,462.5 396,462.5C 395,463.167 394,463.833 393,464.5C 391.657,463.786 390.324,464.12 389,465.5C 386.952,464.577 385.119,465.077 383.5,467C 374.541,468.217 365.541,468.717 356.5,468.5C 357.011,465.978 358.011,463.645 359.5,461.5C 359.833,461.5 360.167,461.5 360.5,461.5C 394.083,462.927 421.583,450.927 443,425.5C 452.115,412.256 457.615,397.589 459.5,381.5C 459.205,379.265 459.539,377.265 460.5,375.5 Z"/></g>
<g><path style="opacity:1" fill="#8155cb" d="M 141.5,424.5 C 138.978,422.639 136.478,420.639 134,418.5C 133.132,409.318 133.965,400.318 136.5,391.5C 137.69,389.645 139.023,387.812 140.5,386C 147.11,383.254 153.944,382.754 161,384.5C 172.676,389.253 183.51,395.42 193.5,403C 206.061,411.855 205.394,419.522 191.5,426C 174.572,432.427 157.906,431.927 141.5,424.5 Z"/></g>
<g><path style="opacity:1" fill="#784fc2" d="M 459.5,381.5 C 457.615,397.589 452.115,412.256 443,425.5C 421.583,450.927 394.083,462.927 360.5,461.5C 361.568,458.925 363.235,456.758 365.5,455C 368.167,453 370.833,451 373.5,449C 385.99,442.922 398.323,436.589 410.5,430C 419.5,419 428.5,408 437.5,397C 444.713,391.614 452.046,386.447 459.5,381.5 Z"/></g>
<g><path style="opacity:0.079" fill="#2e2158" d="M 46.5,388.5 C 51.6132,395.396 55.1132,403.062 57,411.5C 74.019,445.703 101.186,463.87 138.5,466C 137.304,465.346 137.304,464.846 138.5,464.5C 146.879,467.076 155.212,469.41 163.5,471.5C 141.905,472.787 120.905,469.953 100.5,463C 68.4502,448.417 50.4502,423.584 46.5,388.5 Z"/></g>
<g><path style="opacity:0.353" fill="#362564" d="M 44.5,357.5 C 46.1667,358.167 47.8333,358.833 49.5,359.5C 49.185,363.371 49.5184,367.038 50.5,370.5C 50.4252,381.632 52.4252,392.298 56.5,402.5C 56.9483,405.682 58.2816,408.349 60.5,410.5C 71.0217,433.947 88.6884,449.28 113.5,456.5C 118.008,458.126 122.675,459.126 127.5,459.5C 129.735,459.205 131.735,459.539 133.5,460.5C 146.855,465.305 160.522,468.971 174.5,471.5C 170.833,471.5 167.167,471.5 163.5,471.5C 155.212,469.41 146.879,467.076 138.5,464.5C 137.304,464.846 137.304,465.346 138.5,466C 101.186,463.87 74.019,445.703 57,411.5C 55.1132,403.062 51.6132,395.396 46.5,388.5C 45.0527,378.231 44.386,367.897 44.5,357.5 Z"/></g>
<g><path style="opacity:1" fill="#5e45af" d="M 60.5,410.5 C 75.0733,428.405 92.4066,443.072 112.5,454.5C 113.298,454.957 113.631,455.624 113.5,456.5C 88.6884,449.28 71.0217,433.947 60.5,410.5 Z"/></g>
<g><path style="opacity:1" fill="#6a48b8" d="M 56.5,402.5 C 71.4166,420.914 88.75,436.747 108.5,450C 115.104,452.905 121.437,456.072 127.5,459.5C 122.675,459.126 118.008,458.126 113.5,456.5C 113.631,455.624 113.298,454.957 112.5,454.5C 92.4066,443.072 75.0733,428.405 60.5,410.5C 58.2816,408.349 56.9483,405.682 56.5,402.5 Z"/></g>
<g><path style="opacity:1" fill="#6742bd" d="M 116.5,413.5 C 125.505,420.996 134.839,427.996 144.5,434.5C 159.839,445.336 176.172,454.336 193.5,461.5C 189.5,461.5 185.5,461.5 181.5,461.5C 179.5,461.5 177.5,461.5 175.5,461.5C 166.07,455.253 156.737,448.753 147.5,442C 132.886,428.882 117.553,416.715 101.5,405.5C 101.833,405.167 102.167,404.833 102.5,404.5C 106.644,407.476 110.644,410.643 114.5,414C 115.437,414.692 116.103,414.525 116.5,413.5 Z"/></g>
<g><path style="opacity:0.391" fill="#402a6a" d="M 300.5,461.5 C 301.167,461.5 301.833,461.5 302.5,461.5C 315.833,461.5 329.167,461.5 342.5,461.5C 339.473,465.194 336.14,468.527 332.5,471.5C 316.5,471.5 300.5,471.5 284.5,471.5C 290.099,468.562 295.433,465.229 300.5,461.5 Z"/></g>
<g><path style="opacity:0.151" fill="#3b2665" d="M 181.5,461.5 C 185.5,461.5 189.5,461.5 193.5,461.5C 194.833,461.5 196.167,461.5 197.5,461.5C 200.609,462.658 203.442,464.325 206,466.5C 209.249,464.883 211.916,465.549 214,468.5C 215.682,468.193 217.348,467.86 219,467.5C 220.968,468.357 222.968,469.357 225,470.5C 226.906,469.869 228.906,469.536 231,469.5C 234.15,469.36 236.983,470.027 239.5,471.5C 223.833,471.5 208.167,471.5 192.5,471.5C 189.898,469.19 186.898,467.357 183.5,466C 182.304,465.346 182.304,464.846 183.5,464.5C 185.078,465.64 186.744,466.14 188.5,466C 186.102,464.476 183.769,462.976 181.5,461.5 Z"/></g>
<g><path style="opacity:0.169" fill="#1f175d" d="M 197.5,461.5 C 231.833,461.5 266.167,461.5 300.5,461.5C 295.433,465.229 290.099,468.562 284.5,471.5C 269.5,471.5 254.5,471.5 239.5,471.5C 236.983,470.027 234.15,469.36 231,469.5C 228.906,469.536 226.906,469.869 225,470.5C 222.968,469.357 220.968,468.357 219,467.5C 217.348,467.86 215.682,468.193 214,468.5C 211.916,465.549 209.249,464.883 206,466.5C 203.442,464.325 200.609,462.658 197.5,461.5 Z"/></g>
<g><path style="opacity:0.094" fill="#392069" d="M 133.5,460.5 C 147.471,461.429 161.471,461.762 175.5,461.5C 177.5,461.5 179.5,461.5 181.5,461.5C 183.769,462.976 186.102,464.476 188.5,466C 186.744,466.14 185.078,465.64 183.5,464.5C 182.304,464.846 182.304,465.346 183.5,466C 186.898,467.357 189.898,469.19 192.5,471.5C 186.5,471.5 180.5,471.5 174.5,471.5C 160.522,468.971 146.855,465.305 133.5,460.5 Z"/></g>
</svg>
