<?xml version="1.0" encoding="UTF-8"?>
<!DOCTYPE svg PUBLIC "-//W3C//DTD SVG 1.1//EN" "http://www.w3.org/Graphics/SVG/1.1/DTD/svg11.dtd">
<svg xmlns="http://www.w3.org/2000/svg" version="1.1" viewBox="0 0 1398 573" style="shape-rendering:geometricPrecision; text-rendering:geometricPrecision; image-rendering:optimizeQuality; fill-rule:evenodd; clip-rule:evenodd" xmlns:xlink="http://www.w3.org/1999/xlink">
<g><path style="opacity:0.942" fill="#e1e5e9" d="M 554.5,5.5 C 616.83,6.32361 679.164,7.15694 741.5,8C 742,8.5 742.5,9 743,9.5C 744.461,50.4902 744.794,91.4902 744,132.5C 701.44,175.392 658.44,218.059 615,260.5C 614.5,281.831 614.333,303.164 614.5,324.5C 639.165,324.963 663.831,325.297 688.5,325.5C 687.608,309.508 687.441,293.508 688,277.5C 688.5,277 689,276.5 689.5,276C 707.409,274.361 725.409,274.027 743.5,275C 744.931,275.465 746.097,276.299 747,277.5C 747.635,312.836 747.968,348.169 748,383.5C 747.5,384 747,384.5 746.5,385C 684.16,385.807 621.827,385.474 559.5,384C 559,383.5 558.5,383 558,382.5C 557.064,333.799 556.23,285.132 555.5,236.5C 598.066,193.101 641.232,150.101 685,107.5C 684.683,93.5205 684.516,79.5205 684.5,65.5C 660.16,65.5265 635.827,65.1932 611.5,64.5C 611.833,81.5131 611.499,98.5131 610.5,115.5C 591.618,116.763 572.785,116.43 554,114.5C 553.791,80.8243 553.291,47.1577 552.5,13.5C 552.289,10.5141 552.956,7.8474 554.5,5.5 Z"/></g>
<g><path style="opacity:0.939" fill="#e1e5e9" d="M 2.5,6.5 C 21.4153,6.56024 40.2486,7.22691 59,8.5C 60.9331,113.819 62.5997,219.152 64,324.5C 107.089,325.984 150.255,326.817 193.5,327C 194.333,327.833 195.167,328.667 196,329.5C 196.825,348.074 196.659,366.574 195.5,385C 189.605,386.124 183.605,386.624 177.5,386.5C 121.504,385.737 65.5037,385.237 9.5,385C 8.06919,384.535 6.90252,383.701 6,382.5C 4.16672,269.69 2.33339,156.856 0.5,44C 0.666667,32.1667 0.833333,20.3333 1,8.5C 1.71719,7.9558 2.21719,7.28913 2.5,6.5 Z"/></g>
<g><path style="opacity:0.944" fill="#e1e5e9" d="M 219.5,7.5 C 237.495,8.0768 255.495,8.5768 273.5,9C 274.667,9.5 275.5,10.3333 276,11.5C 277.25,128.171 278.75,244.837 280.5,361.5C 280.333,369.167 280.167,376.833 280,384.5C 279.626,385.416 279.126,386.25 278.5,387C 260.51,386.878 242.51,386.545 224.5,386C 223.299,385.097 222.465,383.931 222,382.5C 221.182,269.477 219.682,156.477 217.5,43.5C 217.667,32.5 217.833,21.5 218,10.5C 218.513,9.47344 219.013,8.47344 219.5,7.5 Z"/></g>
<g><path style="opacity:0.942" fill="#e1e5e9" d="M 770.5,7.5 C 833.176,7.32725 895.843,7.99391 958.5,9.5C 960.479,27.7597 960.979,46.0931 960,64.5C 959.5,65.6667 958.667,66.5 957.5,67C 914.511,66.5945 871.511,66.4279 828.5,66.5C 828.324,102.176 828.824,137.843 830,173.5C 844.275,159.225 858.442,145.058 872.5,131C 875.158,127.994 878.325,125.828 882,124.5C 883.226,124.645 884.393,124.978 885.5,125.5C 897.18,137.68 909.013,149.68 921,161.5C 921.997,166.008 920.664,169.675 917,172.5C 889.123,200.51 860.956,228.177 832.5,255.5C 831.5,279.157 831.167,302.824 831.5,326.5C 870.835,326.333 910.168,326.5 949.5,327C 953.5,327.333 957.5,327.667 961.5,328C 962,328.5 962.5,329 963,329.5C 964.444,348.146 964.777,366.813 964,385.5C 963.5,386 963,386.5 962.5,387C 900.16,387.147 837.826,386.481 775.5,385C 775,384.5 774.5,384 774,383.5C 772.312,259.989 770.479,136.489 768.5,13C 768.395,10.8218 769.061,8.98847 770.5,7.5 Z"/></g>
<g><path style="opacity:0.942" fill="#e1e5e9" d="M 303.5,8.5 C 322.944,8.13971 342.278,8.97304 361.5,11C 385.64,34.4726 409.807,57.9726 434,81.5C 434.333,57.8333 434.667,34.1667 435,10.5C 453.093,9.34147 471.26,9.1748 489.5,10C 490.416,10.3742 491.25,10.8742 492,11.5C 493.049,131.018 494.882,250.518 497.5,370C 502.266,385.316 496.932,391.483 481.5,388.5C 467.835,387.943 454.169,387.443 440.5,387C 439.874,386.25 439.374,385.416 439,384.5C 438.063,328.17 437.396,271.837 437,215.5C 436.794,198.478 436.128,181.478 435,164.5C 410.932,140.93 386.765,117.596 362.5,94.5C 362.167,100.667 361.833,106.833 361.5,113C 363.762,203.824 364.929,294.657 365,385.5C 364.5,386 364,386.5 363.5,387C 345.5,387.667 327.5,387.667 309.5,387C 307.129,384.326 305.963,381.159 306,377.5C 305.068,267.156 303.568,156.823 301.5,46.5C 301.667,34.8333 301.833,23.1667 302,11.5C 302.513,10.4734 303.013,9.47344 303.5,8.5 Z"/></g>
<g><path style="opacity:0.95" fill="#e1e5e9" d="M 986.5,9.5 C 1049.21,9.17045 1111.87,9.50379 1174.5,10.5C 1175.3,12.0777 1175.8,13.7444 1176,15.5C 1176.17,24.1667 1176.33,32.8333 1176.5,41.5C 1176.49,50.5644 1175.82,59.3978 1174.5,68C 1131.15,68.7895 1087.82,68.6228 1044.5,67.5C 1044.39,103.508 1044.89,139.508 1046,175.5C 1060.59,160.912 1075.09,146.412 1089.5,132C 1092.13,129.037 1095.3,126.87 1099,125.5C 1102.11,127.269 1104.94,129.436 1107.5,132C 1117.02,142.524 1126.86,152.69 1137,162.5C 1138.2,166.809 1137.2,170.476 1134,173.5C 1105.03,201.472 1076.36,229.805 1048,258.5C 1047.5,281.498 1047.33,304.498 1047.5,327.5C 1090.83,328.259 1134.16,328.759 1177.5,329C 1178,329.5 1178.5,330 1179,330.5C 1180.02,341.639 1180.52,352.806 1180.5,364C 1180.48,372.234 1179.82,380.234 1178.5,388C 1117.17,388.031 1055.83,387.697 994.5,387C 993.234,386.691 992.067,386.191 991,385.5C 989.342,316.575 988.009,247.575 987,178.5C 985.886,122.128 985.719,65.795 986.5,9.5 Z"/></g>
<g><path style="opacity:0.942" fill="#e1e5e9" d="M 1397.5,338.5 C 1397.5,355.167 1397.5,371.833 1397.5,388.5C 1378.56,389.819 1359.56,389.819 1340.5,388.5C 1340,387.5 1339.5,386.5 1339,385.5C 1337.25,318.863 1336.25,252.197 1336,185.5C 1335.77,178.782 1335.11,172.115 1334,165.5C 1309.71,141.509 1285.38,117.509 1261,93.5C 1262.6,191.493 1263.6,289.493 1264,387.5C 1263.5,388 1263,388.5 1262.5,389C 1244.8,389.863 1227.14,389.53 1209.5,388C 1207.39,386.016 1206.22,383.516 1206,380.5C 1205.05,270.656 1203.55,160.822 1201.5,51C 1201.67,38.5 1201.83,26 1202,13.5C 1202.31,12.6919 1202.81,12.0253 1203.5,11.5C 1221.46,10.3471 1239.46,10.1804 1257.5,11C 1261.49,13.9085 1265.49,16.9085 1269.5,20C 1290.7,41.1967 1312.2,62.0301 1334,82.5C 1333.9,70.1936 1333.73,57.8602 1333.5,45.5C 1333.35,34.4066 1333.85,23.4066 1335,12.5C 1353.8,11.1716 1372.64,11.1716 1391.5,12.5C 1392.32,15.4465 1392.82,18.4465 1393,21.5C 1394.03,127.338 1395.53,233.005 1397.5,338.5 Z"/></g>
</svg>
