<?xml version="1.0" encoding="UTF-8"?>
<!DOCTYPE svg PUBLIC "-//W3C//DTD SVG 1.1//EN" "http://www.w3.org/Graphics/SVG/1.1/DTD/svg11.dtd">
<svg xmlns="http://www.w3.org/2000/svg" version="1.1" width="100" height="100" style="shape-rendering:geometricPrecision; text-rendering:geometricPrecision; image-rendering:optimizeQuality; fill-rule:evenodd; clip-rule:evenodd" xmlns:xlink="http://www.w3.org/1999/xlink">
<g><path style="opacity:1" fill="#24ddbc" d="M 61.5,21.5 C 59.5,21.5 57.5,21.5 55.5,21.5C 51.8704,17.369 48.037,13.369 44,9.5C 43.5012,13.4862 43.3345,17.4862 43.5,21.5C 40.1667,21.5 36.8333,21.5 33.5,21.5C 33.5,24.8333 33.5,28.1667 33.5,31.5C 29.5,31.5 25.5,31.5 21.5,31.5C 21.5,32.8333 21.5,34.1667 21.5,35.5C 25.5,35.5 29.5,35.5 33.5,35.5C 33.5,36.8333 33.5,38.1667 33.5,39.5C 29.5,39.5 25.5,39.5 21.5,39.5C 21.5,40.8333 21.5,42.1667 21.5,43.5C 25.5,43.5 29.5,43.5 33.5,43.5C 33.5,44.8333 33.5,46.1667 33.5,47.5C 29.5,47.5 25.5,47.5 21.5,47.5C 21.5,48.8333 21.5,50.1667 21.5,51.5C 25.5,51.5 29.5,51.5 33.5,51.5C 33.5,52.8333 33.5,54.1667 33.5,55.5C 29.5,55.5 25.5,55.5 21.5,55.5C 21.5,56.8333 21.5,58.1667 21.5,59.5C 25.5,59.5 29.5,59.5 33.5,59.5C 33.5,63.5 33.5,67.5 33.5,71.5C 26.1667,71.5 18.8333,71.5 11.5,71.5C 11.5,49.5 11.5,27.5 11.5,5.5C 23.1714,5.33347 34.8381,5.50014 46.5,6C 51.7031,11.0354 56.7031,16.202 61.5,21.5 Z"/></g>
<g><path style="opacity:1" fill="#b0f7e8" d="M 55.5,21.5 C 51.5,21.5 47.5,21.5 43.5,21.5C 43.3345,17.4862 43.5012,13.4862 44,9.5C 48.037,13.369 51.8704,17.369 55.5,21.5 Z"/></g>
<g><path style="opacity:0.997" fill="#13eba4" d="M 43.5,21.5 C 47.5,21.5 51.5,21.5 55.5,21.5C 57.5,21.5 59.5,21.5 61.5,21.5C 63.8568,21.3367 66.1902,21.5034 68.5,22C 73.3333,26.8333 78.1667,31.6667 83,36.5C 83.4999,53.4967 83.6666,70.4967 83.5,87.5C 66.8333,87.5 50.1667,87.5 33.5,87.5C 33.5,82.1667 33.5,76.8333 33.5,71.5C 33.5,67.5 33.5,63.5 33.5,59.5C 33.5,58.1667 33.5,56.8333 33.5,55.5C 33.5,54.1667 33.5,52.8333 33.5,51.5C 33.5,50.1667 33.5,48.8333 33.5,47.5C 33.5,46.1667 33.5,44.8333 33.5,43.5C 33.5,42.1667 33.5,40.8333 33.5,39.5C 33.5,38.1667 33.5,36.8333 33.5,35.5C 33.5,34.1667 33.5,32.8333 33.5,31.5C 33.5,28.1667 33.5,24.8333 33.5,21.5C 36.8333,21.5 40.1667,21.5 43.5,21.5 Z"/></g>
<g><path style="opacity:1" fill="#b0f7e8" d="M 65.5,25.5 C 70.2979,29.7967 74.9645,34.2967 79.5,39C 74.8452,39.4992 70.1785,39.6658 65.5,39.5C 65.5,34.8333 65.5,30.1667 65.5,25.5 Z"/></g>
<g><path style="opacity:1" fill="#21bfa7" d="M 33.5,31.5 C 33.5,32.8333 33.5,34.1667 33.5,35.5C 29.5,35.5 25.5,35.5 21.5,35.5C 21.5,34.1667 21.5,32.8333 21.5,31.5C 25.5,31.5 29.5,31.5 33.5,31.5 Z"/></g>
<g><path style="opacity:1" fill="#21bfa7" d="M 33.5,39.5 C 33.5,40.8333 33.5,42.1667 33.5,43.5C 29.5,43.5 25.5,43.5 21.5,43.5C 21.5,42.1667 21.5,40.8333 21.5,39.5C 25.5,39.5 29.5,39.5 33.5,39.5 Z"/></g>
<g><path style="opacity:1" fill="#21bfa7" d="M 33.5,47.5 C 33.5,48.8333 33.5,50.1667 33.5,51.5C 29.5,51.5 25.5,51.5 21.5,51.5C 21.5,50.1667 21.5,48.8333 21.5,47.5C 25.5,47.5 29.5,47.5 33.5,47.5 Z"/></g>
<g><path style="opacity:1" fill="#21bfa7" d="M 43.5,47.5 C 53.5,47.5 63.5,47.5 73.5,47.5C 73.5,48.8333 73.5,50.1667 73.5,51.5C 63.5,51.5 53.5,51.5 43.5,51.5C 43.5,50.1667 43.5,48.8333 43.5,47.5 Z"/></g>
<g><path style="opacity:1" fill="#21bfa7" d="M 33.5,55.5 C 33.5,56.8333 33.5,58.1667 33.5,59.5C 29.5,59.5 25.5,59.5 21.5,59.5C 21.5,58.1667 21.5,56.8333 21.5,55.5C 25.5,55.5 29.5,55.5 33.5,55.5 Z"/></g>
<g><path style="opacity:1" fill="#21bfa7" d="M 43.5,55.5 C 50.8333,55.5 58.1667,55.5 65.5,55.5C 65.5,56.8333 65.5,58.1667 65.5,59.5C 58.1667,59.5 50.8333,59.5 43.5,59.5C 43.5,58.1667 43.5,56.8333 43.5,55.5 Z"/></g>
<g><path style="opacity:1" fill="#21bfa7" d="M 43.5,63.5 C 53.5,63.5 63.5,63.5 73.5,63.5C 73.5,64.8333 73.5,66.1667 73.5,67.5C 63.5,67.5 53.5,67.5 43.5,67.5C 43.5,66.1667 43.5,64.8333 43.5,63.5 Z"/></g>
<g><path style="opacity:1" fill="#21bfa7" d="M 43.5,71.5 C 50.8333,71.5 58.1667,71.5 65.5,71.5C 65.5,72.8333 65.5,74.1667 65.5,75.5C 58.1667,75.5 50.8333,75.5 43.5,75.5C 43.5,74.1667 43.5,72.8333 43.5,71.5 Z"/></g>
</svg>
