<?xml version="1.0" encoding="UTF-8"?>
<!DOCTYPE svg PUBLIC "-//W3C//DTD SVG 1.1//EN" "http://www.w3.org/Graphics/SVG/1.1/DTD/svg11.dtd">
<svg xmlns="http://www.w3.org/2000/svg" version="1.1" width="100" height="100" style="shape-rendering:geometricPrecision; text-rendering:geometricPrecision; image-rendering:optimizeQuality; fill-rule:evenodd; clip-rule:evenodd" xmlns:xlink="http://www.w3.org/1999/xlink">
<g><path style="opacity:0.997" fill="#1b60c8" d="M 77.5,27.5 C 77.6666,40.1711 77.4999,52.8377 77,65.5C 76.7265,67.3289 75.8932,68.8289 74.5,70C 55.5682,71.462 36.5682,71.962 17.5,71.5C 14.8127,71.6641 12.146,71.4974 9.5,71C 7.66667,70.5 6.5,69.3333 6,67.5C 5.33333,51.5 5.33333,35.5 6,19.5C 6.37424,18.5838 6.87424,17.7504 7.5,17C 29.4114,15.3556 51.4114,15.0222 73.5,16C 75.3333,16.5 76.5,17.6667 77,19.5C 77.4974,22.146 77.6641,24.8127 77.5,27.5 Z"/></g>
<g><path style="opacity:1" fill="#bdf8f1" d="M 56.5,25.5 C 64.8068,25.2804 67.1402,28.7804 63.5,36C 57.7867,39.0594 54.4533,37.3927 53.5,31C 53.8627,28.8077 54.8627,26.9744 56.5,25.5 Z"/></g>
<g><path style="opacity:0.993" fill="#3c5c91" d="M 77.5,27.5 C 80.1873,27.3359 82.854,27.5026 85.5,28C 87.3333,28.5 88.5,29.6667 89,31.5C 89.6667,47.5 89.6667,63.5 89,79.5C 88.6258,80.4162 88.1258,81.2496 87.5,82C 65.5886,83.6444 43.5886,83.9778 21.5,83C 19.6667,82.5 18.5,81.3333 18,79.5C 17.5026,76.854 17.3359,74.1873 17.5,71.5C 36.5682,71.962 55.5682,71.462 74.5,70C 75.8932,68.8289 76.7265,67.3289 77,65.5C 77.4999,52.8377 77.6666,40.1711 77.5,27.5 Z"/></g>
<g><path style="opacity:1" fill="#094894" d="M 47.5,55.5 C 46.5849,57.7541 45.2516,59.7541 43.5,61.5C 34.1607,61.6665 24.8274,61.4998 15.5,61C 21.3898,52.7064 27.3898,44.5398 33.5,36.5C 38.4081,42.6469 43.0748,48.9803 47.5,55.5 Z"/></g>
<g><path style="opacity:1" fill="#0c6dbe" d="M 43.5,61.5 C 45.2516,59.7541 46.5849,57.7541 47.5,55.5C 50.16,52.8665 52.8267,50.1999 55.5,47.5C 59.6569,51.8257 63.6569,56.3257 67.5,61C 59.5069,61.4997 51.5069,61.6664 43.5,61.5 Z"/></g>
</svg>
