<svg id="visual" viewBox="0 0 960 540" width="960" height="540" xmlns="http://www.w3.org/2000/svg" xmlns:xlink="http://www.w3.org/1999/xlink" version="1.1"><path d="M0 55L13.3 52.3C26.7 49.7 53.3 44.3 80 44.3C106.7 44.3 133.3 49.7 160 49.7C186.7 49.7 213.3 44.3 240 43.5C266.7 42.7 293.3 46.3 320 50.8C346.7 55.3 373.3 60.7 400 58.8C426.7 57 453.3 48 480 47C506.7 46 533.3 53 560 53C586.7 53 613.3 46 640 42.5C666.7 39 693.3 39 720 38C746.7 37 773.3 35 800 35C826.7 35 853.3 37 880 39.8C906.7 42.7 933.3 46.3 946.7 48.2L960 50L960 0L946.7 0C933.3 0 906.7 0 880 0C853.3 0 826.7 0 800 0C773.3 0 746.7 0 720 0C693.3 0 666.7 0 640 0C613.3 0 586.7 0 560 0C533.3 0 506.7 0 480 0C453.3 0 426.7 0 400 0C373.3 0 346.7 0 320 0C293.3 0 266.7 0 240 0C213.3 0 186.7 0 160 0C133.3 0 106.7 0 80 0C53.3 0 26.7 0 13.3 0L0 0Z" fill="#AAA79F"></path><path d="M0 179L13.3 177.2C26.7 175.3 53.3 171.7 80 169.8C106.7 168 133.3 168 160 176.2C186.7 184.3 213.3 200.7 240 197.2C266.7 193.7 293.3 170.3 320 170.3C346.7 170.3 373.3 193.7 400 209C426.7 224.3 453.3 231.7 480 232.5C506.7 233.3 533.3 227.7 560 210.5C586.7 193.3 613.3 164.7 640 160.2C666.7 155.7 693.3 175.3 720 184.3C746.7 193.3 773.3 191.7 800 196.2C826.7 200.7 853.3 211.3 880 216.7C906.7 222 933.3 222 946.7 222L960 222L960 48L946.7 46.2C933.3 44.3 906.7 40.7 880 37.8C853.3 35 826.7 33 800 33C773.3 33 746.7 35 720 36C693.3 37 666.7 37 640 40.5C613.3 44 586.7 51 560 51C533.3 51 506.7 44 480 45C453.3 46 426.7 55 400 56.8C373.3 58.7 346.7 53.3 320 48.8C293.3 44.3 266.7 40.7 240 41.5C213.3 42.3 186.7 47.7 160 47.7C133.3 47.7 106.7 42.3 80 42.3C53.3 42.3 26.7 47.7 13.3 50.3L0 53Z" fill="#9C988F"></path><path d="M0 260L13.3 259.2C26.7 258.3 53.3 256.7 80 253.2C106.7 249.7 133.3 244.3 160 250.7C186.7 257 213.3 275 240 275.8C266.7 276.7 293.3 260.3 320 254.8C346.7 249.3 373.3 254.7 400 262.8C426.7 271 453.3 282 480 283C506.7 284 533.3 275 560 266C586.7 257 613.3 248 640 247C666.7 246 693.3 253 720 256.5C746.7 260 773.3 260 800 265.5C826.7 271 853.3 282 880 288.3C906.7 294.7 933.3 296.3 946.7 297.2L960 298L960 220L946.7 220C933.3 220 906.7 220 880 214.7C853.3 209.3 826.7 198.7 800 194.2C773.3 189.7 746.7 191.3 720 182.3C693.3 173.3 666.7 153.7 640 158.2C613.3 162.7 586.7 191.3 560 208.5C533.3 225.7 506.7 231.3 480 230.5C453.3 229.7 426.7 222.3 400 207C373.3 191.7 346.7 168.3 320 168.3C293.3 168.3 266.7 191.7 240 195.2C213.3 198.7 186.7 182.3 160 174.2C133.3 166 106.7 166 80 167.8C53.3 169.7 26.7 173.3 13.3 175.2L0 177Z" fill="#8F897F"></path><path d="M0 314L13.3 315.8C26.7 317.7 53.3 321.3 80 320.5C106.7 319.7 133.3 314.3 160 326C186.7 337.7 213.3 366.3 240 371.7C266.7 377 293.3 359 320 346.5C346.7 334 373.3 327 400 330.7C426.7 334.3 453.3 348.7 480 361.2C506.7 373.7 533.3 384.3 560 378C586.7 371.7 613.3 348.3 640 345.7C666.7 343 693.3 361 720 369.2C746.7 377.3 773.3 375.7 800 377.5C826.7 379.3 853.3 384.7 880 388.2C906.7 391.7 933.3 393.3 946.7 394.2L960 395L960 296L946.7 295.2C933.3 294.3 906.7 292.7 880 286.3C853.3 280 826.7 269 800 263.5C773.3 258 746.7 258 720 254.5C693.3 251 666.7 244 640 245C613.3 246 586.7 255 560 264C533.3 273 506.7 282 480 281C453.3 280 426.7 269 400 260.8C373.3 252.7 346.7 247.3 320 252.8C293.3 258.3 266.7 274.7 240 273.8C213.3 273 186.7 255 160 248.7C133.3 242.3 106.7 247.7 80 251.2C53.3 254.7 26.7 256.3 13.3 257.2L0 258Z" fill="#888277"></path><path d="M0 471L13.3 477.3C26.7 483.7 53.3 496.3 80 496.3C106.7 496.3 133.3 483.7 160 478.2C186.7 472.7 213.3 474.3 240 478.8C266.7 483.3 293.3 490.7 320 494.3C346.7 498 373.3 498 400 498.8C426.7 499.7 453.3 501.3 480 503.2C506.7 505 533.3 507 560 507C586.7 507 613.3 505 640 496.8C666.7 488.7 693.3 474.3 720 471.7C746.7 469 773.3 478 800 483.3C826.7 488.7 853.3 490.3 880 486.7C906.7 483 933.3 474 946.7 469.5L960 465L960 393L946.7 392.2C933.3 391.3 906.7 389.7 880 386.2C853.3 382.7 826.7 377.3 800 375.5C773.3 373.7 746.7 375.3 720 367.2C693.3 359 666.7 341 640 343.7C613.3 346.3 586.7 369.7 560 376C533.3 382.3 506.7 371.7 480 359.2C453.3 346.7 426.7 332.3 400 328.7C373.3 325 346.7 332 320 344.5C293.3 357 266.7 375 240 369.7C213.3 364.3 186.7 335.7 160 324C133.3 312.3 106.7 317.7 80 318.5C53.3 319.3 26.7 315.7 13.3 313.8L0 312Z" fill="#757067"></path><path d="M0 541L13.3 541C26.7 541 53.3 541 80 541C106.7 541 133.3 541 160 541C186.7 541 213.3 541 240 541C266.7 541 293.3 541 320 541C346.7 541 373.3 541 400 541C426.7 541 453.3 541 480 541C506.7 541 533.3 541 560 541C586.7 541 613.3 541 640 541C666.7 541 693.3 541 720 541C746.7 541 773.3 541 800 541C826.7 541 853.3 541 880 541C906.7 541 933.3 541 946.7 541L960 541L960 463L946.7 467.5C933.3 472 906.7 481 880 484.7C853.3 488.3 826.7 486.7 800 481.3C773.3 476 746.7 467 720 469.7C693.3 472.3 666.7 486.7 640 494.8C613.3 503 586.7 505 560 505C533.3 505 506.7 503 480 501.2C453.3 499.3 426.7 497.7 400 496.8C373.3 496 346.7 496 320 492.3C293.3 488.7 266.7 481.3 240 476.8C213.3 472.3 186.7 470.7 160 476.2C133.3 481.7 106.7 494.3 80 494.3C53.3 494.3 26.7 481.7 13.3 475.3L0 469Z" fill="#635F57"></path></svg>