<?xml version="1.0" encoding="UTF-8"?>
<!DOCTYPE svg PUBLIC "-//W3C//DTD SVG 1.1//EN" "http://www.w3.org/Graphics/SVG/1.1/DTD/svg11.dtd">
<svg xmlns="http://www.w3.org/2000/svg" version="1.1" width="96px" height="96px" style="shape-rendering:geometricPrecision; text-rendering:geometricPrecision; image-rendering:optimizeQuality; fill-rule:evenodd; clip-rule:evenodd" xmlns:xlink="http://www.w3.org/1999/xlink">
<g><path style="opacity:0.987" fill="#f63267" d="M 75.5,25.5 C 75.6658,30.1785 75.4992,34.8452 75,39.5C 64.8333,49.6667 54.6667,59.8333 44.5,70C 41.5,72 38.5,72 35.5,70C 30.6313,64.9635 25.6313,60.1302 20.5,55.5C 17.5361,53.0381 14.7028,50.3714 12,47.5C 11.3333,44.5 11.3333,41.5 12,38.5C 22.1667,28.3333 32.3333,18.1667 42.5,8C 52.9325,7.04952 63.2659,7.38285 73.5,9C 74.1258,9.75044 74.6258,10.5838 75,11.5C 75.4992,16.1548 75.6658,20.8215 75.5,25.5 Z M 61.5,16.5 C 66.1585,16.0146 67.4919,17.848 65.5,22C 60.7282,22.8104 59.3948,20.9771 61.5,16.5 Z"/></g>
<g><path style="opacity:0.993" fill="#cf4471" d="M 75.5,25.5 C 78.9612,25.1459 81.4612,26.4792 83,29.5C 83.6667,39.1667 83.6667,48.8333 83,58.5C 72.8333,68.6667 62.6667,78.8333 52.5,89C 49.5,89.6667 46.5,89.6667 43.5,89C 35.6667,81.1667 27.8333,73.3333 20,65.5C 19.2534,62.0764 19.42,58.7431 20.5,55.5C 25.6313,60.1302 30.6313,64.9635 35.5,70C 38.5,72 41.5,72 44.5,70C 54.6667,59.8333 64.8333,49.6667 75,39.5C 75.4992,34.8452 75.6658,30.1785 75.5,25.5 Z"/></g>
</svg>
