<svg id="visual" viewBox="0 0 960 540" width="960" height="540" xmlns="http://www.w3.org/2000/svg" xmlns:xlink="http://www.w3.org/1999/xlink" version="1.1"><path d="M0 55L16 56.8C32 58.7 64 62.3 96 61.5C128 60.7 160 55.3 192 47.2C224 39 256 28 288 23.5C320 19 352 21 384 23.7C416 26.3 448 29.7 480 35C512 40.3 544 47.7 576 51.3C608 55 640 55 672 48.7C704 42.3 736 29.7 768 31.5C800 33.3 832 49.7 864 55.2C896 60.7 928 55.3 944 52.7L960 50L960 0L944 0C928 0 896 0 864 0C832 0 800 0 768 0C736 0 704 0 672 0C640 0 608 0 576 0C544 0 512 0 480 0C448 0 416 0 384 0C352 0 320 0 288 0C256 0 224 0 192 0C160 0 128 0 96 0C64 0 32 0 16 0L0 0Z" fill="#7b6035"></path><path d="M0 77L16 80.5C32 84 64 91 96 96.3C128 101.7 160 105.3 192 97.3C224 89.3 256 69.7 288 69.7C320 69.7 352 89.3 384 92.8C416 96.3 448 83.7 480 80C512 76.3 544 81.7 576 88C608 94.3 640 101.7 672 96.3C704 91 736 73 768 77.5C800 82 832 109 864 117.2C896 125.3 928 114.7 944 109.3L960 104L960 48L944 50.7C928 53.3 896 58.7 864 53.2C832 47.7 800 31.3 768 29.5C736 27.7 704 40.3 672 46.7C640 53 608 53 576 49.3C544 45.7 512 38.3 480 33C448 27.7 416 24.3 384 21.7C352 19 320 17 288 21.5C256 26 224 37 192 45.2C160 53.3 128 58.7 96 59.5C64 60.3 32 56.7 16 54.8L0 53Z" fill="#9b7842"></path><path d="M0 168L16 176.2C32 184.3 64 200.7 96 224.2C128 247.7 160 278.3 192 277.5C224 276.7 256 244.3 288 229C320 213.7 352 215.3 384 209C416 202.7 448 188.3 480 176.7C512 165 544 156 576 154.2C608 152.3 640 157.7 672 158.5C704 159.3 736 155.7 768 161C800 166.3 832 180.7 864 191.5C896 202.3 928 209.7 944 213.3L960 217L960 102L944 107.3C928 112.7 896 123.3 864 115.2C832 107 800 80 768 75.5C736 71 704 89 672 94.3C640 99.7 608 92.3 576 86C544 79.7 512 74.3 480 78C448 81.7 416 94.3 384 90.8C352 87.3 320 67.7 288 67.7C256 67.7 224 87.3 192 95.3C160 103.3 128 99.7 96 94.3C64 89 32 82 16 78.5L0 75Z" fill="#b3905d"></path><path d="M0 309L16 309.8C32 310.7 64 312.3 96 324C128 335.7 160 357.3 192 356.5C224 355.7 256 332.3 288 316.2C320 300 352 291 384 278.3C416 265.7 448 249.3 480 232.2C512 215 544 197 576 193.5C608 190 640 201 672 204.7C704 208.3 736 204.7 768 216.3C800 228 832 255 864 271.2C896 287.3 928 292.7 944 295.3L960 298L960 215L944 211.3C928 207.7 896 200.3 864 189.5C832 178.7 800 164.3 768 159C736 153.7 704 157.3 672 156.5C640 155.7 608 150.3 576 152.2C544 154 512 163 480 174.7C448 186.3 416 200.7 384 207C352 213.3 320 211.7 288 227C256 242.3 224 274.7 192 275.5C160 276.3 128 245.7 96 222.2C64 198.7 32 182.3 16 174.2L0 166Z" fill="#c2a47a"></path><path d="M0 341L16 342C32 343 64 345 96 359.5C128 374 160 401 192 402.7C224 404.3 256 380.7 288 359.8C320 339 352 321 384 306.7C416 292.3 448 281.7 480 270C512 258.3 544 245.7 576 245.7C608 245.7 640 258.3 672 260.2C704 262 736 253 768 259.3C800 265.7 832 287.3 864 299C896 310.7 928 312.3 944 313.2L960 314L960 296L944 293.3C928 290.7 896 285.3 864 269.2C832 253 800 226 768 214.3C736 202.7 704 206.3 672 202.7C640 199 608 188 576 191.5C544 195 512 213 480 230.2C448 247.3 416 263.7 384 276.3C352 289 320 298 288 314.2C256 330.3 224 353.7 192 354.5C160 355.3 128 333.7 96 322C64 310.3 32 308.7 16 307.8L0 307Z" fill="#c2a47a"></path><path d="M0 368L16 377C32 386 64 404 96 421.2C128 438.3 160 454.7 192 460.2C224 465.7 256 460.3 288 447.7C320 435 352 415 384 396C416 377 448 359 480 344.7C512 330.3 544 319.7 576 317.8C608 316 640 323 672 323.8C704 324.7 736 319.3 768 326.7C800 334 832 354 864 360.3C896 366.7 928 359.3 944 355.7L960 352L960 312L944 311.2C928 310.3 896 308.7 864 297C832 285.3 800 263.7 768 257.3C736 251 704 260 672 258.2C640 256.3 608 243.7 576 243.7C544 243.7 512 256.3 480 268C448 279.7 416 290.3 384 304.7C352 319 320 337 288 357.8C256 378.7 224 402.3 192 400.7C160 399 128 372 96 357.5C64 343 32 341 16 340L0 339Z" fill="#b3905d"></path><path d="M0 395L16 407.7C32 420.3 64 445.7 96 460.2C128 474.7 160 478.3 192 481.8C224 485.3 256 488.7 288 476.8C320 465 352 438 384 414.7C416 391.3 448 371.7 480 361.8C512 352 544 352 576 357.3C608 362.7 640 373.3 672 369.7C704 366 736 348 768 355.3C800 362.7 832 395.3 864 406.2C896 417 928 406 944 400.5L960 395L960 350L944 353.7C928 357.3 896 364.7 864 358.3C832 352 800 332 768 324.7C736 317.3 704 322.7 672 321.8C640 321 608 314 576 315.8C544 317.7 512 328.3 480 342.7C448 357 416 375 384 394C352 413 320 433 288 445.7C256 458.3 224 463.7 192 458.2C160 452.7 128 436.3 96 419.2C64 402 32 384 16 375L0 366Z" fill="#9b7842"></path><path d="M0 541L16 541C32 541 64 541 96 541C128 541 160 541 192 541C224 541 256 541 288 541C320 541 352 541 384 541C416 541 448 541 480 541C512 541 544 541 576 541C608 541 640 541 672 541C704 541 736 541 768 541C800 541 832 541 864 541C896 541 928 541 944 541L960 541L960 393L944 398.5C928 404 896 415 864 404.2C832 393.3 800 360.7 768 353.3C736 346 704 364 672 367.7C640 371.3 608 360.7 576 355.3C544 350 512 350 480 359.8C448 369.7 416 389.3 384 412.7C352 436 320 463 288 474.8C256 486.7 224 483.3 192 479.8C160 476.3 128 472.7 96 458.2C64 443.7 32 418.3 16 405.7L0 393Z" fill="#7b6035"></path></svg>