<?xml version="1.0" encoding="UTF-8"?>
<!DOCTYPE svg PUBLIC "-//W3C//DTD SVG 1.1//EN" "http://www.w3.org/Graphics/SVG/1.1/DTD/svg11.dtd">
<svg xmlns="http://www.w3.org/2000/svg" version="1.1" width="96px" height="96px" style="shape-rendering:geometricPrecision; text-rendering:geometricPrecision; image-rendering:optimizeQuality; fill-rule:evenodd; clip-rule:evenodd" xmlns:xlink="http://www.w3.org/1999/xlink">
<g><path style="opacity:0.999" fill="#d1a411" d="M 11.5,11.5 C 35.5,11.5 59.5,11.5 83.5,11.5C 83.5,35.5 83.5,59.5 83.5,83.5C 59.5,83.5 35.5,83.5 11.5,83.5C 11.5,59.5 11.5,35.5 11.5,11.5 Z"/></g>
<g><path style="opacity:1" fill="#fdf9ea" d="M 16.5,15.5 C 21.1585,15.0146 22.4919,16.848 20.5,21C 15.7282,21.8104 14.3948,19.9771 16.5,15.5 Z"/></g>
<g><path style="opacity:1" fill="#fdf9ea" d="M 24.5,15.5 C 29.1585,15.0146 30.4919,16.848 28.5,21C 23.7282,21.8104 22.3948,19.9771 24.5,15.5 Z"/></g>
<g><path style="opacity:1" fill="#000000" d="M 15.5,25.5 C 36.8333,25.5 58.1667,25.5 79.5,25.5C 79.5,43.5 79.5,61.5 79.5,79.5C 58.1667,79.5 36.8333,79.5 15.5,79.5C 15.5,61.5 15.5,43.5 15.5,25.5 Z"/></g>
<g><path style="opacity:1" fill="#eef5b9" d="M 29.5,43.5 C 34.1261,45.6289 38.1261,48.4623 41.5,52C 41.5607,53.7106 40.8941,55.044 39.5,56C 36.0879,57.4545 32.9212,59.2879 30,61.5C 29.3333,59.8333 29.3333,58.1667 30,56.5C 31.9734,55.3601 33.8067,54.0267 35.5,52.5C 33.8067,50.9733 31.9734,49.6399 30,48.5C 29.5065,46.8659 29.3398,45.1992 29.5,43.5 Z"/></g>
<g><path style="opacity:1" fill="#f6ffc4" d="M 45.5,57.5 C 52.1667,57.5 58.8333,57.5 65.5,57.5C 65.5,58.8333 65.5,60.1667 65.5,61.5C 58.8333,61.5 52.1667,61.5 45.5,61.5C 45.5,60.1667 45.5,58.8333 45.5,57.5 Z"/></g>
</svg>
